<svg xmlns="http://www.w3.org/2000/svg" xmlns:xlink="http://www.w3.org/1999/xlink" id="Layer_1" x="0px" y="0px" viewBox="0 0 259.7 52.3" style="enable-background:new 0 0 259.7 52.3;" xml:space="preserve"><style type="text/css">	.st0{fill-rule:evenodd;clip-rule:evenodd;fill:#242021;}	.st1{fill:#2B2A29;}	.st2{fill-rule:evenodd;clip-rule:evenodd;fill:#ED2024;}	.st3{fill:#FFED00;}	.st4{fill:#E6AB3D;}	.st5{clip-path:url(#SVGID_2_);fill:url(#SVGID_3_);}	.st6{fill-rule:evenodd;clip-rule:evenodd;fill:#8E5715;}	.st7{clip-path:url(#SVGID_5_);fill:url(#SVGID_6_);}	.st8{fill-rule:evenodd;clip-rule:evenodd;fill:#E6AB3D;}	.st9{fill-rule:evenodd;clip-rule:evenodd;fill:#00703F;}	.st10{clip-path:url(#SVGID_8_);fill:url(#SVGID_9_);}	.st11{clip-path:url(#SVGID_11_);fill:url(#SVGID_12_);}	.st12{clip-path:url(#SVGID_14_);fill:url(#SVGID_15_);}	.st13{fill:#00703C;}	.st14{fill-rule:evenodd;clip-rule:evenodd;fill:#2B2A29;}	.st15{fill:#E6A740;}	.st16{clip-path:url(#SVGID_17_);fill:#E6A740;}	.st17{fill:none;stroke:#E6A740;stroke-width:1.0321;stroke-miterlimit:22.9256;}	.st18{fill-rule:evenodd;clip-rule:evenodd;fill:#00703C;}</style><title>Asset 1</title><polygon class="st0" points="259.7,38.7 171.7,38.7 171.7,39.6 259.7,39.6 "></polygon><path class="st1" d="M188.9,44.3l-0.6-1.5l-0.6,1.5H188.9z M190.5,45.9h-0.9l-0.4-0.9h-1.6l-0.4,0.9h-0.9l1.6-4.1h0.9L190.5,45.9z"></path><path class="st1" d="M193.4,43.8l-0.8,0.1c0-0.1-0.1-0.3-0.2-0.3c-0.1-0.1-0.2-0.1-0.4-0.1c-0.2,0-0.4,0.1-0.5,0.2 c-0.1,0.2-0.2,0.4-0.2,0.7c0,0.3,0,0.5,0.2,0.8c0.1,0.1,0.3,0.2,0.5,0.2c0.1,0,0.3,0,0.4-0.1c0.1-0.1,0.2-0.3,0.2-0.4l0.8,0.1 c-0.1,0.3-0.2,0.6-0.5,0.8c-0.3,0.2-0.6,0.3-0.9,0.3c-0.4,0-0.7-0.1-1-0.4c-0.3-0.3-0.4-0.7-0.4-1.1c0-0.4,0.1-0.8,0.4-1.2 c0.3-0.3,0.7-0.4,1-0.4c0.3,0,0.6,0.1,0.9,0.2C193.3,43.3,193.4,43.5,193.4,43.8"></path><path class="st1" d="M196.6,43.8l-0.8,0.1c0-0.1-0.1-0.3-0.2-0.3c-0.1-0.1-0.2-0.1-0.4-0.1c-0.2,0-0.4,0.1-0.5,0.2 c-0.1,0.2-0.2,0.4-0.2,0.7c0,0.3,0,0.5,0.2,0.8c0.1,0.1,0.3,0.2,0.5,0.2c0.1,0,0.3,0,0.4-0.1c0.1-0.1,0.2-0.3,0.2-0.4l0.8,0.1 c-0.1,0.7-0.7,1.2-1.4,1.1c-0.4,0-0.7-0.1-1-0.4c-0.3-0.3-0.4-0.7-0.4-1.1c0-0.4,0.1-0.8,0.4-1.2c0.3-0.3,0.7-0.4,1-0.4 c0.3,0,0.6,0.1,0.9,0.2C196.4,43.3,196.6,43.6,196.6,43.8"></path><path class="st1" d="M197.9,45.9h-0.8v-3h0.8v0.4c0.1-0.2,0.2-0.3,0.3-0.4c0.1-0.1,0.2-0.1,0.3-0.1c0.2,0,0.4,0.1,0.5,0.2l-0.2,0.7 c-0.1-0.1-0.2-0.1-0.4-0.1c-0.1,0-0.2,0-0.3,0.1c-0.1,0.1-0.2,0.2-0.2,0.3c-0.1,0.3-0.1,0.7-0.1,1L197.9,45.9z"></path><path class="st1" d="M201.2,44.2c0-0.2-0.1-0.4-0.2-0.5c-0.1-0.1-0.3-0.2-0.4-0.2c-0.2,0-0.3,0.1-0.4,0.2c-0.1,0.1-0.2,0.3-0.2,0.5 L201.2,44.2z M201.2,45l0.8,0.1c-0.1,0.3-0.2,0.5-0.5,0.7c-0.2,0.2-0.5,0.2-0.8,0.2c-0.4,0-0.9-0.2-1.1-0.5c-0.2-0.3-0.3-0.6-0.3-1 c0-0.4,0.1-0.8,0.4-1.2c0.3-0.3,0.6-0.4,1-0.4c0.4,0,0.8,0.1,1,0.4c0.3,0.4,0.4,0.9,0.4,1.3h-2c0,0.2,0.1,0.4,0.2,0.5 c0.1,0.1,0.3,0.2,0.5,0.2c0.1,0,0.2,0,0.3-0.1C201.1,45.2,201.2,45.1,201.2,45L201.2,45z"></path><path class="st1" d="M203.3,44.4c0,0.2,0,0.5,0.1,0.7c0.1,0.2,0.3,0.3,0.5,0.3c0.2,0,0.3-0.1,0.5-0.2c0.1-0.2,0.2-0.5,0.2-0.7 c0-0.3,0-0.5-0.2-0.7c-0.2-0.3-0.6-0.3-0.8-0.1c0,0-0.1,0.1-0.1,0.1C203.3,43.9,203.2,44.1,203.3,44.4 M205.4,45.9h-0.7v-0.4 c-0.1,0.2-0.3,0.3-0.4,0.4c-0.2,0.1-0.3,0.1-0.5,0.1c-0.3,0-0.7-0.2-0.9-0.4c-0.5-0.7-0.5-1.6,0-2.3c0.2-0.3,0.6-0.4,0.9-0.4 c0.3,0,0.6,0.2,0.9,0.4v-1.5h0.8L205.4,45.9z"></path><path class="st1" d="M206.1,45.9v-3h0.8v3H206.1z M206.1,42.5v-0.7h0.8v0.7L206.1,42.5z"></path><path class="st1" d="M209.1,42.9v0.6h-0.5v1.2c0,0.1,0,0.3,0,0.4c0,0,0,0.1,0.1,0.1c0,0,0.1,0,0.1,0c0.1,0,0.2,0,0.3-0.1l0.1,0.6 c-0.2,0.1-0.4,0.1-0.6,0.1c-0.1,0-0.3,0-0.4-0.1c-0.1,0-0.2-0.1-0.3-0.2c-0.1-0.1-0.1-0.2-0.1-0.3c0-0.2,0-0.4,0-0.5v-1.3h-0.4v-0.6 h0.4v-0.6l0.8-0.5v1L209.1,42.9z"></path><path class="st1" d="M211.4,44.2c0-0.2-0.1-0.4-0.2-0.5c-0.1-0.1-0.3-0.2-0.4-0.2c-0.2,0-0.3,0.1-0.4,0.2c-0.1,0.1-0.2,0.3-0.2,0.5 L211.4,44.2z M211.3,45l0.8,0.1c-0.1,0.3-0.3,0.5-0.5,0.7c-0.2,0.2-0.5,0.2-0.8,0.2c-0.4,0-0.9-0.2-1.1-0.5c-0.2-0.3-0.3-0.6-0.3-1 c0-0.4,0.1-0.8,0.4-1.2c0.3-0.3,0.6-0.4,1-0.4c0.4,0,0.7,0.2,1,0.4c0.3,0.4,0.4,0.9,0.4,1.3h-2c0,0.2,0.1,0.4,0.2,0.5 c0.1,0.1,0.3,0.2,0.5,0.2c0.1,0,0.2,0,0.3-0.1C211.2,45.2,211.3,45.1,211.3,45L211.3,45z"></path><path class="st1" d="M213.4,44.4c0,0.2,0,0.5,0.1,0.7c0.1,0.2,0.3,0.3,0.5,0.3c0.2,0,0.3-0.1,0.5-0.2c0.1-0.2,0.2-0.5,0.2-0.7 c0-0.3,0-0.5-0.2-0.7c-0.1-0.1-0.3-0.2-0.5-0.2c-0.2,0-0.3,0.1-0.5,0.2C213.5,43.9,213.4,44.1,213.4,44.4 M215.5,45.9h-0.7v-0.4 c-0.1,0.2-0.3,0.3-0.4,0.4c-0.2,0.1-0.3,0.1-0.5,0.1c-0.3,0-0.7-0.2-0.9-0.4c-0.5-0.7-0.5-1.6,0-2.3c0.2-0.3,0.6-0.4,0.9-0.4 c0.3,0,0.6,0.2,0.9,0.4v-1.5h0.8L215.5,45.9z"></path><path class="st1" d="M217.9,41.8h0.8V44c0,0.2,0,0.5,0,0.7c0,0.2,0.1,0.3,0.3,0.4c0.2,0.1,0.4,0.2,0.5,0.2c0.2,0,0.4,0,0.5-0.2 c0.1-0.1,0.2-0.2,0.2-0.3c0-0.2,0-0.5,0-0.7v-2.3h0.8V44c0,0.3,0,0.7-0.1,1c0,0.2-0.1,0.4-0.2,0.5c-0.1,0.1-0.3,0.3-0.5,0.3 c-0.3,0.1-0.5,0.1-0.8,0.1c-0.3,0-0.6,0-0.9-0.1c-0.2-0.1-0.3-0.2-0.5-0.3c-0.1-0.1-0.2-0.3-0.2-0.5c-0.1-0.3-0.1-0.7-0.1-1 L217.9,41.8z"></path><path class="st1" d="M224.7,45.9h-0.8v-1.5c0-0.2,0-0.4,0-0.6c0-0.1-0.1-0.2-0.2-0.2c-0.1-0.1-0.2-0.1-0.3-0.1c-0.1,0-0.3,0-0.4,0.1 c-0.1,0.1-0.2,0.2-0.2,0.3c-0.1,0.2-0.1,0.5-0.1,0.7v1.3H222v-3h0.7v0.4c0.2-0.3,0.6-0.5,1-0.5c0.2,0,0.3,0,0.5,0.1 c0.1,0.1,0.2,0.1,0.3,0.2c0.1,0.1,0.1,0.2,0.1,0.3c0,0.2,0.1,0.4,0,0.5L224.7,45.9z"></path><path class="st1" d="M225.5,45.9v-3h0.8v3H225.5z M225.5,42.5v-0.7h0.8v0.7L225.5,42.5z"></path><path class="st1" d="M227.9,45.9l-1.2-3h0.8l0.5,1.5l0.2,0.5l0.1-0.3c0-0.1,0-0.2,0.1-0.3l0.6-1.5h0.8l-1.2,3H227.9z"></path><path class="st1" d="M232.1,44.2c0-0.2-0.1-0.4-0.2-0.5c-0.1-0.1-0.2-0.2-0.4-0.2c-0.2,0-0.3,0.1-0.4,0.2c-0.1,0.1-0.2,0.3-0.2,0.5 L232.1,44.2z M232,45l0.8,0.1c-0.1,0.3-0.3,0.5-0.5,0.7c-0.2,0.2-0.5,0.2-0.8,0.2c-0.4,0-0.9-0.2-1.1-0.5c-0.2-0.3-0.3-0.6-0.3-1 c0-0.4,0.1-0.8,0.4-1.2c0.5-0.6,1.4-0.6,2,0c0,0,0,0,0,0c0.3,0.4,0.4,0.9,0.4,1.3h-2c0,0.2,0.1,0.4,0.2,0.5c0.1,0.1,0.3,0.2,0.5,0.2 c0.1,0,0.2,0,0.3-0.1C231.9,45.2,232,45.1,232,45L232,45z"></path><path class="st1" d="M234.2,45.9h-0.8v-3h0.7v0.4c0.1-0.2,0.2-0.3,0.3-0.4c0.1-0.1,0.2-0.1,0.3-0.1c0.2,0,0.4,0.1,0.5,0.2l-0.2,0.7 c-0.1-0.1-0.2-0.1-0.4-0.1c-0.1,0-0.2,0-0.3,0.1c-0.1,0.1-0.2,0.2-0.2,0.3c-0.1,0.3-0.1,0.7-0.1,1V45.9z"></path><path class="st1" d="M235.4,45.1l0.8-0.1c0,0.1,0.1,0.3,0.2,0.3c0.1,0.1,0.3,0.1,0.4,0.1c0.2,0,0.3,0,0.5-0.1c0.1,0,0.1-0.1,0.1-0.2 c0-0.1,0-0.1-0.1-0.2c-0.1-0.1-0.2-0.1-0.3-0.1c-0.4-0.1-0.8-0.2-1.2-0.4c-0.2-0.1-0.4-0.4-0.4-0.7c0-0.3,0.1-0.5,0.3-0.7 c0.3-0.2,0.6-0.3,1-0.3c0.3,0,0.6,0,0.9,0.2c0.2,0.1,0.4,0.3,0.4,0.6l-0.7,0.1c0-0.1-0.1-0.2-0.2-0.3c-0.1-0.1-0.2-0.1-0.4-0.1 c-0.2,0-0.3,0-0.5,0.1c-0.1,0-0.1,0.1-0.1,0.2c0,0.1,0,0.1,0.1,0.1c0.2,0.1,0.5,0.2,0.7,0.2c0.3,0,0.6,0.2,0.9,0.3 c0.2,0.1,0.3,0.4,0.3,0.6c0,0.3-0.1,0.5-0.4,0.7c-0.3,0.2-0.6,0.3-1,0.3c-0.4,0-0.7-0.1-1-0.3C235.6,45.6,235.5,45.3,235.4,45.1"></path><path class="st1" d="M238.9,45.9v-3h0.8v3H238.9z M238.9,42.5v-0.7h0.8v0.7L238.9,42.5z"></path><path class="st1" d="M241.9,42.9v0.6h-0.5v1.2c0,0.1,0,0.3,0,0.4c0,0,0,0.1,0.1,0.1c0,0,0.1,0,0.1,0c0.1,0,0.2,0,0.3-0.1l0.1,0.6 c-0.2,0.1-0.4,0.1-0.6,0.1c-0.1,0-0.3,0-0.4-0.1c-0.1,0-0.2-0.1-0.2-0.2c-0.1-0.1-0.1-0.2-0.1-0.3c0-0.1,0-0.3,0-0.5v-1.3h-0.4v-0.6 h0.4v-0.6l0.8-0.5v1L241.9,42.9z"></path><path class="st1" d="M242,42.9h0.8l0.7,2.1l0.7-2.1h0.8l-1,2.9l-0.2,0.5c-0.1,0.1-0.1,0.3-0.2,0.4c-0.1,0.1-0.1,0.2-0.2,0.2 c-0.1,0.1-0.2,0.1-0.3,0.1c-0.1,0-0.3,0-0.4,0c-0.1,0-0.3,0-0.5,0l-0.1-0.6c0.1,0,0.2,0,0.3,0c0.2,0,0.3,0,0.4-0.2 c0.1-0.1,0.2-0.3,0.2-0.4L242,42.9z"></path><path class="st2" d="M235.4,24.9h7.4c0-0.4-3.6-11-3.7-11.1C238.6,15.1,235.4,24.7,235.4,24.9 M223.9,36h7.6l2-5.3h11.4l2,5.3h7.6 l-11-30.4h-7.7L223.9,36z"></path><polygon class="st2" points="252.2,17.2 254.7,17.2 254.7,5.6 252.3,5.5 "></polygon><polygon class="st2" points="247.6,10.1 247.6,12.6 259.3,12.6 259.3,10.2 "></polygon><path class="st1" d="M172.5,21.5c-0.1,0-0.1,0-0.2-0.1c-0.1-0.1-0.1-0.1-0.1-0.2V5.7c0-0.1,0-0.1,0.1-0.2c0-0.1,0.1-0.1,0.2-0.1h2.6 c0.1,0,0.3,0.1,0.3,0.2l4.1,9.2c0,0,0.1,0.1,0.1,0.1s0,0,0-0.1V5.7c0-0.1,0-0.1,0.1-0.2c0-0.1,0.1-0.1,0.2-0.1h2.5 c0.1,0,0.1,0,0.2,0.1c0,0.1,0.1,0.1,0.1,0.2v15.6c0,0.1,0,0.1-0.1,0.2c0,0.1-0.1,0.1-0.2,0.1h-2.6c-0.1,0-0.3-0.1-0.3-0.2l-4.1-9.3 c0-0.1,0-0.1-0.1-0.1c-0.1,0,0,0,0,0.1v9.1c0,0.1,0,0.1-0.1,0.2c0,0.1-0.1,0.1-0.2,0.1L172.5,21.5z"></path><path class="st1" d="M188.6,16.3c0,0,0,0.1,0,0.1c0,0,0.1,0,0.1,0h2.8c0,0,0.1,0,0.1,0c0,0,0,0,0-0.1l-1.4-6.5c0-0.1,0-0.1-0.1-0.1 c0,0-0.1,0-0.1,0.1L188.6,16.3z M192.9,21.5c-0.1,0-0.3-0.1-0.3-0.2l-0.5-2.3c0-0.1-0.1-0.1-0.1-0.1h-4c-0.1,0-0.1,0-0.1,0.1 l-0.5,2.3c0,0.1-0.2,0.2-0.3,0.2h-2.6c-0.2,0-0.3-0.1-0.2-0.3l3.9-15.6c0-0.1,0.2-0.2,0.3-0.2h3.1c0.1,0,0.3,0.1,0.3,0.2l3.9,15.6 v0.1c0,0.1-0.1,0.2-0.2,0.2H192.9z"></path><path class="st1" d="M201.2,16.3c0,0,0,0.1,0,0.1c0,0,0.1,0,0.1,0h2.9c0,0,0.1,0,0.1,0c0,0,0,0,0-0.1l-1.5-6.5c0-0.1,0-0.1-0.1-0.1 c0,0-0.1,0-0.1,0.1L201.2,16.3z M205.6,21.5c-0.1,0-0.3-0.1-0.3-0.2l-0.5-2.3c0-0.1,0-0.1-0.1-0.1h-4c-0.1,0-0.1,0-0.1,0.1l-0.5,2.3 c0,0.1-0.2,0.2-0.3,0.2h-2.6c-0.2,0-0.3-0.1-0.2-0.3l3.9-15.6c0-0.1,0.2-0.2,0.3-0.2h3.1c0.1,0,0.3,0.1,0.3,0.2l3.9,15.6v0.1 c0,0.1-0.1,0.2-0.2,0.2H205.6z"></path><path class="st1" d="M214.9,21.7c-0.9,0-1.8-0.2-2.6-0.6c-0.7-0.4-1.3-1-1.7-1.8c-0.4-0.8-0.6-1.7-0.6-2.7v-6.4 c0-0.9,0.2-1.8,0.6-2.6c0.4-0.7,1-1.4,1.7-1.8c0.8-0.4,1.7-0.6,2.6-0.6c0.9,0,1.8,0.2,2.6,0.6c0.7,0.4,1.3,1,1.7,1.7 c0.4,0.8,0.6,1.7,0.6,2.6v0.1c0,0.1,0,0.1-0.1,0.2c0,0.1-0.1,0.1-0.2,0.1l-2.5,0.1c-0.2,0-0.3-0.1-0.3-0.3v-0.3 c0-0.6-0.2-1.1-0.5-1.5c-0.7-0.8-2-0.8-2.7,0c0,0,0,0,0,0c-0.4,0.4-0.5,1-0.5,1.5v6.7c0,0.6,0.2,1.1,0.5,1.5c0.8,0.7,2,0.7,2.8,0 c0.4-0.4,0.6-1,0.5-1.5v-0.3c0-0.2,0.1-0.3,0.3-0.3l2.5,0.1c0.2,0,0.3,0.1,0.3,0.2v0.2c0,0.9-0.2,1.8-0.6,2.6 c-0.4,0.7-1,1.3-1.7,1.7C216.7,21.5,215.8,21.8,214.9,21.7"></path><path class="st1" d="M176.2,36.3c-0.8,0-1.5-0.2-2.2-0.5c-0.6-0.3-1.1-0.8-1.5-1.4c-0.3-0.6-0.5-1.3-0.5-2.1v-5.1 c0-0.7,0.2-1.4,0.5-2.1c0.3-0.6,0.9-1.1,1.5-1.4c1.4-0.6,3-0.6,4.3,0c0.6,0.3,1.1,0.8,1.5,1.3c0.4,0.6,0.5,1.3,0.5,2v0.4 c0,0.1-0.1,0.2-0.2,0.2c0,0,0,0,0,0H178c-0.1,0-0.2-0.1-0.2-0.2c0,0,0,0,0,0v-0.4c0-0.4-0.1-0.8-0.4-1.1c-0.7-0.6-1.7-0.6-2.3,0 c-0.3,0.3-0.5,0.8-0.4,1.2v5.2c0,0.5,0.1,0.9,0.5,1.2c0.3,0.3,0.8,0.5,1.2,0.5c0.4,0,0.8-0.1,1.1-0.4c0.3-0.3,0.5-0.7,0.4-1.1v-1.1 c0,0,0-0.1-0.1-0.1c0,0,0,0,0,0h-1.4c-0.1,0-0.1,0-0.2-0.1c0,0-0.1-0.1-0.1-0.2v-1.6c0-0.1,0-0.1,0.1-0.1c0,0,0.1-0.1,0.2-0.1h3.8 c0.1,0,0.1,0,0.2,0.1c0,0,0.1,0.1,0.1,0.1v2.9c0,1.1-0.4,2.1-1.1,2.9C178.4,36,177.4,36.4,176.2,36.3"></path><path class="st1" d="M184.6,25.7C184.6,25.7,184.5,25.7,184.6,25.7C184.5,25.8,184.5,25.8,184.6,25.7l-0.1,3.2c0,0,0,0.1,0.1,0.1 c0,0,0,0,0,0h1.6c0.4,0,0.8-0.1,1.1-0.4c0.3-0.3,0.4-0.7,0.4-1.2c0-0.4-0.1-0.9-0.4-1.2c-0.3-0.3-0.7-0.5-1.1-0.4L184.6,25.7z  M187.9,36.2c-0.1,0-0.2-0.1-0.3-0.2l-1.8-5c0,0-0.1-0.1-0.1-0.1h-1.1c0,0-0.1,0-0.1,0.1c0,0,0,0,0,0v5c0,0.1,0,0.1-0.1,0.2 c0,0-0.1,0.1-0.2,0.1h-2.1c-0.1,0-0.1,0-0.2-0.1c-0.1,0-0.1-0.1-0.1-0.2V23.7c0-0.1,0-0.1,0.1-0.2c0,0,0.1-0.1,0.2-0.1h4.4 c0.7,0,1.3,0.2,1.9,0.5c0.5,0.3,1,0.8,1.3,1.4c0.3,0.6,0.5,1.3,0.4,2c0,0.7-0.2,1.4-0.5,2c-0.3,0.6-0.8,1-1.4,1.3c0,0-0.1,0.1,0,0.1 l2.1,5.2c0,0,0,0.1,0,0.1c0,0.1-0.1,0.2-0.2,0.2H187.9z"></path><path class="st1" d="M194.9,32.1C194.8,32.1,194.8,32.1,194.9,32.1L194.9,32.1l2.5,0.1c0,0,0,0,0.1,0c0,0,0,0,0-0.1l-1.2-5.1 c0,0,0-0.1-0.1-0.1c0,0,0,0,0,0.1L194.9,32.1z M198.6,36.2c-0.1,0-0.2-0.1-0.2-0.2l-0.4-1.8c0,0,0-0.1-0.1-0.1c0,0,0,0,0,0h-3.4 c0,0-0.1,0-0.1,0.1c0,0,0,0,0,0l-0.4,1.8c0,0.1-0.1,0.2-0.3,0.2h-2.2c-0.2,0-0.2-0.1-0.2-0.2l3.3-12.2c0-0.1,0.1-0.2,0.3-0.2h2.6 c0.1,0,0.2,0.1,0.3,0.2l3.2,12.2V36c0,0.1-0.1,0.2-0.2,0.2L198.6,36.2z"></path><path class="st1" d="M204.9,33.9C204.9,33.9,205,34,204.9,33.9C205,34,205,34,204.9,33.9l1.6,0.1c0.4,0,0.8-0.2,1.1-0.5 c0.3-0.4,0.4-0.8,0.4-1.3v-4.8c0-0.5-0.1-0.9-0.4-1.3c-0.3-0.3-0.7-0.5-1.1-0.5H205c0,0-0.1,0-0.1,0.1c0,0,0,0,0,0L204.9,33.9z  M202.6,36.2c-0.1,0-0.1,0-0.1-0.1c0,0-0.1-0.1-0.1-0.2V23.7c0-0.1,0-0.1,0.1-0.2c0,0,0.1-0.1,0.1-0.1h3.9c0.7,0,1.5,0.1,2.1,0.5 c0.6,0.3,1.1,0.7,1.4,1.3c0.3,0.6,0.5,1.3,0.5,1.9v5.3c0,0.7-0.2,1.3-0.5,1.9c-0.3,0.6-0.8,1-1.4,1.3c-0.7,0.3-1.4,0.5-2.1,0.5 H202.6z"></path><path class="st1" d="M220,25.5c0,0.1,0,0.1-0.1,0.1c0,0-0.1,0.1-0.1,0.1h-4.8c0,0-0.1,0-0.1,0.1c0,0,0,0,0,0v2.8c0,0,0,0.1,0.1,0.1 c0,0,0,0,0,0h3c0.1,0,0.1,0,0.2,0.1c0,0,0.1,0.1,0.1,0.2v1.8c0,0.1,0,0.1-0.1,0.1c0,0-0.1,0.1-0.2,0.1h-3c0,0-0.1,0-0.1,0.1 c0,0,0,0,0,0v2.9c0,0,0,0.1,0,0.1c0,0,0,0,0,0h4.9c0,0,0.1,0,0.1,0c0,0,0.1,0.1,0.1,0.2V36c0,0.1-0.1,0.2-0.2,0.2h-7.3 c-0.1,0-0.1,0-0.1-0.1c0,0-0.1-0.1-0.1-0.2V23.7c0-0.1,0-0.1,0.1-0.2c0,0,0.1-0.1,0.1-0.1h7.3c0.1,0,0.1,0,0.1,0.1 c0,0,0.1,0.1,0.1,0.2L220,25.5z"></path><rect x="154.8" y="5.6" class="st3" width="2.5" height="20.6"></rect><rect x="154.8" y="26.2" class="st3" width="2.5" height="20.6"></rect><g>	<path class="st4" d="M3.5,34.9L3.5,34.9c0.1,0.2,0.2,0.3,0.3,0.5c0.1,0.2,0.3,0.4,0.4,0.6c0.7,1,1.4,1.9,2.1,2.7  c0.1,0.1,0.1,0.1,0.2,0.2c3.9,4.3,8.8,5.8,12.3,6.8c1.9,0.6,3.4,1,4,1.7l-0.1,0.1c-0.5-0.7-2-1.1-3.9-1.7c-0.2-0.1-0.4-0.1-0.7-0.2  c0,0,0.1,0.1,0.1,0.1c0,0.6-0.7,1.2-1.2,1.3c-0.1,0-1.1,0.2-1-0.2c0.2-0.9,1-1.4,1.9-1.3c-3.4-1.1-7.9-2.7-11.5-6.6  c-0.1-0.1-0.1-0.1-0.2-0.2C5.5,37.9,4.8,37,4.1,36c-0.1-0.2-0.3-0.4-0.4-0.6c-0.1-0.1-0.2-0.3-0.3-0.5c-0.1,0-0.3,0-0.5-0.2  c-0.2-0.1-0.3-0.3-0.4-0.5c-0.2-0.4-0.4-1.2-0.2-1.7c0.2-0.5,1,0.4,1,0.6C3.4,33.5,3.7,34.5,3.5,34.9 M5.4,40.7L5.4,40.7  C6,41.4,7,41.3,7.4,40.4c0.2-0.5-0.9-0.8-1.2-0.7C6,39.7,5,40.3,5.4,40.7z M17.1,44.5L17.1,44.5c0.2,0.4,1.1,1.3,1.3,0.5  c0.2-0.8-0.3-1.7-1.1-1.9c-0.1,0-0.2,0-0.2,0.1C16.9,43.6,16.9,44.1,17.1,44.5z M18.8,45.1L18.8,45.1c0.2,0.3,1.2,1.4,1.3,0.5  c0.2-0.9-0.4-1.7-1.2-1.9c-0.1,0-0.2,0-0.2,0.1C18.5,44.2,18.6,44.7,18.8,45.1z M17.6,47.4L17.6,47.4c-0.1,0.5,1,0.2,1.2,0.2  c0.4-0.2,1.6-1.2,0.7-1.4C18.7,46,17.8,46.5,17.6,47.4z M20.4,44.3L20.4,44.3c-0.4,0.9,0.3,1.9,1.1,2.2c0.4,0.2,0.3-1,0.2-1.2  c-0.2-0.5-0.6-0.9-1.1-1.1C20.5,44.2,20.4,44.2,20.4,44.3z M19.4,48.1L19.4,48.1c0.9,0.3,1.8-0.1,2.1-1c0.1-0.4-1-0.4-1.2-0.3  c-0.5,0.2-0.9,0.6-1,1.1C19.3,47.9,19.3,48.1,19.4,48.1z M13.9,41.9L13.9,41.9c-0.3,0.8-0.1,1.8,0.7,2.3c0.7,0.4,0.5-1.1,0.4-1.4  C14.9,42.5,14.1,41.4,13.9,41.9z M12.7,45.8L12.7,45.8c0.8,0.4,1.7,0,2-0.8c0.3-0.8-0.9-0.6-1.3-0.4C13.2,44.7,12.2,45.6,12.7,45.8  z M15.4,44L15.4,44c0.2,0.4,1.1,1.4,1.2,0.5c0.2-0.8-0.2-1.7-1-2c-0.1,0-0.2,0-0.2,0.1C15.2,43,15.2,43.5,15.4,44z M14.3,46.5  L14.3,46.5c0.8,0.3,1.7-0.2,2-1c0.3-0.8-1-0.5-1.3-0.3C14.8,45.4,13.8,46.4,14.3,46.5z M8.2,39.8L8.2,39.8c0,0.3,0.1,0.5,0.2,0.7  c0.8,1.4,1-0.3,0.9-1c-0.1-0.4-0.6-1.9-0.9-1C8.2,38.9,8.2,39.3,8.2,39.8z M6.7,41.7L6.7,41.7C6.7,41.8,6.7,41.8,6.7,41.7  c0,0.2,0.1,0.3,0.2,0.4c0.7,0.5,1.6,0.2,1.9-0.6C9,41.1,7.9,40.9,7.6,41C7.2,41.1,6.9,41.4,6.7,41.7z M9.5,40.8L9.5,40.8  c0.1,0.2,0.1,0.5,0.3,0.7c0.8,1.3,1-0.4,0.8-1.1c-0.1-0.4-0.7-1.8-1-0.9C9.5,39.9,9.4,40.3,9.5,40.8z M8,42.8L8,42.8  c-0.2,0.4,0.8,0.6,1.1,0.6c0.5,0,1.6-0.9,0.8-1.3C9.2,41.7,8.4,42.1,8,42.8z M11,40.3L11,40.3c-0.4,0.8-0.2,1.9,0.5,2.5  c0.7,0.5,0.6-1.1,0.5-1.4C12,41.1,11.4,39.9,11,40.3C11.1,40.2,11,40.3,11,40.3z M9.6,44.2L9.6,44.2c0.8,0.6,1.8,0.2,2.1-0.7  c0.2-0.5-1.1-0.5-1.3-0.4C10.1,43.1,9.1,43.9,9.6,44.2z M12.4,42.5L12.4,42.5c0.1,0.2,0.2,0.4,0.3,0.6c0.9,1.1,1-0.5,0.8-1.1  c-0.1-0.4-0.8-1.6-1.1-0.7C12.2,41.7,12.2,42.1,12.4,42.5z M11.1,45L11.1,45c0.8,0.4,1.6,0.1,2-0.7c0.3-0.8-0.8-0.7-1.3-0.5  C11.6,43.9,10.7,44.8,11.1,45z M3.8,34.2L3.8,34.2c0,0.4,0,0.9,0.2,1.3c0.4,0.8,0.7-0.7,0.8-1C4.9,34,4.9,33,4.5,32.7  c-0.3-0.3-0.7,1.1-0.7,1.2C3.8,34,3.8,34.1,3.8,34.2z M2,35.8L2,35.8c-0.2,0.3,0.4,0.8,0.6,0.9c0.6,0.3,1.8-0.3,1.2-1  C3.3,35.1,2.5,35.1,2,35.8z M4.8,35.7L4.8,35.7c0,0.3,0,0.6,0.1,0.8c0.5,1.5,0.9,0.2,0.9-0.6c0-0.5,0-1.5-0.4-1.8  c-0.3-0.2-0.6,1.1-0.6,1.3C4.8,35.5,4.8,35.6,4.8,35.7z M3,37.5L3,37.5c-0.2,0.3,0.4,0.8,0.7,0.9c0.6,0.2,1.8-0.4,1.2-1  C4.3,36.7,3.5,36.8,3,37.5z M6.2,35.6L6.2,35.6c-0.5,0.8-0.6,1.9,0,2.7c0.5,0.7,0.7-0.8,0.7-1.1c0-0.6-0.1-1.2-0.5-1.7  C6.4,35.5,6.3,35.6,6.2,35.6z M4.1,39.3L4.1,39.3c0.6,0.8,1.6,0.7,2.1-0.1c0.3-0.5-0.8-0.8-1.1-0.8C4.8,38.3,3.8,38.9,4.1,39.3z   M6.9,38.5C7,38.7,7,39,7.1,39.2c0.7,1.5,0.9-0.3,0.9-1c0-0.3-0.4-2-0.9-1.1C7,37.6,6.9,38,6.9,38.5z"></path>	<g>		<defs>			<polygon id="SVGID_1_" points="44.3,30.2 44.3,24.5 49.7,22.8 48.9,25.9 49.7,28.6    "></polygon>		</defs>		<clipPath id="SVGID_2_">			<use xlink:href="#SVGID_1_" style="overflow:visible;"></use>		</clipPath>		<linearGradient id="SVGID_3_" gradientUnits="userSpaceOnUse" x1="44.3318" y1="26.5296" x2="49.8148" y2="26.5296">			<stop offset="0" style="stop-color:#CA922B"></stop>			<stop offset="0.48" style="stop-color:#F2B33F"></stop>			<stop offset="1" style="stop-color:#CA922B"></stop>		</linearGradient>		<rect x="44.3" y="22.8" class="st5" width="5.4" height="7.4"></rect>	</g>	<polygon class="st6" points="47.8,25.5 44.3,24.5 44.3,30.2 47.8,31.3  "></polygon>	<g>		<defs>			<polygon id="SVGID_4_" points="9.3,30.2 9.3,24.5 3.9,22.8 4.7,25.9 3.9,28.6    "></polygon>		</defs>		<clipPath id="SVGID_5_">			<use xlink:href="#SVGID_4_" style="overflow:visible;"></use>		</clipPath>		<linearGradient id="SVGID_6_" gradientUnits="userSpaceOnUse" x1="3.9759" y1="26.5296" x2="9.4794" y2="26.5296">			<stop offset="0" style="stop-color:#CA922B"></stop>			<stop offset="0.48" style="stop-color:#F2B33F"></stop>			<stop offset="1" style="stop-color:#CA922B"></stop>		</linearGradient>		<rect x="3.9" y="22.8" class="st7" width="5.4" height="7.4"></rect>	</g>	<polygon class="st6" points="5.8,25.5 9.3,24.5 9.3,30.2 5.8,31.3  "></polygon>	<path class="st8" d="M26.9,46.1C19.8,40.4,8.1,42.3,6,30.4c5.5-7.5,5.9-14.5,1.1-21l4.7-4.7c5.4,1.6,9.7-7.2,15.1-3  c5.4-4.2,9.6,4.6,15,3l4.7,4.7c-4.9,6.5-4.5,13.5,1.1,21C45.5,42.3,34,40.4,26.9,46.1"></path>	<path class="st9" d="M26.9,45c0.6-0.4,1.2-0.8,1.9-1.2c7-4,15.9-3.5,17.9-13.2c-2.7-3.8-4.7-8.2-4.3-13.1c0.3-3,1.4-5.7,3.1-8.1  l-3.8-3.8c-0.6,0.1-1.2,0.1-1.8,0.1c-1.8-0.2-3.4-1.2-4.9-2.2c-1.3-0.8-3-2-4.6-2.1c-1.1-0.1-2,0.3-2.9,0.9l-0.5,0.4l-0.5-0.4  c-0.9-0.7-1.8-1-2.9-0.9c-1.6,0.1-3.3,1.3-4.6,2.1c-2.1,1.3-4.3,2.6-6.8,2.1L8.2,9.5c1.7,2.4,2.8,5.1,3.1,8.1  c0.4,4.8-1.6,9.3-4.3,13.1c0.6,2.9,1.8,5.2,4.2,7c2.6,2,6.1,3,9.1,4.1C22.6,42.6,24.9,43.5,26.9,45"></path>	<path class="st8" d="M29.1,20.4L29.1,20.4l5.1,3.6l1.3-2.1l-5.7-2.1L29.1,20.4z M24.7,20.5L24.7,20.5l-5.1,3.6L18.4,22l5.7-2.1  L24.7,20.5z M24,19.5L24,19.5L17.7,21l-1.1-2.6l7.7,0.5L24,19.5z M24,18.3L24,18.3l-8-1.6l-0.6-3.8l8.8,4.6L24,18.3z M24.6,17.4  L24.6,17.4l-9.7-7V8.6h3.7l6.5,8.2L24.6,17.4z M26.6,16.7L26.6,16.7l-1.2-8.1h2.9l-1.2,8L26.6,16.7z M25.6,16.7L25.6,16.7l-5-8.1  h3.5l2.1,7.7L25.6,16.7z M28.2,16.7L28.2,16.7l5-8.1h-3.5l-2.1,7.7L28.2,16.7z M29.2,17.4L29.2,17.4l9.7-7V8.6h-3.7l-6.5,8.2  L29.2,17.4z M29.8,18.3L29.8,18.3l8-1.6l0.6-3.8l-8.8,4.6L29.8,18.3z M29.8,19.4l6.3,1.5l1.1-2.6l-7.7,0.5L29.8,19.4z"></path>	<path class="st8" d="M26.9,15.8c2.1,0,3.8,1.7,3.8,3.9c0,2.1-1.7,3.9-3.8,3.9c-2.1,0-3.8-1.7-3.8-3.9  C23.1,17.5,24.8,15.8,26.9,15.8"></path>	<path class="st4" d="M23.7,38L23.7,38c0.3,0.4,0.6,0.8,0.9,1.2c0.3,0.4,0.6,0.8,0.9,1.2v-0.8v-0.8c0-0.2,0-0.4-0.1-0.4  c-0.1-0.1-0.2-0.2-0.4-0.2v-0.1c0.4,0,0.8,0.1,1.1,0.1v0.1c-0.1,0-0.2,0-0.3,0.1c0,0-0.1,0.1-0.1,0.1c0,0.1,0,0.2,0,0.3v1.5v1.5  c0,0-0.1,0-0.1,0c-0.4-0.5-0.8-1-1.2-1.6c-0.4-0.5-0.8-1.1-1.2-1.6v1.1v1.1c0,0.2,0,0.3,0.1,0.4c0.1,0.1,0.2,0.1,0.3,0.2  c0,0,0.1,0,0.1,0v0.1c-0.4-0.1-0.8-0.1-1.2-0.2v-0.1c0.2,0,0.3,0,0.4,0c0.1-0.1,0.1-0.2,0.1-0.4v-1.2v-1.2c0,0,0-0.1-0.1-0.1  c-0.1-0.1-0.1-0.2-0.2-0.2c-0.1,0-0.1-0.1-0.2-0.1v-0.1C22.9,37.9,23.3,37.9,23.7,38 M28.1,41.7L28.1,41.7L28.1,41.7  c-0.6,0.1-1.2,0.1-1.8,0.1v-0.1c0,0,0.1,0,0.1,0c0.1,0,0.2,0,0.2,0c0,0,0.1-0.1,0.1-0.1c0,0,0-0.1,0-0.3V40v-1.2c0-0.2,0-0.3,0-0.3  c0,0-0.1-0.1-0.1-0.1c-0.1,0-0.1-0.1-0.2-0.1c0,0-0.1,0-0.1,0v-0.1c0.6,0,1.2,0,1.8,0v0.1c0,0-0.1,0-0.1,0c-0.1,0-0.2,0-0.2,0.1  c0,0-0.1,0.1-0.1,0.1c0,0,0,0.2,0,0.3V40v1.2c0,0.2,0,0.3,0,0.3c0,0,0.1,0.1,0.1,0.1c0.1,0,0.1,0,0.2,0C28,41.7,28,41.7,28.1,41.7z   M28.3,38.2c0.6,0,1.2-0.1,1.8-0.1v0.1c0,0-0.1,0-0.1,0c-0.1,0-0.2,0-0.3,0.1c-0.1,0-0.1,0.1-0.1,0.1c0,0.1,0,0.2,0,0.4v0.9v0.9  c0,0.3,0,0.5,0.1,0.6c0,0.1,0.1,0.2,0.2,0.2c0.1,0.1,0.2,0.1,0.4,0.1c0.2,0,0.3-0.1,0.5-0.2c0.1-0.1,0.2-0.2,0.3-0.4  c0.1-0.2,0.1-0.4,0.1-0.8v-0.7v-0.7c0-0.2,0-0.3,0-0.3c0-0.1-0.1-0.1-0.1-0.1c-0.1,0-0.2,0-0.3,0V38c0.4-0.1,0.8-0.1,1.2-0.2v0.1  c0,0,0,0-0.1,0c-0.1,0-0.2,0.1-0.2,0.1c-0.1,0.1-0.1,0.1-0.1,0.2c0,0.1,0,0.2,0,0.3v0.7v0.7c0,0.4,0,0.7-0.1,0.9  c-0.1,0.2-0.2,0.4-0.4,0.6c-0.2,0.2-0.5,0.3-0.8,0.4c-0.3,0-0.5,0-0.7,0c-0.2-0.1-0.4-0.2-0.5-0.4c-0.1-0.2-0.1-0.4-0.1-0.7v-0.9  v-0.9c0-0.2,0-0.3,0-0.4c0,0-0.1-0.1-0.1-0.1C28.6,38.3,28.5,38.3,28.3,38.2L28.3,38.2z"></path>	<path class="st8" d="M30,46.5L30,46.5c-0.1-0.5,0.5-0.7,0.8-0.3L32,49c0.2,0.5-0.3,0.6-0.6,0.3c-0.2-0.2-0.3-0.3-0.7-0.2L30,46.5z   M28,47L28,47c-0.1-0.5,0.6-0.8,0.8-0.4l1.3,3.3c0.2,0.5-0.5,0.8-0.8,0.5c-0.3-0.2-0.4-0.3-0.7-0.3L28,47z M26.7,51.6L26.7,51.6  c-0.1-0.3-0.3-0.4-0.6-0.5c-0.1-0.1-0.2-0.2-0.2-0.4c0.2-1.3,0.4-2.6,0.7-3.9h0.5c0.2,1.3,0.5,2.6,0.7,3.9c0,0.2,0,0.4-0.2,0.4  c-0.3,0.1-0.5,0.3-0.6,0.5C27,51.9,26.8,51.9,26.7,51.6z M25.8,47L25.8,47c0.1-0.5-0.6-0.8-0.8-0.4L23.7,50  c-0.2,0.5,0.5,0.8,0.8,0.5c0.3-0.2,0.4-0.3,0.7-0.3L25.8,47z M23.8,46.5c0.1-0.5-0.5-0.7-0.8-0.3L21.8,49c-0.2,0.5,0.3,0.6,0.6,0.3  c0.2-0.2,0.3-0.3,0.7-0.2L23.8,46.5z"></path>	<path class="st8" d="M26.7,25.9c-0.2,0-0.5-0.3-0.6-0.5c-0.4-0.4-0.8-0.4-1.2,0c-0.3,0.3-0.5,0.3-1,0c-0.3-0.2-0.8-0.3-1.1-0.1  L22,25.8l-0.9-1.3c0.4-0.4,1-1.1,1.6-0.6c0.8,0.7,1.3,0.9,2.1,0.2c0.3-0.3,0.8-0.4,1,0c0.3,0.3,0.6,0.5,0.8,0.5  c0.2,0,0.5-0.2,0.8-0.5c0.3-0.4,0.7-0.3,1,0c0.8,0.8,1.4,0.6,2.1-0.1c0.5-0.5,1.2,0.3,1.6,0.6l-0.9,1.3l-0.7-0.5  c-0.3-0.2-0.8-0.1-1.1,0.1c-0.4,0.3-0.6,0.3-1,0c-0.4-0.4-0.8-0.4-1.2,0C27.1,25.5,26.9,25.9,26.7,25.9"></path>	<path class="st8" d="M26.7,27.2c-0.4,0-0.6-0.2-0.7-0.4c-0.2-0.5-0.8-0.3-1.1,0c-1,1-1.7,0.3-2.4-0.5c0.3,0.5,0.5,1.2,1.3,1.8  c0.4,0.3,0.7,0.1,1.1-0.2c0.4-0.4,0.7-0.3,1.1,0.1c0.2,0.2,0.4,0.4,0.6,0.4c0.2,0,0.5-0.1,0.7-0.4c0.4-0.4,0.7-0.5,1.1-0.1  c0.3,0.3,0.7,0.5,1.1,0.2c0.8-0.6,1-1.3,1.3-1.8c-0.7,0.8-1.4,1.5-2.4,0.5c-0.3-0.3-0.9-0.5-1.1,0C27.2,27,27,27.2,26.7,27.2"></path>	<g>		<defs>			<path id="SVGID_7_" d="M20.8,34.2v-5.8c-2.5-0.1-5-0.4-7.5-0.9c-2.5-0.5-5-1.2-7.5-2.1v5.8c2.5,0.8,5,1.6,7.5,2.1    C15.8,33.9,18.3,34.1,20.8,34.2"></path>		</defs>		<clipPath id="SVGID_8_">			<use xlink:href="#SVGID_7_" style="overflow:visible;"></use>		</clipPath>		<linearGradient id="SVGID_9_" gradientUnits="userSpaceOnUse" x1="5.8751" y1="29.9031" x2="21.2623" y2="29.9031">			<stop offset="0" style="stop-color:#CA922B"></stop>			<stop offset="0.48" style="stop-color:#F2B33F"></stop>			<stop offset="1" style="stop-color:#CA922B"></stop>		</linearGradient>		<rect x="5.8" y="25.6" class="st10" width="15" height="8.7"></rect>	</g>	<polygon class="st6" points="18.2,29.5 20.8,28.5 20.8,34.2 18.2,35.3  "></polygon>	<g>		<defs>			<path id="SVGID_10_" d="M47.8,31.3v-5.8c-2.5,1-5,1.8-7.5,2.3c-2.5,0.5-5,0.6-7.5,0.7v5.8c2.5,0,5-0.2,7.5-0.7    C42.8,33.1,45.3,32.3,47.8,31.3"></path>		</defs>		<clipPath id="SVGID_11_">			<use xlink:href="#SVGID_10_" style="overflow:visible;"></use>		</clipPath>		<linearGradient id="SVGID_12_" gradientUnits="userSpaceOnUse" x1="32.9124" y1="29.9028" x2="48.2914" y2="29.9028">			<stop offset="0" style="stop-color:#CA922B"></stop>			<stop offset="0.48" style="stop-color:#F2B33F"></stop>			<stop offset="1" style="stop-color:#CA922B"></stop>		</linearGradient>		<rect x="32.8" y="25.6" class="st11" width="15" height="8.7"></rect>	</g>	<polygon class="st6" points="35.4,29.5 32.8,28.5 32.8,34.2 35.4,35.3  "></polygon>	<g>		<defs>			<path id="SVGID_13_" d="M18.2,29.5v5.8c2.9,0.8,5.7,1.3,8.6,1.3c2.9,0,5.7-0.5,8.6-1.3v-5.8c-2.9,0.7-5.7,1.2-8.6,1.2    C23.9,30.8,21.1,30.2,18.2,29.5"></path>		</defs>		<clipPath id="SVGID_14_">			<use xlink:href="#SVGID_13_" style="overflow:visible;"></use>		</clipPath>		<linearGradient id="SVGID_15_" gradientUnits="userSpaceOnUse" x1="18.3298" y1="33.0809" x2="35.9326" y2="33.0809">			<stop offset="0" style="stop-color:#CA922B"></stop>			<stop offset="0.48" style="stop-color:#F2B33F"></stop>			<stop offset="1" style="stop-color:#CA922B"></stop>		</linearGradient>		<rect x="18.2" y="29.5" class="st12" width="17.2" height="7.1"></rect>	</g>	<path class="st1" d="M21,34.3L21,34.3v-1v-1c0.1,0,0.1,0,0.2,0c0.1,0,0.1,0,0.2,0v1v1c-0.1,0-0.1,0-0.2,0  C21.1,34.3,21.1,34.3,21,34.3 M22.1,34.4L22.1,34.4c-0.1,0-0.1,0-0.2,0c-0.1,0-0.1,0-0.2,0v-1v-1c0.1,0,0.2,0,0.3,0  c0.1,0,0.2,0,0.3,0c0.1,0.3,0.1,0.6,0.2,0.9c0.1,0.3,0.1,0.6,0.2,0.9v-0.9v-0.9c0.1,0,0.1,0,0.2,0c0.1,0,0.1,0,0.2,0v1v1  c-0.1,0-0.2,0-0.3,0c-0.1,0-0.2,0-0.3,0c-0.1-0.3-0.1-0.6-0.2-0.9c-0.1-0.3-0.1-0.6-0.2-0.9v0.9V34.4z M23.8,34.5L23.8,34.5v-0.9  v-0.9c-0.1,0-0.3,0-0.4,0v-0.2v-0.2c0.4,0,0.9,0,1.3,0.1v0.2v0.2c-0.1,0-0.3,0-0.4,0v0.9v0.9c-0.1,0-0.1,0-0.2,0  C23.9,34.5,23.8,34.5,23.8,34.5z M24.9,34.5L24.9,34.5v-1v-1c0.3,0,0.7,0,1,0v0.2v0.2c-0.2,0-0.4,0-0.6,0v0.3v0.3  c0.2,0,0.4,0,0.6,0v0.2v0.2c-0.2,0-0.4,0-0.6,0v0.3v0.3c0.2,0,0.4,0,0.6,0v0.2v0.2C25.6,34.5,25.2,34.5,24.9,34.5z M26.8,34.6  L26.8,34.6c-0.2,0-0.4-0.1-0.5-0.2c0-0.1-0.1-0.1-0.1-0.3c0-0.1,0-0.2,0-0.4v-0.5c0-0.1,0-0.3,0-0.4c0-0.1,0.1-0.2,0.1-0.2  c0.1-0.1,0.3-0.2,0.5-0.2c0.2,0,0.4,0,0.5,0.1c0.1,0.1,0.1,0.2,0.1,0.4c0,0,0,0,0,0.1c-0.1,0-0.3,0-0.4,0c0,0,0,0,0-0.1  c0-0.1,0-0.2,0-0.2c0,0-0.1-0.1-0.2-0.1c-0.1,0-0.1,0-0.2,0.1c0,0.1-0.1,0.2-0.1,0.4v0.5c0,0.2,0,0.4,0,0.4c0,0.1,0.1,0.1,0.2,0.1  c0,0,0.1,0,0.2,0v-0.5c-0.1,0-0.1,0-0.2,0v-0.3c0.2,0,0.4,0,0.6,0V34v0.5C27.3,34.5,27,34.6,26.8,34.6L26.8,34.6z M27.8,34.5  L27.8,34.5v-1v-1c0.1,0,0.1,0,0.2,0c0.1,0,0.3,0,0.4,0c0.2,0,0.4,0,0.5,0.1C29,32.7,29,32.8,29,33c0,0.2,0,0.4-0.1,0.4  c0,0-0.1,0.1-0.2,0.1c0,0,0,0,0,0c0.1,0,0.2,0,0.3,0.1C29,33.7,29,33.8,29,34c0,0.1,0,0.2,0,0.2c0,0.1,0,0.2,0,0.2c0,0,0,0.1,0,0.1  c-0.1,0-0.1,0-0.2,0c-0.1,0-0.1,0-0.2,0c0,0,0-0.1,0-0.1c0,0,0-0.1,0-0.2c0-0.1,0-0.2,0-0.2c0-0.1,0-0.2-0.1-0.2  c0,0-0.1-0.1-0.2-0.1c0,0-0.1,0-0.1,0v0.4v0.4c-0.1,0-0.1,0-0.2,0C28,34.5,27.9,34.5,27.8,34.5z M28.2,33.4L28.2,33.4  c0,0,0.1,0,0.1,0c0.1,0,0.2,0,0.2-0.1c0,0,0.1-0.1,0.1-0.2c0-0.1,0-0.2-0.1-0.2c0,0-0.1-0.1-0.2-0.1c0,0-0.1,0-0.1,0v0.3V33.4z   M29.3,34.5L29.3,34.5v-1v-1c0.1,0,0.1,0,0.2,0c0.1,0,0.1,0,0.2,0v1v1c-0.1,0-0.1,0-0.2,0C29.5,34.5,29.4,34.5,29.3,34.5z   M30.4,34.4L30.4,34.4v-0.9v-0.9c-0.1,0-0.3,0-0.4,0v-0.2v-0.2c0.4,0,0.8,0,1.3-0.1v0.2v0.2c-0.1,0-0.3,0-0.4,0v0.9v0.9  c-0.1,0-0.1,0-0.2,0C30.6,34.4,30.5,34.4,30.4,34.4z M31.9,33.6c-0.1-0.2-0.2-0.4-0.2-0.6c-0.1-0.2-0.2-0.4-0.2-0.6  c0.1,0,0.1,0,0.2,0c0.1,0,0.1,0,0.2,0c0,0.1,0.1,0.3,0.1,0.4c0,0.1,0.1,0.3,0.1,0.4c0,0,0,0,0,0c0-0.1,0.1-0.3,0.1-0.4  c0-0.1,0.1-0.3,0.1-0.4c0.1,0,0.1,0,0.2,0c0.1,0,0.1,0,0.2,0c-0.1,0.2-0.2,0.4-0.2,0.7c-0.1,0.2-0.2,0.4-0.2,0.7v0.4v0.4  c-0.1,0-0.1,0-0.2,0c-0.1,0-0.1,0-0.2,0V34V33.6z"></path>	<path class="st1" d="M7.8,29.9L7.8,29.9C7.7,29.9,7.7,29.9,7.8,29.9c-0.1,0.3-0.1,0.5-0.2,0.5c-0.1,0.1-0.3,0.1-0.5,0  c-0.2-0.1-0.4-0.2-0.5-0.3c-0.1-0.1-0.1-0.4,0-0.6c0-0.2,0.1-0.4,0.1-0.6c0.1-0.3,0.1-0.5,0.3-0.5c0.1-0.1,0.3-0.1,0.5,0  c0.2,0.1,0.4,0.2,0.4,0.3c0.1,0.1,0.1,0.3,0.1,0.5c0,0,0,0,0,0c0,0,0,0,0,0.1c-0.1,0-0.3-0.1-0.4-0.1c0,0,0,0,0-0.1  c0-0.1,0-0.2,0-0.3c0-0.1-0.1-0.1-0.1-0.1c-0.1,0-0.1,0-0.2,0c0,0.1-0.1,0.1-0.1,0.3c0,0.2-0.1,0.4-0.1,0.6c0,0.2,0,0.3,0,0.4  c0,0.1,0.1,0.1,0.2,0.2c0.1,0,0.1,0,0.2,0c0-0.1,0.1-0.1,0.1-0.3c0,0,0,0,0-0.1C7.5,29.8,7.6,29.8,7.8,29.9 M8.6,30.9L8.6,30.9  c-0.2-0.1-0.4-0.2-0.5-0.3C8,30.4,8,30.2,8.1,30c0-0.3,0.1-0.6,0.2-0.9c0-0.2,0.1-0.3,0.2-0.4c0.1-0.1,0.3-0.1,0.5,0  c0.2,0.1,0.4,0.1,0.5,0.3c0.1,0.1,0.1,0.3,0.1,0.5c0,0.3-0.1,0.6-0.1,0.9c0,0.3-0.1,0.4-0.2,0.5C9,30.9,8.8,30.9,8.6,30.9z   M8.6,30.6L8.6,30.6c0.1,0,0.1,0,0.2,0c0,0,0.1-0.1,0.1-0.3c0-0.3,0.1-0.6,0.1-0.9c0-0.1,0-0.2,0-0.2C9,29.1,9,29,8.9,29  c-0.1,0-0.1,0-0.2,0c0,0-0.1,0.1-0.1,0.2c-0.1,0.3-0.1,0.6-0.1,0.9c0,0.1,0,0.2,0,0.3C8.5,30.5,8.6,30.5,8.6,30.6z M11,30.8  L11,30.8c0,0.2-0.1,0.4-0.2,0.4c-0.1,0.1-0.3,0.1-0.5,0c-0.2,0-0.4-0.1-0.5-0.3c-0.1-0.1-0.1-0.3-0.1-0.5c0-0.3,0.1-0.5,0.1-0.8  c0-0.3,0.1-0.5,0.1-0.8c0.1,0,0.1,0,0.2,0c0.1,0,0.1,0,0.2,0c0,0.3-0.1,0.5-0.1,0.8c0,0.3-0.1,0.5-0.1,0.8c0,0.1,0,0.2,0,0.2  c0,0,0.1,0.1,0.2,0.1c0.1,0,0.1,0,0.2,0c0,0,0.1-0.1,0.1-0.2c0-0.3,0.1-0.5,0.1-0.8c0-0.3,0.1-0.5,0.1-0.8c0.1,0,0.1,0,0.2,0  c0.1,0,0.1,0,0.2,0c0,0.3-0.1,0.5-0.1,0.8C11.1,30.3,11.1,30.5,11,30.8z M11.3,31.5L11.3,31.5c0.1-0.4,0.1-0.7,0.2-1.1  c0.1-0.4,0.1-0.7,0.2-1.1c0.1,0,0.1,0,0.2,0c0.1,0,0.3,0.1,0.4,0.1c0.2,0,0.4,0.1,0.5,0.2c0.1,0.1,0.1,0.3,0.1,0.5  c0,0.2-0.1,0.4-0.2,0.4c-0.1,0-0.1,0-0.2,0c0,0,0,0,0,0c0.1,0,0.2,0.1,0.3,0.2c0,0.1,0.1,0.2,0,0.3c0,0.1,0,0.2,0,0.3  c0,0.1,0,0.2,0,0.2c0,0,0,0.1,0,0.1c-0.1,0-0.1,0-0.2,0c-0.1,0-0.1,0-0.2,0c0,0,0-0.1,0-0.1c0,0,0-0.1,0-0.2c0-0.1,0-0.2,0-0.3  c0-0.1,0-0.2,0-0.2c0-0.1-0.1-0.1-0.2-0.1c0,0-0.1,0-0.1,0c0,0.3-0.1,0.6-0.1,0.9c-0.1,0-0.1,0-0.2,0  C11.5,31.5,11.4,31.5,11.3,31.5z M12,30.4L12,30.4c0,0,0.1,0,0.1,0c0.1,0,0.2,0,0.2,0c0,0,0.1-0.1,0.1-0.2c0-0.1,0-0.2,0-0.2  c0,0-0.1-0.1-0.2-0.1c0,0-0.1,0-0.1,0C12,30,12,30.2,12,30.4z M12.9,31.8L12.9,31.8c0.1-0.3,0.3-0.7,0.4-1c0.1-0.3,0.3-0.7,0.4-1  c0.1,0,0.2,0,0.3,0c0.1,0,0.2,0,0.3,0c0,0.4,0.1,0.7,0.1,1.1c0,0.4,0.1,0.7,0.1,1.1c-0.1,0-0.1,0-0.2,0c-0.1,0-0.1,0-0.2,0  c0-0.2,0-0.3,0-0.5c-0.2,0-0.3-0.1-0.5-0.1c-0.1,0.1-0.1,0.3-0.2,0.4c-0.1,0-0.1,0-0.2,0C13,31.8,12.9,31.8,12.9,31.8z M13.9,30.2  L13.9,30.2c-0.1,0.3-0.2,0.6-0.3,0.9c0.1,0,0.2,0,0.3,0.1c0-0.2,0-0.3,0-0.5C13.9,30.5,13.9,30.3,13.9,30.2L13.9,30.2z M15.3,32.2  L15.3,32.2c-0.2,0-0.4-0.1-0.5-0.3c-0.1-0.1-0.1-0.4-0.1-0.7c0-0.2,0-0.3,0.1-0.5c0-0.3,0.1-0.5,0.3-0.6c0.1-0.1,0.3-0.2,0.6-0.1  c0.2,0,0.4,0.1,0.5,0.2c0.1,0.1,0.1,0.3,0.1,0.5c0,0,0,0,0,0.1c-0.1,0-0.3,0-0.4-0.1c0,0,0,0,0-0.1c0-0.1,0-0.2,0-0.2  c0-0.1-0.1-0.1-0.2-0.1c-0.1,0-0.2,0-0.2,0.1c0,0.1-0.1,0.2-0.1,0.4c0,0.2,0,0.3-0.1,0.5c0,0.2,0,0.4,0,0.5c0,0.1,0.1,0.1,0.2,0.1  c0,0,0.1,0,0.2,0c0-0.2,0-0.3,0.1-0.5c-0.1,0-0.1,0-0.2,0c0-0.1,0-0.2,0-0.3c0.2,0,0.4,0.1,0.6,0.1c0,0.2,0,0.4-0.1,0.5  c0,0.2,0,0.4-0.1,0.5C15.7,32.2,15.5,32.2,15.3,32.2L15.3,32.2z M16.4,32.3c0-0.4,0.1-0.7,0.1-1.1c0-0.4,0.1-0.7,0.1-1.1  c0.4,0,0.7,0.1,1.1,0.1c0,0.1,0,0.1,0,0.2c0,0.1,0,0.1,0,0.2c-0.2,0-0.4,0-0.6-0.1c0,0.2,0,0.4-0.1,0.6c0.2,0,0.4,0,0.6,0.1  c0,0.1,0,0.1,0,0.2c0,0.1,0,0.1,0,0.2c-0.2,0-0.4,0-0.6-0.1c0,0.2-0.1,0.4-0.1,0.6c0.2,0,0.4,0,0.6,0.1c0,0.1,0,0.1,0,0.2  c0,0.1,0,0.1,0,0.2C17.1,32.4,16.7,32.3,16.4,32.3z"></path>	<path class="st1" d="M36.4,32.3L36.4,32.3c0-0.4-0.1-0.7-0.1-1.1c0-0.4,0-0.7-0.1-1.1c0.1,0,0.1,0,0.2,0c0.1,0,0.1,0,0.2,0  c0,0.1,0,0.3,0,0.4c0,0.1,0,0.3,0,0.4c0.1,0,0.3,0,0.4,0c0-0.1,0-0.3,0-0.4c0-0.1,0-0.3,0-0.4c0.1,0,0.1,0,0.2,0c0.1,0,0.1,0,0.2,0  c0,0.4,0.1,0.7,0.1,1.1c0,0.4,0.1,0.7,0.1,1.1c-0.1,0-0.2,0-0.2,0c-0.1,0-0.2,0-0.2,0c0-0.2,0-0.3,0-0.5c0-0.2,0-0.3,0-0.5  c-0.1,0-0.3,0-0.4,0c0,0.2,0,0.3,0,0.5c0,0.2,0,0.3,0,0.5c-0.1,0-0.2,0-0.2,0C36.6,32.3,36.5,32.3,36.4,32.3 M38.9,32L38.9,32  c-0.3,0-0.4,0-0.6-0.1c-0.1-0.1-0.2-0.3-0.2-0.5c0-0.1,0-0.3,0-0.4c0-0.1,0-0.3,0-0.4c0-0.2,0-0.4,0.1-0.5c0.1-0.1,0.3-0.2,0.5-0.2  c0.2,0,0.4,0,0.5,0.1c0.1,0.1,0.2,0.2,0.2,0.4c0,0.1,0,0.3,0.1,0.4c0,0.1,0,0.3,0.1,0.4c0,0.3,0,0.5-0.1,0.6  C39.3,31.9,39.1,32,38.9,32z M38.8,31.7L38.8,31.7c0.1,0,0.1-0.1,0.2-0.1c0-0.1,0-0.2,0-0.3c0-0.1,0-0.3-0.1-0.4  c0-0.1,0-0.3-0.1-0.4c0-0.1,0-0.2-0.1-0.2c0,0-0.1-0.1-0.2,0c-0.1,0-0.1,0-0.2,0.1c0,0.1,0,0.1,0,0.2c0,0.1,0,0.3,0,0.4  c0,0.1,0,0.3,0.1,0.4c0,0.1,0,0.2,0.1,0.3C38.7,31.7,38.8,31.7,38.8,31.7z M40.4,31.7L40.4,31.7c-0.1,0-0.1,0-0.2,0  c-0.1,0-0.1,0-0.2,0c-0.1-0.3-0.1-0.7-0.2-1c0-0.3-0.1-0.7-0.1-1c0.1,0,0.2,0,0.3-0.1c0.1,0,0.2,0,0.3-0.1c0.1,0.3,0.2,0.6,0.3,0.8  c0.1,0.3,0.2,0.6,0.3,0.8c0-0.3-0.1-0.6-0.1-0.9c0-0.3-0.1-0.6-0.1-0.9c0.1,0,0.1,0,0.2,0c0.1,0,0.1,0,0.2,0c0.1,0.3,0.1,0.7,0.2,1  c0.1,0.3,0.1,0.7,0.2,1c-0.1,0-0.2,0-0.3,0.1c-0.1,0-0.2,0-0.3,0.1c-0.1-0.3-0.2-0.6-0.3-0.8c-0.1-0.3-0.2-0.6-0.3-0.9  c0,0.3,0.1,0.6,0.1,0.9C40.3,31.1,40.3,31.4,40.4,31.7z M42.5,31.3L42.5,31.3c-0.3,0.1-0.4,0-0.6,0c-0.1-0.1-0.2-0.3-0.3-0.5  c0-0.1-0.1-0.3-0.1-0.4c0-0.1,0-0.3-0.1-0.4c0-0.2,0-0.4,0.1-0.5c0.1-0.1,0.3-0.2,0.5-0.3c0.2-0.1,0.4,0,0.5,0  c0.1,0.1,0.2,0.2,0.2,0.4c0,0.1,0.1,0.3,0.1,0.4c0,0.1,0.1,0.3,0.1,0.4c0.1,0.3,0,0.5,0,0.6C42.9,31.2,42.7,31.2,42.5,31.3z   M42.4,31L42.4,31c0.1,0,0.1-0.1,0.2-0.1c0-0.1,0-0.2,0-0.3c0-0.1-0.1-0.3-0.1-0.4c0-0.1-0.1-0.3-0.1-0.4c0-0.1-0.1-0.2-0.1-0.2  c0,0-0.1-0.1-0.2,0c-0.1,0-0.1,0.1-0.2,0.1c0,0.1,0,0.1,0,0.2c0,0.1,0.1,0.3,0.1,0.4c0,0.1,0.1,0.3,0.1,0.4c0,0.1,0.1,0.2,0.1,0.3  C42.3,31,42.4,31,42.4,31z M44.8,30.1L44.8,30.1c0,0.2,0,0.4-0.1,0.5c-0.1,0.1-0.2,0.2-0.5,0.3c-0.2,0.1-0.4,0.1-0.5,0  c-0.1-0.1-0.2-0.2-0.3-0.4c-0.1-0.2-0.1-0.5-0.2-0.7c-0.1-0.2-0.1-0.5-0.2-0.7c0.1,0,0.1,0,0.2-0.1c0.1,0,0.1,0,0.2-0.1  c0.1,0.3,0.1,0.5,0.2,0.8c0.1,0.3,0.1,0.5,0.2,0.8c0,0.1,0.1,0.2,0.1,0.2c0,0,0.1,0,0.2,0c0.1,0,0.1-0.1,0.2-0.1c0,0,0-0.1,0-0.2  c-0.1-0.3-0.1-0.5-0.2-0.8c-0.1-0.3-0.1-0.5-0.2-0.8c0.1,0,0.1,0,0.2-0.1c0.1,0,0.1,0,0.2-0.1c0.1,0.2,0.1,0.5,0.2,0.7  C44.6,29.6,44.7,29.8,44.8,30.1z M45.3,30.5L45.3,30.5c-0.1-0.3-0.2-0.7-0.3-1c-0.1-0.3-0.2-0.7-0.2-1c0.1,0,0.1,0,0.2-0.1  c0.1,0,0.3-0.1,0.4-0.1c0.2-0.1,0.4-0.1,0.5,0c0.1,0,0.2,0.2,0.2,0.4c0.1,0.2,0.1,0.4,0,0.5c0,0.1-0.1,0.1-0.2,0.2c0,0,0,0,0,0  c0.1,0,0.2,0,0.3,0c0.1,0.1,0.1,0.2,0.2,0.3c0,0.1,0,0.2,0.1,0.3c0,0.1,0,0.2,0.1,0.2c0,0,0,0.1,0,0.1c-0.1,0-0.1,0.1-0.2,0.1  c-0.1,0-0.1,0.1-0.2,0.1c0,0,0-0.1,0-0.1c0,0,0-0.1-0.1-0.2c0-0.1,0-0.2-0.1-0.2c0-0.1-0.1-0.2-0.1-0.2c-0.1,0-0.1,0-0.2,0  c0,0-0.1,0-0.1,0c0,0.1,0.1,0.3,0.1,0.4c0,0.1,0.1,0.3,0.1,0.4c-0.1,0-0.1,0-0.2,0.1C45.4,30.5,45.4,30.5,45.3,30.5z M45.4,29.2  c0,0,0.1,0,0.1,0c0.1,0,0.2-0.1,0.2-0.1c0-0.1,0-0.1,0-0.3c0-0.1-0.1-0.2-0.1-0.2c-0.1,0-0.1,0-0.2,0c0,0-0.1,0-0.1,0  C45.3,28.8,45.4,29,45.4,29.2z"></path>	<path class="st4" d="M50.1,34.9L50.1,34.9c-0.1,0.2-0.2,0.3-0.3,0.5c-0.1,0.2-0.3,0.4-0.4,0.6c-0.7,1-1.4,1.9-2.1,2.7  c-0.1,0.1-0.1,0.1-0.2,0.2c-3.9,4.3-8.8,5.8-12.3,6.8c-1.9,0.6-3.4,1-4,1.7l0.1,0.1c0.5-0.7,2-1.1,3.9-1.7c0.2-0.1,0.4-0.1,0.7-0.2  c0,0-0.1,0.1-0.1,0.1c0,0.6,0.7,1.2,1.2,1.3c0.1,0,1.1,0.2,1-0.2c-0.2-0.9-1-1.4-1.9-1.3c3.4-1.1,7.9-2.7,11.5-6.6  c0.1-0.1,0.1-0.1,0.2-0.2c0.7-0.8,1.4-1.7,2.1-2.7c0.1-0.2,0.3-0.4,0.4-0.6c0.1-0.1,0.2-0.3,0.3-0.5c0.1,0,0.3,0,0.5-0.2  c0.2-0.1,0.3-0.3,0.4-0.5c0.2-0.4,0.4-1.2,0.2-1.7c-0.2-0.5-1,0.4-1,0.6C50.2,33.5,49.9,34.5,50.1,34.9 M48.2,40.7L48.2,40.7  c-0.7,0.7-1.6,0.6-2.1-0.3c-0.2-0.5,0.9-0.8,1.2-0.7C47.6,39.7,48.6,40.3,48.2,40.7z M36.5,44.5L36.5,44.5  c-0.2,0.4-1.1,1.3-1.3,0.5c-0.2-0.8,0.3-1.7,1.1-1.9c0.1,0,0.2,0,0.2,0.1C36.7,43.6,36.7,44.1,36.5,44.5z M34.8,45.1L34.8,45.1  c-0.2,0.3-1.2,1.4-1.3,0.5c-0.2-0.9,0.4-1.7,1.2-1.9c0.1,0,0.2,0,0.2,0.1C35.1,44.2,35,44.7,34.8,45.1z M36,47.4L36,47.4  c0.1,0.5-1,0.2-1.2,0.2c-0.4-0.2-1.6-1.2-0.7-1.4C34.9,46,35.8,46.5,36,47.4z M33.2,44.3L33.2,44.3c0.4,0.9-0.3,1.9-1.1,2.2  c-0.4,0.2-0.3-1-0.2-1.2c0.2-0.5,0.6-0.9,1.1-1.1C33.1,44.2,33.2,44.2,33.2,44.3z M34.2,48.1L34.2,48.1c-0.9,0.3-1.8-0.1-2.1-1  c-0.1-0.4,1-0.4,1.2-0.3c0.5,0.2,0.9,0.6,1,1.1C34.3,47.9,34.3,48.1,34.2,48.1z M39.7,41.9L39.7,41.9c0.3,0.8,0.1,1.8-0.7,2.3  c-0.7,0.4-0.5-1.1-0.4-1.4C38.7,42.5,39.5,41.4,39.7,41.9z M40.9,45.8L40.9,45.8c-0.8,0.4-1.7,0-2-0.8c-0.3-0.8,0.9-0.6,1.3-0.4  C40.4,44.7,41.4,45.6,40.9,45.8z M38.2,44L38.2,44c-0.2,0.4-1.1,1.4-1.2,0.5c-0.2-0.8,0.2-1.7,1-2c0.1,0,0.2,0,0.2,0.1  C38.4,43,38.4,43.5,38.2,44z M39.3,46.5L39.3,46.5c-0.8,0.3-1.7-0.2-2-1c-0.3-0.8,1-0.5,1.3-0.3C38.8,45.4,39.8,46.4,39.3,46.5z   M45.4,39.8L45.4,39.8c0,0.3-0.1,0.5-0.2,0.7c-0.8,1.4-1-0.3-0.9-1c0.1-0.4,0.6-1.9,0.9-1C45.4,38.9,45.4,39.3,45.4,39.8z   M46.9,41.7L46.9,41.7C46.9,41.8,46.9,41.8,46.9,41.7c0,0.2-0.1,0.3-0.2,0.4c-0.7,0.5-1.6,0.2-1.9-0.6c-0.2-0.5,0.9-0.7,1.2-0.6  C46.4,41.1,46.7,41.4,46.9,41.7z M44.1,40.8L44.1,40.8c-0.1,0.2-0.1,0.5-0.3,0.7c-0.8,1.3-1-0.4-0.8-1.1c0.1-0.4,0.7-1.8,1-0.9  C44.1,39.9,44.2,40.3,44.1,40.8z M45.6,42.8L45.6,42.8c0.2,0.4-0.8,0.6-1.1,0.6c-0.5,0-1.6-0.9-0.8-1.3  C44.4,41.7,45.2,42.1,45.6,42.8z M42.6,40.3L42.6,40.3c0.4,0.8,0.2,1.9-0.5,2.5c-0.7,0.5-0.6-1.1-0.5-1.4  C41.6,41.1,42.2,39.9,42.6,40.3C42.5,40.2,42.6,40.3,42.6,40.3z M44,44.2L44,44.2c-0.8,0.6-1.8,0.2-2.1-0.7  c-0.2-0.5,1.1-0.5,1.3-0.4C43.5,43.1,44.5,43.9,44,44.2z M41.2,42.5L41.2,42.5c-0.1,0.2-0.2,0.4-0.3,0.6c-0.9,1.1-1-0.5-0.8-1.1  c0.1-0.4,0.8-1.6,1.1-0.7C41.4,41.7,41.4,42.1,41.2,42.5z M42.5,45L42.5,45c-0.8,0.4-1.6,0.1-2-0.7c-0.3-0.8,0.8-0.7,1.3-0.5  C41.9,43.9,42.9,44.8,42.5,45z M49.8,34.2L49.8,34.2c0,0.4,0,0.9-0.2,1.3c-0.4,0.8-0.7-0.7-0.8-1c-0.1-0.5-0.1-1.5,0.3-1.8  c0.3-0.3,0.7,1.1,0.7,1.2C49.8,34,49.8,34.1,49.8,34.2z M51.6,35.8L51.6,35.8c0.2,0.3-0.4,0.8-0.6,0.9c-0.6,0.3-1.8-0.3-1.2-1  C50.3,35.1,51.1,35.1,51.6,35.8z M48.8,35.7L48.8,35.7c0,0.3,0,0.6-0.1,0.8c-0.5,1.5-0.9,0.2-0.9-0.6c0-0.5,0-1.5,0.4-1.8  c0.3-0.2,0.6,1.1,0.6,1.3C48.8,35.5,48.8,35.6,48.8,35.7z M50.6,37.5L50.6,37.5c0.2,0.3-0.4,0.8-0.7,0.9c-0.6,0.2-1.8-0.4-1.2-1  C49.3,36.7,50.1,36.8,50.6,37.5z M47.4,35.6L47.4,35.6c0.5,0.8,0.6,1.9,0,2.7c-0.5,0.7-0.7-0.8-0.7-1.1c0-0.6,0.1-1.2,0.5-1.7  C47.2,35.5,47.3,35.6,47.4,35.6z M49.5,39.3L49.5,39.3c-0.6,0.8-1.6,0.7-2.1-0.1c-0.3-0.5,0.8-0.8,1.1-0.8  C48.8,38.3,49.8,38.9,49.5,39.3z M46.7,38.5c0,0.3-0.1,0.5-0.2,0.8c-0.7,1.5-0.9-0.3-0.9-1c0-0.3,0.4-2,0.9-1.1  C46.6,37.6,46.7,38,46.7,38.5z"></path>	<polygon class="st13" points="60.5,31.3 60.5,34.5 58.5,31.3 57.2,31.3 57.2,36.5 58.5,36.5 58.5,33.3 60.5,36.5 61.8,36.5   61.8,31.3  "></polygon>	<path class="st13" d="M63.8,33.9c0-0.9,0.5-1.5,1.4-1.5c0.8,0,1.4,0.6,1.4,1.5c0,0.9-0.5,1.5-1.4,1.5  C64.3,35.4,63.8,34.8,63.8,33.9 M67.8,33.9c0-1.6-1.2-2.7-2.6-2.7c-1.5,0-2.6,1.1-2.6,2.7c0,1.6,1.2,2.7,2.6,2.7  C66.6,36.6,67.8,35.5,67.8,33.9z"></path>	<rect x="68.5" y="31.3" class="st13" width="1.3" height="5.2"></rect>	<path class="st13" d="M71.9,35.4v-3h0.6c0.9,0,1.5,0.6,1.5,1.5c0,1-0.6,1.5-1.5,1.5H71.9z M72.5,31.3h-1.9v5.2h1.9  c1.6,0,2.7-1.1,2.7-2.6C75.2,32.4,74.2,31.3,72.5,31.3z"></path>	<path class="st13" d="M78.8,34.6h-1.3l0.6-1.9L78.8,34.6z M79.4,36.5h1.3l-1.9-5.2h-1.4l-1.9,5.2h1.3l0.3-0.9h1.9L79.4,36.5z"></path>	<rect x="82.9" y="31.3" class="st13" width="1.3" height="5.2"></rect>	<polygon class="st13" points="88.4,31.3 88.4,34.5 86.3,31.3 85,31.3 85,36.5 86.3,36.5 86.3,33.3 88.4,36.5 89.6,36.5 89.6,31.3    "></polygon>	<polygon class="st13" points="90.2,32.3 91.6,32.3 91.6,36.5 92.9,36.5 92.9,32.3 94.2,32.3 94.2,31.3 90.2,31.3  "></polygon>	<polygon class="st13" points="98,31.3 94.8,31.3 94.8,36.5 98,36.5 98,35.5 96.1,35.5 96.1,34.4 97.8,34.4 97.8,33.4 96.1,33.4   96.1,32.3 98,32.3  "></polygon>	<path class="st13" d="M98.8,31.3v5.2h1.3v-2h0.3l1.1,2h1.4l-1.2-2.1c0.8-0.2,1.1-0.9,1.1-1.5c0-0.9-0.6-1.7-1.9-1.7H98.8z   M101.5,33c0,0.4-0.2,0.7-0.7,0.7h-0.8v-1.3h0.8C101.3,32.4,101.5,32.6,101.5,33z"></path>	<polygon class="st13" points="106.9,31.3 106.9,34.5 104.8,31.3 103.6,31.3 103.6,36.5 104.8,36.5 104.8,33.3 106.9,36.5   108.2,36.5 108.2,31.3  "></polygon>	<path class="st13" d="M111.9,34.6h-1.3l0.6-1.9L111.9,34.6z M112.6,36.5h1.3l-1.9-5.2h-1.4l-1.9,5.2h1.3l0.3-0.9h1.9L112.6,36.5z"></path>	<polygon class="st13" points="114.2,32.3 115.5,32.3 115.5,36.5 116.8,36.5 116.8,32.3 118.1,32.3 118.1,31.3 114.2,31.3  "></polygon>	<rect x="118.8" y="31.3" class="st13" width="1.3" height="5.2"></rect>	<path class="st13" d="M122,33.9c0-0.9,0.5-1.5,1.4-1.5c0.8,0,1.4,0.6,1.4,1.5c0,0.9-0.5,1.5-1.4,1.5C122.5,35.4,122,34.8,122,33.9   M126,33.9c0-1.6-1.2-2.7-2.6-2.7c-1.5,0-2.6,1.1-2.6,2.7c0,1.6,1.2,2.7,2.6,2.7C124.8,36.6,126,35.5,126,33.9z"></path>	<polygon class="st13" points="130,31.3 130,34.5 127.9,31.3 126.7,31.3 126.7,36.5 127.9,36.5 127.9,33.3 130,36.5 131.3,36.5   131.3,31.3  "></polygon>	<path class="st13" d="M135.1,34.6h-1.3l0.6-1.9L135.1,34.6z M135.7,36.5h1.3l-1.9-5.2h-1.4l-1.9,5.2h1.3l0.3-0.9h1.9L135.7,36.5z"></path>	<polygon class="st13" points="137.6,31.3 137.6,36.5 140.5,36.5 140.5,35.5 138.8,35.5 138.8,31.3  "></polygon>	<path class="st13" d="M77.7,41.4c0,1.4,0.9,2.2,2.1,2.2c1.2,0,2.2-0.7,2.2-2.2v-3.1h-1.3v3.1c0,0.6-0.3,1-0.9,1  c-0.6,0-0.9-0.4-0.9-1v-3.1h-1.3V41.4z"></path>	<polygon class="st13" points="86.3,38.3 86.3,41.5 84.2,38.3 82.9,38.3 82.9,43.5 84.2,43.5 84.2,40.3 86.3,43.5 87.5,43.5   87.5,38.3  "></polygon>	<rect x="88.4" y="38.3" class="st13" width="1.3" height="5.2"></rect>	<polygon class="st13" points="92.8,42.2 91.5,38.3 90.2,38.3 92,43.5 93.6,43.5 95.4,38.3 94.1,38.3  "></polygon>	<polygon class="st13" points="99,38.3 95.9,38.3 95.9,43.5 99,43.5 99,42.5 97.2,42.5 97.2,41.3 98.8,41.3 98.8,40.4 97.2,40.4   97.2,39.3 99,39.3  "></polygon>	<path class="st13" d="M99.9,38.3v5.2h1.3v-2h0.3l1.1,2h1.4l-1.2-2.1c0.8-0.2,1.1-0.9,1.1-1.5c0-0.9-0.6-1.7-1.9-1.7H99.9z   M102.6,40c0,0.4-0.2,0.7-0.7,0.7h-0.8v-1.3h0.8C102.4,39.3,102.6,39.6,102.6,40z"></path>	<path class="st13" d="M108.4,42c0-1.8-2.5-1.3-2.5-2.3c0-0.3,0.2-0.5,0.5-0.5c0.3,0,0.6,0.2,0.6,0.5h1.4c-0.1-1-0.8-1.6-1.9-1.6  c-1.1,0-1.9,0.6-1.9,1.5c0,1.9,2.6,1.3,2.6,2.3c0,0.3-0.2,0.5-0.6,0.5c-0.4,0-0.6-0.2-0.6-0.6h-1.3c0,1.1,0.9,1.6,2,1.6  C107.7,43.6,108.4,42.8,108.4,42"></path>	<rect x="109.1" y="38.3" class="st13" width="1.3" height="5.2"></rect>	<polygon class="st13" points="111,39.3 112.4,39.3 112.4,43.5 113.6,43.5 113.6,39.3 115,39.3 115,38.3 111,38.3  "></polygon>	<polygon class="st13" points="117,41.8 117,43.5 118.2,43.5 118.2,41.8 120,38.3 118.6,38.3 117.6,40.5 116.6,38.3 115.2,38.3  "></polygon>	<polygon class="st1" points="76.9,46.7 75.3,46.7 75.3,49.6 76.9,49.6 76.9,49.3 75.7,49.3 75.7,48.3 76.8,48.3 76.8,48 75.7,48   75.7,47 76.9,47  "></polygon>	<polygon class="st1" points="77.5,49.6 77.8,49.6 77.8,47.4 78.8,49.6 79.1,49.6 80,47.4 80,49.6 80.4,49.6 80.4,46.7 80,46.7   78.9,49.1 77.9,46.7 77.5,46.7  "></polygon>	<path class="st1" d="M82.9,47.5c0-0.5-0.3-0.9-1-0.9H81v2.9h0.4v-1.2h0.6C82.6,48.4,82.9,48,82.9,47.5 M81.4,48.1V47h0.6  c0.4,0,0.6,0.2,0.6,0.5c0,0.3-0.2,0.5-0.6,0.5H81.4z"></path>	<path class="st1" d="M83.6,48.1c0-0.7,0.5-1.2,1.1-1.2s1.1,0.4,1.1,1.2c0,0.7-0.5,1.2-1.1,1.2S83.6,48.8,83.6,48.1 M86.1,48.1  c0-0.9-0.6-1.5-1.4-1.5c-0.8,0-1.4,0.6-1.4,1.5c0,0.9,0.6,1.5,1.4,1.5C85.5,49.6,86.1,49,86.1,48.1z"></path>	<polygon class="st1" points="87.2,49.6 87.6,49.6 88.3,47.2 89,49.6 89.4,49.6 90.2,46.7 89.8,46.7 89.2,49.1 88.5,46.7 88.1,46.7   87.4,49.1 86.8,46.7 86.4,46.7  "></polygon>	<polygon class="st1" points="92.2,46.7 90.7,46.7 90.7,49.6 92.2,49.6 92.2,49.3 91,49.3 91,48.3 92.1,48.3 92.1,48 91,48 91,47   92.2,47  "></polygon>	<path class="st1" d="M92.8,46.7v2.9h0.4v-1.2h0.5l0.7,1.2h0.4L94,48.4c0.5-0.1,0.7-0.5,0.7-0.8c0-0.5-0.3-0.9-1-0.9H92.8z   M94.3,47.5c0,0.3-0.2,0.6-0.6,0.6h-0.6V47h0.6C94.1,47,94.3,47.2,94.3,47.5z"></path>	<polygon class="st1" points="97.1,48.5 97.1,49.6 97.4,49.6 97.4,48.5 98.4,46.7 98,46.7 97.3,48.1 96.5,46.7 96.1,46.7  "></polygon>	<path class="st1" d="M99,48.1c0-0.7,0.5-1.2,1.1-1.2s1.1,0.4,1.1,1.2c0,0.7-0.5,1.2-1.1,1.2S99,48.8,99,48.1 M101.5,48.1  c0-0.9-0.6-1.5-1.4-1.5c-0.8,0-1.4,0.6-1.4,1.5c0,0.9,0.6,1.5,1.4,1.5C100.9,49.6,101.5,49,101.5,48.1z"></path>	<path class="st1" d="M102,48.5c0,0.8,0.5,1.1,1.1,1.1c0.6,0,1.1-0.3,1.1-1.1v-1.9h-0.4v1.9c0,0.5-0.3,0.8-0.7,0.8  c-0.4,0-0.7-0.2-0.7-0.8v-1.9H102V48.5z"></path>	<path class="st1" d="M104.8,46.7v2.9h0.4v-1.2h0.5l0.7,1.2h0.4l-0.7-1.2c0.5-0.1,0.7-0.5,0.7-0.8c0-0.5-0.3-0.9-1-0.9H104.8z   M106.3,47.5c0,0.3-0.2,0.6-0.6,0.6h-0.6V47h0.6C106.2,47,106.3,47.2,106.3,47.5z"></path>	<polygon class="st1" points="108.4,49.6 108.8,49.6 108.8,48.3 109.8,48.3 109.8,48 108.8,48 108.8,47 110,47 110,46.7 108.4,46.7    "></polygon>	<path class="st1" d="M110.5,48.5c0,0.8,0.5,1.1,1.1,1.1c0.6,0,1.1-0.3,1.1-1.1v-1.9h-0.4v1.9c0,0.5-0.3,0.8-0.7,0.8  c-0.4,0-0.7-0.2-0.7-0.8v-1.9h-0.4V48.5z"></path>	<polygon class="st1" points="113.1,47 113.9,47 113.9,49.6 114.2,49.6 114.2,47 115,47 115,46.7 113.1,46.7  "></polygon>	<path class="st1" d="M115.5,48.5c0,0.8,0.5,1.1,1.1,1.1c0.6,0,1.1-0.3,1.1-1.1v-1.9h-0.4v1.9c0,0.5-0.3,0.8-0.7,0.8  c-0.4,0-0.7-0.2-0.7-0.8v-1.9h-0.4V48.5z"></path>	<path class="st1" d="M118.3,46.7v2.9h0.4v-1.2h0.5l0.7,1.2h0.4l-0.7-1.2c0.5-0.1,0.7-0.5,0.7-0.8c0-0.5-0.3-0.9-1-0.9H118.3z   M119.8,47.5c0,0.3-0.2,0.6-0.6,0.6h-0.6V47h0.6C119.6,47,119.8,47.2,119.8,47.5z"></path>	<polygon class="st1" points="122.3,46.7 120.8,46.7 120.8,49.6 122.3,49.6 122.3,49.3 121.2,49.3 121.2,48.3 122.2,48.3 122.2,48   121.2,48 121.2,47 122.3,47  "></polygon>	<path class="st14" d="M68.2,47.8h5.9v0.7h-5.9c-0.2,0-0.3-0.2-0.3-0.3v0C67.9,47.9,68,47.8,68.2,47.8"></path>	<path class="st14" d="M129.5,47.8h-5.9v0.7h5.9c0.2,0,0.3-0.2,0.3-0.3v0C129.8,47.9,129.7,47.8,129.5,47.8"></path>	<polygon class="st15" points="89.5,27.6 80.9,20.2 80.9,27.2 76.1,27.2 76.1,10.6 76.5,10.6 85.2,18 85.2,11 90,11 90,27.6  "></polygon>	<polygon class="st15" points="92.7,27.2 92.7,11 97.5,11 97.5,22.6 103.1,22.6 103.1,27.2  "></polygon>	<rect x="104.8" y="11" class="st15" width="4.8" height="16.2"></rect>	<polygon class="st15" points="125.7,27.6 117.1,20.2 117.1,27.2 112.3,27.2 112.3,10.6 112.7,10.6 121.4,18 121.4,11 126.2,11   126.2,27.6  "></polygon>	<polygon class="st15" points="128.9,27.2 128.9,11 140.5,11 140.5,15.6 133.6,15.6 133.6,17.2 139.9,17.2 139.9,20.9 133.6,20.9   133.6,22.6 140.5,22.6 140.5,27.2  "></polygon>	<g>		<defs>			<path id="SVGID_16_" d="M66,11.1c4.3,0,7.8,3.6,7.8,8s-3.5,8-7.8,8s-7.8-3.6-7.8-8S61.6,11.1,66,11.1"></path>		</defs>		<clipPath id="SVGID_17_">			<use xlink:href="#SVGID_16_" style="overflow:visible;"></use>		</clipPath>		<path class="st16" d="M72.6,25.7c-1.7-1.7-4-2.8-6.6-2.8c-2.6,0-4.9,1.1-6.6,2.8c-1.7,1.7-2.7,4.1-2.7,6.7s1,5,2.7,6.7   c1.7,1.7,4,2.8,6.6,2.8c2.6,0,4.9-1.1,6.6-2.8c1.7-1.7,2.7-4.1,2.7-6.7S74.2,27.4,72.6,25.7 M66,21.9c2.9,0,5.5,1.2,7.3,3.1   c1.9,1.9,3,4.6,3,7.5s-1.2,5.6-3,7.5C71.4,41.8,68.8,43,66,43c-2.9,0-5.5-1.2-7.3-3.1c-1.9-1.9-3-4.6-3-7.5s1.2-5.6,3-7.5   C60.5,23,63.1,21.9,66,21.9z"></path>		<path class="st16" d="M66.5,25.6c1.7-1.7,2.7-4.1,2.7-6.7c0-2.6-1-5-2.7-6.7c-1.7-1.7-4-2.8-6.6-2.8c-2.6,0-4.9,1.1-6.6,2.8   c-1.7,1.7-2.7,4.1-2.7,6.7c0,2.6,1,5,2.7,6.7c1.7,1.7,4,2.8,6.6,2.8C62.5,28.4,64.9,27.3,66.5,25.6 M70.3,18.9   c0,2.9-1.2,5.6-3,7.5c-1.9,1.9-4.5,3.1-7.3,3.1c-2.9,0-5.5-1.2-7.3-3.1c-1.9-1.9-3-4.6-3-7.5c0-2.9,1.2-5.6,3-7.5   c1.9-1.9,4.5-3.1,7.3-3.1c2.9,0,5.5,1.2,7.3,3.1C69.1,13.3,70.3,15.9,70.3,18.9z"></path>		<path class="st16" d="M78.6,25.6c1.7-1.7,2.7-4.1,2.7-6.7c0-2.6-1-5-2.7-6.7c-1.7-1.7-4-2.8-6.6-2.8c-2.6,0-4.9,1.1-6.6,2.8   c-1.7,1.7-2.7,4.1-2.7,6.7c0,2.6,1,5,2.7,6.7c1.7,1.7,4,2.8,6.6,2.8C74.5,28.4,76.9,27.3,78.6,25.6 M82.3,18.9   c0,2.9-1.2,5.6-3,7.5c-1.9,1.9-4.5,3.1-7.3,3.1c-2.9,0-5.5-1.2-7.3-3.1c-1.9-1.9-3-4.6-3-7.5c0-2.9,1.2-5.6,3-7.5   c1.9-1.9,4.5-3.1,7.3-3.1c2.9,0,5.5,1.2,7.3,3.1C81.2,13.3,82.3,15.9,82.3,18.9z"></path>		<rect x="45.5" y="18.3" class="st16" width="40.8" height="1"></rect>		<rect x="65.4" y="-2" class="st16" width="1" height="41.7"></rect>		<path class="st16" d="M72.6-1.5c-1.7-1.7-4-2.8-6.6-2.8c-2.6,0-4.9,1.1-6.6,2.8c-1.7,1.7-2.7,4.1-2.7,6.7c0,2.6,1,5,2.7,6.7   c1.7,1.7,4,2.8,6.6,2.8c2.6,0,4.9-1.1,6.6-2.8c1.7-1.7,2.7-4.1,2.7-6.7C75.3,2.6,74.2,0.3,72.6-1.5 M66-5.3c2.9,0,5.5,1.2,7.3,3.1   c1.9,1.9,3,4.6,3,7.5c0,2.9-1.2,5.6-3,7.5c-1.9,1.9-4.5,3.1-7.3,3.1c-2.9,0-5.5-1.2-7.3-3.1c-1.9-1.9-3-4.6-3-7.5   c0-2.9,1.2-5.6,3-7.5C60.5-4.1,63.1-5.3,66-5.3z"></path>	</g>	<ellipse class="st17" cx="66" cy="19.1" rx="7.8" ry="8"></ellipse>	<path class="st18" d="M65.2,9.9c0,0-0.1,0-0.1,0 M54.6,8.6L66,2.7l11.3,5.9l-4.6,1.5v2.7h-0.1c-0.7-0.8-1.5-1.4-2.4-1.9l0,0  c-0.6-0.3-1.3-0.6-2-0.8l0,0c0,0-0.1,0-0.1,0l0,0c-0.1,0-0.1,0-0.2,0l0,0c0,0-0.1,0-0.1,0l0,0c0,0-0.1,0-0.1,0l0,0l-0.1,0l0,0  l-0.1,0l-0.1,0l-0.1,0l-0.1,0l-0.1,0l0,0l-0.1,0l0,0c0,0-0.1,0-0.1,0l0,0c0,0-0.1,0-0.1,0l0,0l0,0c0,0-0.1,0-0.1,0l0,0l-0.1,0l0,0  c0,0-0.1,0-0.1,0l0,0c0,0-0.1,0-0.1,0l0,0c0,0-0.1,0-0.1,0l0,0c0,0-0.1,0-0.1,0l0,0c0,0-0.1,0-0.1,0c0,0-0.1,0-0.1,0l0,0  c0,0-0.1,0-0.1,0l0,0c0,0-0.1,0-0.1,0l0,0c0,0-0.1,0-0.1,0l0,0c0,0-0.1,0-0.1,0l0,0l-0.1,0l0,0c0,0-0.1,0-0.1,0l0,0l0,0  c0,0-0.1,0-0.1,0l0,0l-0.1,0l0,0l-0.1,0l0,0l-0.1,0l-0.1,0l-0.1,0l-0.1,0l-0.1,0l0,0l-0.1,0l0,0c0,0-0.1,0-0.1,0l0,0  c0,0-0.1,0-0.1,0l0,0c-0.1,0-0.1,0-0.2,0l0,0c0,0-0.1,0-0.1,0l0,0c-0.7,0.2-1.4,0.5-2,0.8l0,0c-0.9,0.5-1.7,1.2-2.4,1.9h-0.1v-2.7  l-2.5-0.8v4.6c0.4,0.1,0.7,0.5,0.7,0.9c0,0.4-0.2,0.7-0.5,0.8v2.9H56v-2.9c-0.3-0.2-0.5-0.5-0.5-0.8c0-0.5,0.3-0.8,0.7-0.9V9.1  L54.6,8.6z"></path></g></svg>