<svg xmlns="http://www.w3.org/2000/svg" xmlns:xlink="http://www.w3.org/1999/xlink" xml:space="preserve" id="Layer_1" x="0" y="0" viewBox="0 0 259.7 52.3"><style>.st1{fill:#2b2a29}.st2{fill-rule:evenodd;clip-rule:evenodd;fill:#ed2024}.st3{fill:#ffed00}.st4{fill:#e6ab3d}.st6,.st8{fill-rule:evenodd;clip-rule:evenodd;fill:#8e5715}.st8{fill:#e6ab3d}.st16{fill:#e6a740;clip-path:url(#SVGID_17_)}</style><title>Asset 1</title><path d="M259.7 38.7h-88v.9h88z" style="fill-rule:evenodd;clip-rule:evenodd;fill:#242021"/><path d="m188.9 44.3-.6-1.5-.6 1.5zm1.6 1.6h-.9l-.4-.9h-1.6l-.4.9h-.9l1.6-4.1h.9zm2.9-2.1-.8.1c0-.1-.1-.3-.2-.3-.1-.1-.2-.1-.4-.1s-.4.1-.5.2c-.1.2-.2.4-.2.7s0 .5.2.8c.1.1.3.2.5.2.1 0 .3 0 .4-.1s.2-.3.2-.4l.8.1c-.1.3-.2.6-.5.8q-.45.3-.9.3c-.4 0-.7-.1-1-.4s-.4-.7-.4-1.1.1-.8.4-1.2c.3-.3.7-.4 1-.4s.6.1.9.2c.4.1.5.3.5.6m3.2 0-.8.1c0-.1-.1-.3-.2-.3-.1-.1-.2-.1-.4-.1s-.4.1-.5.2c-.1.2-.2.4-.2.7s0 .5.2.8c.1.1.3.2.5.2.1 0 .3 0 .4-.1s.2-.3.2-.4l.8.1c-.1.7-.7 1.2-1.4 1.1-.4 0-.7-.1-1-.4s-.4-.7-.4-1.1.1-.8.4-1.2c.3-.3.7-.4 1-.4s.6.1.9.2.5.4.5.6m1.3 2.1h-.8v-3h.8v.4c.1-.2.2-.3.3-.4s.2-.1.3-.1c.2 0 .4.1.5.2l-.2.7c-.1-.1-.2-.1-.4-.1-.1 0-.2 0-.3.1s-.2.2-.2.3c-.1.3-.1.7-.1 1zm3.3-1.7c0-.2-.1-.4-.2-.5s-.3-.2-.4-.2c-.2 0-.3.1-.4.2s-.2.3-.2.5zm0 .8.8.1c-.1.3-.2.5-.5.7-.2.2-.5.2-.8.2-.4 0-.9-.2-1.1-.5s-.3-.6-.3-1 .1-.8.4-1.2c.3-.3.6-.4 1-.4s.8.1 1 .4c.3.4.4.9.4 1.3h-2c0 .2.1.4.2.5s.3.2.5.2c.1 0 .2 0 .3-.1 0 0 .1-.1.1-.2m2.1-.6c0 .2 0 .5.1.7s.3.3.5.3.3-.1.5-.2c.1-.2.2-.5.2-.7 0-.3 0-.5-.2-.7-.2-.3-.6-.3-.8-.1l-.1.1c-.2.1-.3.3-.2.6m2.1 1.5h-.7v-.4c-.1.2-.3.3-.4.4-.2.1-.3.1-.5.1-.3 0-.7-.2-.9-.4-.5-.7-.5-1.6 0-2.3.2-.3.6-.4.9-.4s.6.2.9.4v-1.5h.8zm.7 0v-3h.8v3zm0-3.4v-.7h.8v.7zm3 .4v.6h-.5v1.6s0 .1.1.1h.1c.1 0 .2 0 .3-.1l.1.6c-.2.1-.4.1-.6.1-.1 0-.3 0-.4-.1-.1 0-.2-.1-.3-.2s-.1-.2-.1-.3v-1.8h-.4v-.6h.4v-.6l.8-.5v1zm2.3 1.3c0-.2-.1-.4-.2-.5s-.3-.2-.4-.2c-.2 0-.3.1-.4.2s-.2.3-.2.5zm-.1.8.8.1c-.1.3-.3.5-.5.7s-.5.2-.8.2c-.4 0-.9-.2-1.1-.5s-.3-.6-.3-1 .1-.8.4-1.2c.3-.3.6-.4 1-.4s.7.2 1 .4c.3.4.4.9.4 1.3h-2c0 .2.1.4.2.5s.3.2.5.2c.1 0 .2 0 .3-.1 0 0 .1-.1.1-.2m2.1-.6c0 .2 0 .5.1.7s.3.3.5.3.3-.1.5-.2c.1-.2.2-.5.2-.7 0-.3 0-.5-.2-.7-.1-.1-.3-.2-.5-.2s-.3.1-.5.2c0 .1-.1.3-.1.6m2.1 1.5h-.7v-.4c-.1.2-.3.3-.4.4-.2.1-.3.1-.5.1-.3 0-.7-.2-.9-.4-.5-.7-.5-1.6 0-2.3.2-.3.6-.4.9-.4s.6.2.9.4v-1.5h.8zm2.4-4.1h.8v2.9c0 .2.1.3.3.4s.4.2.5.2c.2 0 .4 0 .5-.2.1-.1.2-.2.2-.3v-3h.8V44c0 .3 0 .7-.1 1 0 .2-.1.4-.2.5s-.3.3-.5.3c-.3.1-.5.1-.8.1s-.6 0-.9-.1c-.2-.1-.3-.2-.5-.3-.1-.1-.2-.3-.2-.5-.1-.3-.1-.7-.1-1zm6.8 4.1h-.8v-2.1c0-.1-.1-.2-.2-.2-.1-.1-.2-.1-.3-.1s-.3 0-.4.1-.2.2-.2.3c-.1.2-.1.5-.1.7v1.3h-.7v-3h.7v.4c.2-.3.6-.5 1-.5.2 0 .3 0 .5.1.1.1.2.1.3.2s.1.2.1.3c0 .2.1.4 0 .5zm.8 0v-3h.8v3zm0-3.4v-.7h.8v.7zm2.4 3.4-1.2-3h.8l.5 1.5.2.5.1-.3c0-.1 0-.2.1-.3l.6-1.5h.8l-1.2 3h-.7zm4.2-1.7c0-.2-.1-.4-.2-.5s-.2-.2-.4-.2-.3.1-.4.2-.2.3-.2.5zm-.1.8.8.1c-.1.3-.3.5-.5.7s-.5.2-.8.2c-.4 0-.9-.2-1.1-.5s-.3-.6-.3-1 .1-.8.4-1.2c.5-.6 1.4-.6 2 0 .3.4.4.9.4 1.3h-2c0 .2.1.4.2.5s.3.2.5.2c.1 0 .2 0 .3-.1 0 0 .1-.1.1-.2m2.2.9h-.8v-3h.7v.4c.1-.2.2-.3.3-.4s.2-.1.3-.1c.2 0 .4.1.5.2l-.2.7c-.1-.1-.2-.1-.4-.1-.1 0-.2 0-.3.1s-.2.2-.2.3c-.1.3-.1.7-.1 1v.9zm1.2-.8.8-.1c0 .1.1.3.2.3.1.1.3.1.4.1.2 0 .3 0 .5-.1.1 0 .1-.1.1-.2s0-.1-.1-.2-.2-.1-.3-.1c-.4-.1-.8-.2-1.2-.4-.2-.1-.4-.4-.4-.7s.1-.5.3-.7c.3-.2.6-.3 1-.3.3 0 .6 0 .9.2.2.1.4.3.4.6l-.7.1c0-.1-.1-.2-.2-.3s-.2-.1-.4-.1-.3 0-.5.1c-.1 0-.1.1-.1.2s0 .1.1.1c.2.1.5.2.7.2.3 0 .6.2.9.3.2.1.3.4.3.6 0 .3-.1.5-.4.7s-.6.3-1 .3-.7-.1-1-.3c-.1.2-.2-.1-.3-.3m3.5.8v-3h.8v3zm0-3.4v-.7h.8v.7zm3 .4v.6h-.5v1.6s0 .1.1.1h.1c.1 0 .2 0 .3-.1l.1.6c-.2.1-.4.1-.6.1-.1 0-.3 0-.4-.1-.1 0-.2-.1-.2-.2-.1-.1-.1-.2-.1-.3v-1.8h-.4v-.6h.4v-.6l.8-.5v1zm.1 0h.8l.7 2.1.7-2.1h.8l-1 2.9-.2.5c-.1.1-.1.3-.2.4s-.1.2-.2.2c-.1.1-.2.1-.3.1h-.9l-.1-.6h.3c.2 0 .3 0 .4-.2.1-.1.2-.3.2-.4z" class="st1"/><path d="M235.4 24.9h7.4c0-.4-3.6-11-3.7-11.1-.5 1.3-3.7 10.9-3.7 11.1M223.9 36h7.6l2-5.3h11.4l2 5.3h7.6l-11-30.4h-7.7zm28.3-18.8h2.5V5.6l-2.4-.1z" class="st2"/><path d="M247.6 10.1v2.5h11.7v-2.4z" class="st2"/><path d="M172.5 21.5c-.1 0-.1 0-.2-.1s-.1-.1-.1-.2V5.7c0-.1 0-.1.1-.2 0-.1.1-.1.2-.1h2.6c.1 0 .3.1.3.2l4.1 9.2.1.1V5.7c0-.1 0-.1.1-.2 0-.1.1-.1.2-.1h2.5c.1 0 .1 0 .2.1 0 .1.1.1.1.2v15.6c0 .1 0 .1-.1.2 0 .1-.1.1-.2.1h-2.6c-.1 0-.3-.1-.3-.2l-4.1-9.3c0-.1 0-.1-.1-.1s0 0 0 .1v9.1c0 .1 0 .1-.1.2 0 .1-.1.1-.2.1zm16.1-5.2v.1h3v-.1l-1.4-6.5c0-.1 0-.1-.1-.1 0 0-.1 0-.1.1zm4.3 5.2c-.1 0-.3-.1-.3-.2l-.5-2.3c0-.1-.1-.1-.1-.1h-4c-.1 0-.1 0-.1.1l-.5 2.3c0 .1-.2.2-.3.2h-2.6c-.2 0-.3-.1-.2-.3l3.9-15.6c0-.1.2-.2.3-.2h3.1c.1 0 .3.1.3.2l3.9 15.6v.1c0 .1-.1.2-.2.2zm8.3-5.2v.1h3.1v-.1l-1.5-6.5c0-.1 0-.1-.1-.1 0 0-.1 0-.1.1zm4.4 5.2c-.1 0-.3-.1-.3-.2l-.5-2.3c0-.1 0-.1-.1-.1h-4c-.1 0-.1 0-.1.1l-.5 2.3c0 .1-.2.2-.3.2h-2.6c-.2 0-.3-.1-.2-.3l3.9-15.6c0-.1.2-.2.3-.2h3.1c.1 0 .3.1.3.2l3.9 15.6v.1c0 .1-.1.2-.2.2zm9.3.2c-.9 0-1.8-.2-2.6-.6-.7-.4-1.3-1-1.7-1.8q-.6-1.2-.6-2.7v-6.4c0-.9.2-1.8.6-2.6.4-.7 1-1.4 1.7-1.8.8-.4 1.7-.6 2.6-.6s1.8.2 2.6.6c.7.4 1.3 1 1.7 1.7.4.8.6 1.7.6 2.6v.1c0 .1 0 .1-.1.2 0 .1-.1.1-.2.1l-2.5.1q-.3 0-.3-.3V10c0-.6-.2-1.1-.5-1.5-.7-.8-2-.8-2.7 0-.4.4-.5 1-.5 1.5v6.7c0 .6.2 1.1.5 1.5.8.7 2 .7 2.8 0 .4-.4.6-1 .5-1.5v-.3q0-.3.3-.3l2.5.1c.2 0 .3.1.3.2v.2c0 .9-.2 1.8-.6 2.6-.4.7-1 1.3-1.7 1.7-.9.6-1.8.9-2.7.8m-38.7 14.6c-.8 0-1.5-.2-2.2-.5-.6-.3-1.1-.8-1.5-1.4-.3-.6-.5-1.3-.5-2.1v-5.1c0-.7.2-1.4.5-2.1.3-.6.9-1.1 1.5-1.4 1.4-.6 3-.6 4.3 0 .6.3 1.1.8 1.5 1.3.4.6.5 1.3.5 2v.4c0 .1-.1.2-.2.2H178c-.1 0-.2-.1-.2-.2V27c0-.4-.1-.8-.4-1.1-.7-.6-1.7-.6-2.3 0-.3.3-.5.8-.4 1.2v5.2c0 .5.1.9.5 1.2.3.3.8.5 1.2.5s.8-.1 1.1-.4.5-.7.4-1.1v-1.1s0-.1-.1-.1h-1.4c-.1 0-.1 0-.2-.1 0 0-.1-.1-.1-.2v-1.6c0-.1 0-.1.1-.1 0 0 .1-.1.2-.1h3.8c.1 0 .1 0 .2.1l.1.1v2.9c0 1.1-.4 2.1-1.1 2.9-1 .8-2 1.2-3.2 1.1m8.4-10.6s-.1 0 0 0q-.15.15 0 0l-.1 3.2s0 .1.1.1h1.6c.4 0 .8-.1 1.1-.4s.4-.7.4-1.2c0-.4-.1-.9-.4-1.2s-.7-.5-1.1-.4zm3.3 10.5c-.1 0-.2-.1-.3-.2l-1.8-5-.1-.1h-1.1s-.1 0-.1.1v5c0 .1 0 .1-.1.2 0 0-.1.1-.2.1h-2.1c-.1 0-.1 0-.2-.1-.1 0-.1-.1-.1-.2V23.7c0-.1 0-.1.1-.2 0 0 .1-.1.2-.1h4.4c.7 0 1.3.2 1.9.5.5.3 1 .8 1.3 1.4s.5 1.3.4 2c0 .7-.2 1.4-.5 2s-.8 1-1.4 1.3c0 0-.1.1 0 .1l2.1 5.2v.1c0 .1-.1.2-.2.2zm7-4.1q-.15 0 0 0l2.5.1h.1v-.1l-1.2-5.1s0-.1-.1-.1v.1zm3.7 4.1c-.1 0-.2-.1-.2-.2l-.4-1.8s0-.1-.1-.1h-3.4s-.1 0-.1.1L194 36c0 .1-.1.2-.3.2h-2.2c-.2 0-.2-.1-.2-.2l3.3-12.2c0-.1.1-.2.3-.2h2.6c.1 0 .2.1.3.2L201 36c0 .1-.1.2-.2.2zm6.3-2.3s.1.1 0 0q.15.15 0 0l1.6.1c.4 0 .8-.2 1.1-.5.3-.4.4-.8.4-1.3v-4.8c0-.5-.1-.9-.4-1.3-.3-.3-.7-.5-1.1-.5H205s-.1 0-.1.1zm-2.3 2.3c-.1 0-.1 0-.1-.1 0 0-.1-.1-.1-.2V23.7c0-.1 0-.1.1-.2l.1-.1h3.9c.7 0 1.5.1 2.1.5.6.3 1.1.7 1.4 1.3s.5 1.3.5 1.9v5.3c0 .7-.2 1.3-.5 1.9s-.8 1-1.4 1.3c-.7.3-1.4.5-2.1.5h-3.9zM220 25.5c0 .1 0 .1-.1.1l-.1.1H215s-.1 0-.1.1v2.8s0 .1.1.1h3c.1 0 .1 0 .2.1 0 0 .1.1.1.2v1.8c0 .1 0 .1-.1.1 0 0-.1.1-.2.1h-3s-.1 0-.1.1v3h5s.1.1.1.2V36c0 .1-.1.2-.2.2h-7.3c-.1 0-.1 0-.1-.1 0 0-.1-.1-.1-.2V23.7c0-.1 0-.1.1-.2l.1-.1h7.3c.1 0 .1 0 .1.1 0 0 .1.1.1.2z" class="st1"/><path d="M154.8 5.6h2.5v20.6h-2.5z" class="st3"/><path d="M154.8 26.2h2.5v20.6h-2.5z" class="st3"/><path d="M3.5 34.9c.1.2.2.3.3.5s.3.4.4.6q1.05 1.5 2.1 2.7l.2.2c3.9 4.3 8.8 5.8 12.3 6.8 1.9.6 3.4 1 4 1.7l-.1.1c-.5-.7-2-1.1-3.9-1.7-.2-.1-.4-.1-.7-.2l.1.1c0 .6-.7 1.2-1.2 1.3-.1 0-1.1.2-1-.2.2-.9 1-1.4 1.9-1.3-3.4-1.1-7.9-2.7-11.5-6.6l-.2-.2Q5.15 37.5 4.1 36c-.1-.2-.3-.4-.4-.6-.1-.1-.2-.3-.3-.5-.1 0-.3 0-.5-.2-.2-.1-.3-.3-.4-.5-.2-.4-.4-1.2-.2-1.7s1 .4 1 .6c.1.4.4 1.4.2 1.8m1.9 5.8c.6.7 1.6.6 2-.3.2-.5-.9-.8-1.2-.7-.2 0-1.2.6-.8 1m11.7 3.8c.2.4 1.1 1.3 1.3.5s-.3-1.7-1.1-1.9c-.1 0-.2 0-.2.1-.2.4-.2.9 0 1.3m1.7.6c.2.3 1.2 1.4 1.3.5.2-.9-.4-1.7-1.2-1.9-.1 0-.2 0-.2.1-.2.4-.1.9.1 1.3m-1.2 2.3c-.1.5 1 .2 1.2.2.4-.2 1.6-1.2.7-1.4-.8-.2-1.7.3-1.9 1.2m2.8-3.1c-.4.9.3 1.9 1.1 2.2.4.2.3-1 .2-1.2-.2-.5-.6-.9-1.1-1.1-.1 0-.2 0-.2.1m-1 3.8c.9.3 1.8-.1 2.1-1 .1-.4-1-.4-1.2-.3-.5.2-.9.6-1 1.1 0 0 0 .2.1.2m-5.5-6.2c-.3.8-.1 1.8.7 2.3.7.4.5-1.1.4-1.4s-.9-1.4-1.1-.9m-1.2 3.9c.8.4 1.7 0 2-.8s-.9-.6-1.3-.4c-.2.1-1.2 1-.7 1.2m2.7-1.8c.2.4 1.1 1.4 1.2.5.2-.8-.2-1.7-1-2-.1 0-.2 0-.2.1-.2.4-.2.9 0 1.4m-1.1 2.5c.8.3 1.7-.2 2-1s-1-.5-1.3-.3c-.2.2-1.2 1.2-.7 1.3m-6.1-6.7c0 .3.1.5.2.7.8 1.4 1-.3.9-1-.1-.4-.6-1.9-.9-1-.2.4-.2.8-.2 1.3m-1.5 1.9q0 .15 0 0c0 .2.1.3.2.4.7.5 1.6.2 1.9-.6.2-.4-.9-.6-1.2-.5-.4.1-.7.4-.9.7m2.8-.9c.1.2.1.5.3.7.8 1.3 1-.4.8-1.1-.1-.4-.7-1.8-1-.9-.1.4-.2.8-.1 1.3m-1.5 2c-.2.4.8.6 1.1.6.5 0 1.6-.9.8-1.3-.7-.4-1.5 0-1.9.7m3-2.5c-.4.8-.2 1.9.5 2.5.7.5.6-1.1.5-1.4 0-.3-.6-1.5-1-1.1.1-.1 0 0 0 0m-1.4 3.9c.8.6 1.8.2 2.1-.7.2-.5-1.1-.5-1.3-.4-.3 0-1.3.8-.8 1.1m2.8-1.7.3.6c.9 1.1 1-.5.8-1.1-.1-.4-.8-1.6-1.1-.7q-.3.6 0 1.2M11.1 45c.8.4 1.6.1 2-.7.3-.8-.8-.7-1.3-.5-.2.1-1.1 1-.7 1.2M3.8 34.2c0 .4 0 .9.2 1.3.4.8.7-.7.8-1 .1-.5.1-1.5-.3-1.8-.3-.3-.7 1.1-.7 1.2zM2 35.8c-.2.3.4.8.6.9.6.3 1.8-.3 1.2-1-.5-.6-1.3-.6-1.8.1m2.8-.1c0 .3 0 .6.1.8.5 1.5.9.2.9-.6 0-.5 0-1.5-.4-1.8-.3-.2-.6 1.1-.6 1.3zM3 37.5c-.2.3.4.8.7.9.6.2 1.8-.4 1.2-1-.6-.7-1.4-.6-1.9.1m3.2-1.9c-.5.8-.6 1.9 0 2.7.5.7.7-.8.7-1.1 0-.6-.1-1.2-.5-1.7 0 0-.1.1-.2.1m-2.1 3.7c.6.8 1.6.7 2.1-.1.3-.5-.8-.8-1.1-.8-.3-.1-1.3.5-1 .9m2.8-.8c.1.2.1.5.2.7.7 1.5.9-.3.9-1 0-.3-.4-2-.9-1.1-.1.5-.2.9-.2 1.4" class="st4"/><defs><path id="SVGID_1_" d="M44.3 30.2v-5.7l5.4-1.7-.8 3.1.8 2.7z"/></defs><clipPath id="SVGID_2_"><use xlink:href="#SVGID_1_" style="overflow:visible"/></clipPath><linearGradient id="SVGID_3_" x1="44.332" x2="49.815" y1="26.53" y2="26.53" gradientUnits="userSpaceOnUse"><stop offset="0" style="stop-color:#ca922b"/><stop offset=".48" style="stop-color:#f2b33f"/><stop offset="1" style="stop-color:#ca922b"/></linearGradient><path d="M44.3 22.8h5.4v7.4h-5.4z" style="clip-path:url(#SVGID_2_);fill:url(#SVGID_3_)"/><path d="m47.8 25.5-3.5-1v5.7l3.5 1.1z" class="st6"/><defs><path id="SVGID_4_" d="M9.3 30.2v-5.7l-5.4-1.7.8 3.1-.8 2.7z"/></defs><clipPath id="SVGID_5_"><use xlink:href="#SVGID_4_" style="overflow:visible"/></clipPath><linearGradient id="SVGID_6_" x1="3.976" x2="9.479" y1="26.53" y2="26.53" gradientUnits="userSpaceOnUse"><stop offset="0" style="stop-color:#ca922b"/><stop offset=".48" style="stop-color:#f2b33f"/><stop offset="1" style="stop-color:#ca922b"/></linearGradient><path d="M3.9 22.8h5.4v7.4H3.9z" style="clip-path:url(#SVGID_5_);fill:url(#SVGID_6_)"/><path d="m5.8 25.5 3.5-1v5.7l-3.5 1.1z" class="st6"/><path d="M26.9 46.1C19.8 40.4 8.1 42.3 6 30.4c5.5-7.5 5.9-14.5 1.1-21l4.7-4.7c5.4 1.6 9.7-7.2 15.1-3 5.4-4.2 9.6 4.6 15 3l4.7 4.7c-4.9 6.5-4.5 13.5 1.1 21-2.2 11.9-13.7 10-20.8 15.7" class="st8"/><path d="M26.9 45c.6-.4 1.2-.8 1.9-1.2 7-4 15.9-3.5 17.9-13.2-2.7-3.8-4.7-8.2-4.3-13.1.3-3 1.4-5.7 3.1-8.1l-3.8-3.8c-.6.1-1.2.1-1.8.1-1.8-.2-3.4-1.2-4.9-2.2-1.3-.8-3-2-4.6-2.1-1.1-.1-2 .3-2.9.9l-.5.4-.5-.4c-.9-.7-1.8-1-2.9-.9-1.6.1-3.3 1.3-4.6 2.1-2.1 1.3-4.3 2.6-6.8 2.1l-4 3.9c1.7 2.4 2.8 5.1 3.1 8.1.4 4.8-1.6 9.3-4.3 13.1.6 2.9 1.8 5.2 4.2 7 2.6 2 6.1 3 9.1 4.1 2.3.8 4.6 1.7 6.6 3.2" style="fill-rule:evenodd;clip-rule:evenodd;fill:#00703f"/><path d="m29.1 20.4 5.1 3.6 1.3-2.1-5.7-2.1zm-4.4.1-5.1 3.6-1.2-2.1 5.7-2.1zm-.7-1L17.7 21l-1.1-2.6 7.7.5zm0-1.2-8-1.6-.6-3.8 8.8 4.6zm.6-.9-9.7-7V8.6h3.7l6.5 8.2zm2-.7-1.2-8.1h2.9l-1.2 8zm-1 0-5-8.1h3.5l2.1 7.7zm2.6 0 5-8.1h-3.5l-2.1 7.7zm1 .7 9.7-7V8.6h-3.7l-6.5 8.2zm.6.9 8-1.6.6-3.8-8.8 4.6zm0 1.1 6.3 1.5 1.1-2.6-7.7.5z" class="st8"/><path d="M26.9 15.8c2.1 0 3.8 1.7 3.8 3.9 0 2.1-1.7 3.9-3.8 3.9s-3.8-1.7-3.8-3.9 1.7-3.9 3.8-3.9" class="st8"/><path d="m23.7 38 .9 1.2.9 1.2v-1.6c0-.2 0-.4-.1-.4-.1-.1-.2-.2-.4-.2v-.1c.4 0 .8.1 1.1.1v.1c-.1 0-.2 0-.3.1l-.1.1v3.3h-.1c-.4-.5-.8-1-1.2-1.6-.4-.5-.8-1.1-1.2-1.6v2.2c0 .2 0 .3.1.4s.2.1.3.2h.1v.1c-.4-.1-.8-.1-1.2-.2v-.1h.4c.1-.1.1-.2.1-.4v-2.4s0-.1-.1-.1c-.1-.1-.1-.2-.2-.2s-.1-.1-.2-.1v-.1c.4 0 .8 0 1.2.1m4.4 3.7c-.6.1-1.2.1-1.8.1v-.1h.3l.1-.1v-3.1l-.1-.1c-.1 0-.1-.1-.2-.1h-.1v-.1h1.8v.1H28c-.1 0-.2 0-.2.1l-.1.1v3l.1.1h.2c0 .1 0 .1.1.1m.2-3.5c.6 0 1.2-.1 1.8-.1v.1H30c-.1 0-.2 0-.3.1-.1 0-.1.1-.1.1v2.2c0 .3 0 .5.1.6 0 .1.1.2.2.2.1.1.2.1.4.1s.3-.1.5-.2c.1-.1.2-.2.3-.4s.1-.4.1-.8v-1.7c0-.1-.1-.1-.1-.1h-.3V38c.4-.1.8-.1 1.2-.2v.1h-.1c-.1 0-.2.1-.2.1-.1.1-.1.1-.1.2v1.7c0 .4 0 .7-.1.9s-.2.4-.4.6-.5.3-.8.4h-.7c-.2-.1-.4-.2-.5-.4s-.1-.4-.1-.7v-2.2l-.1-.1c-.3-.1-.4-.1-.6-.2" class="st4"/><path d="M30 46.5c-.1-.5.5-.7.8-.3L32 49c.2.5-.3.6-.6.3-.2-.2-.3-.3-.7-.2zm-2 .5c-.1-.5.6-.8.8-.4l1.3 3.3c.2.5-.5.8-.8.5-.3-.2-.4-.3-.7-.3zm-1.3 4.6c-.1-.3-.3-.4-.6-.5-.1-.1-.2-.2-.2-.4.2-1.3.4-2.6.7-3.9h.5c.2 1.3.5 2.6.7 3.9 0 .2 0 .4-.2.4-.3.1-.5.3-.6.5 0 .3-.2.3-.3 0m-.9-4.6c.1-.5-.6-.8-.8-.4L23.7 50c-.2.5.5.8.8.5.3-.2.4-.3.7-.3zm-2-.5c.1-.5-.5-.7-.8-.3L21.8 49c-.2.5.3.6.6.3.2-.2.3-.3.7-.2zm2.9-20.6c-.2 0-.5-.3-.6-.5q-.6-.6-1.2 0c-.3.3-.5.3-1 0-.3-.2-.8-.3-1.1-.1l-.8.5-.9-1.3c.4-.4 1-1.1 1.6-.6.8.7 1.3.9 2.1.2.3-.3.8-.4 1 0 .3.3.6.5.8.5s.5-.2.8-.5c.3-.4.7-.3 1 0 .8.8 1.4.6 2.1-.1.5-.5 1.2.3 1.6.6l-.9 1.3-.7-.5c-.3-.2-.8-.1-1.1.1-.4.3-.6.3-1 0q-.6-.6-1.2 0c-.1 0-.3.4-.5.4m0 1.3c-.4 0-.6-.2-.7-.4-.2-.5-.8-.3-1.1 0-1 1-1.7.3-2.4-.5.3.5.5 1.2 1.3 1.8.4.3.7.1 1.1-.2.4-.4.7-.3 1.1.1.2.2.4.4.6.4s.5-.1.7-.4c.4-.4.7-.5 1.1-.1.3.3.7.5 1.1.2.8-.6 1-1.3 1.3-1.8-.7.8-1.4 1.5-2.4.5-.3-.3-.9-.5-1.1 0-.1.2-.3.4-.6.4" class="st8"/><defs><path id="SVGID_7_" d="M20.8 34.2v-5.8q-3.75-.15-7.5-.9t-7.5-2.1v5.8c2.5.8 5 1.6 7.5 2.1 2.5.6 5 .8 7.5.9"/></defs><clipPath id="SVGID_8_"><use xlink:href="#SVGID_7_" style="overflow:visible"/></clipPath><linearGradient id="SVGID_9_" x1="5.875" x2="21.262" y1="29.903" y2="29.903" gradientUnits="userSpaceOnUse"><stop offset="0" style="stop-color:#ca922b"/><stop offset=".48" style="stop-color:#f2b33f"/><stop offset="1" style="stop-color:#ca922b"/></linearGradient><path d="M5.8 25.6h15v8.7h-15z" style="clip-path:url(#SVGID_8_);fill:url(#SVGID_9_)"/><path d="m18.2 29.5 2.6-1v5.7l-2.6 1.1z" class="st6"/><defs><path id="SVGID_10_" d="M47.8 31.3v-5.8c-2.5 1-5 1.8-7.5 2.3s-5 .6-7.5.7v5.8c2.5 0 5-.2 7.5-.7s5-1.3 7.5-2.3"/></defs><clipPath id="SVGID_11_"><use xlink:href="#SVGID_10_" style="overflow:visible"/></clipPath><linearGradient id="SVGID_12_" x1="32.912" x2="48.291" y1="29.903" y2="29.903" gradientUnits="userSpaceOnUse"><stop offset="0" style="stop-color:#ca922b"/><stop offset=".48" style="stop-color:#f2b33f"/><stop offset="1" style="stop-color:#ca922b"/></linearGradient><path d="M32.8 25.6h15v8.7h-15z" style="clip-path:url(#SVGID_11_);fill:url(#SVGID_12_)"/><path d="m35.4 29.5-2.6-1v5.7l2.6 1.1z" class="st6"/><defs><path id="SVGID_13_" d="M18.2 29.5v5.8c2.9.8 5.7 1.3 8.6 1.3s5.7-.5 8.6-1.3v-5.8c-2.9.7-5.7 1.2-8.6 1.2-2.9.1-5.7-.5-8.6-1.2"/></defs><clipPath id="SVGID_14_"><use xlink:href="#SVGID_13_" style="overflow:visible"/></clipPath><linearGradient id="SVGID_15_" x1="18.33" x2="35.933" y1="33.081" y2="33.081" gradientUnits="userSpaceOnUse"><stop offset="0" style="stop-color:#ca922b"/><stop offset=".48" style="stop-color:#f2b33f"/><stop offset="1" style="stop-color:#ca922b"/></linearGradient><path d="M18.2 29.5h17.2v7.1H18.2z" style="clip-path:url(#SVGID_14_);fill:url(#SVGID_15_)"/><path d="M21 34.3v-2h.4v2zm1.1.1h-.4v-2h.6c.1.3.1.6.2.9s.1.6.2.9v-1.8h.4v2h-.6c-.1-.3-.1-.6-.2-.9s-.1-.6-.2-.9zm1.7.1v-1.8h-.4v-.4c.4 0 .9 0 1.3.1v.4h-.4v1.8h-.2c-.2-.1-.3-.1-.3-.1m1.1 0v-2h1v.4h-.6v.6h.6v.4h-.6v.6h.6v.4c-.3-.4-.7-.4-1-.4m1.9.1c-.2 0-.4-.1-.5-.2 0-.1-.1-.1-.1-.3v-1.3c0-.1.1-.2.1-.2.1-.1.3-.2.5-.2s.4 0 .5.1.1.2.1.4v.1H27v-.3s-.1-.1-.2-.1-.1 0-.2.1c0 .1-.1.2-.1.4v.9c0 .1.1.1.2.1h.2v-.5h-.2v-.3h.6v1.2s-.3.1-.5.1m1-.1v-2h.6c.2 0 .4 0 .5.1s.1.2.1.4 0 .4-.1.4c0 0-.1.1-.2.1.1 0 .2 0 .3.1v.9h-.4V34c0-.1 0-.2-.1-.2 0 0-.1-.1-.2-.1h-.1v.8zm.4-1.1h.1c.1 0 .2 0 .2-.1 0 0 .1-.1.1-.2s0-.2-.1-.2c0 0-.1-.1-.2-.1h-.1zm1.1 1.1v-2h.4v2zm1.1-.1v-1.8H30v-.4c.4 0 .8 0 1.3-.1v.4h-.4v1.8h-.2c-.1.1-.2.1-.3.1m1.5-.8c-.1-.2-.2-.4-.2-.6-.1-.2-.2-.4-.2-.6h.4c0 .1.1.3.1.4s.1.3.1.4c0-.1.1-.3.1-.4s.1-.3.1-.4h.4c-.1.2-.2.4-.2.7-.1.2-.2.4-.2.7v.8h-.4zM7.8 29.9q-.15 0 0 0c-.1.3-.1.5-.2.5-.1.1-.3.1-.5 0s-.4-.2-.5-.3-.1-.4 0-.6c0-.2.1-.4.1-.6.1-.3.1-.5.3-.5.1-.1.3-.1.5 0s.4.2.4.3c.1.1.1.3.1.5v.1c-.1 0-.3-.1-.4-.1v-.4c0-.1-.1-.1-.1-.1h-.2c0 .1-.1.1-.1.3s-.1.4-.1.6v.4c0 .1.1.1.2.2h.2c0-.1.1-.1.1-.3v-.1c-.1 0 0 0 .2.1m.8 1c-.2-.1-.4-.2-.5-.3q-.15-.3 0-.6c0-.3.1-.6.2-.9 0-.2.1-.3.2-.4s.3-.1.5 0 .4.1.5.3c.1.1.1.3.1.5 0 .3-.1.6-.1.9s-.1.4-.2.5zm0-.3h.2s.1-.1.1-.3c0-.3.1-.6.1-.9v-.2c0-.1 0-.2-.1-.2h-.2s-.1.1-.1.2c-.1.3-.1.6-.1.9v.3c0 .1.1.1.1.2m2.4.2c0 .2-.1.4-.2.4-.1.1-.3.1-.5 0-.2 0-.4-.1-.5-.3-.1-.1-.1-.3-.1-.5 0-.3.1-.5.1-.8s.1-.5.1-.8h.4c0 .3-.1.5-.1.8s-.1.5-.1.8v.2s.1.1.2.1h.2s.1-.1.1-.2c0-.3.1-.5.1-.8s.1-.5.1-.8h.4c0 .3-.1.5-.1.8 0 .6 0 .8-.1 1.1m.3.7c.1-.4.1-.7.2-1.1s.1-.7.2-1.1h.2c.1 0 .3.1.4.1.2 0 .4.1.5.2s.1.3.1.5-.1.4-.2.4h-.2c.1 0 .2.1.3.2 0 .1.1.2 0 .3v.6h-.4v-.8c0-.1-.1-.1-.2-.1h-.1c0 .3-.1.6-.1.9h-.2c-.3-.1-.4-.1-.5-.1m.7-1.1h.3s.1-.1.1-.2V30s-.1-.1-.2-.1h-.1c-.1.1-.1.3-.1.5m.9 1.4c.1-.3.3-.7.4-1s.3-.7.4-1h.6c0 .4.1.7.1 1.1s.1.7.1 1.1h-.4v-.5c-.2 0-.3-.1-.5-.1-.1.1-.1.3-.2.4zm1-1.6-.3.9c.1 0 .2 0 .3.1zm1.4 2c-.2 0-.4-.1-.5-.3-.1-.1-.1-.4-.1-.7 0-.2 0-.3.1-.5q0-.45.3-.6c.1-.1.3-.2.6-.1.2 0 .4.1.5.2s.1.3.1.5v.1c-.1 0-.3 0-.4-.1v-.3c0-.1-.1-.1-.2-.1s-.2 0-.2.1-.1.2-.1.4 0 .3-.1.5v.5c0 .1.1.1.2.1h.2c0-.2 0-.3.1-.5h-.2v-.3c.2 0 .4.1.6.1 0 .2 0 .4-.1.5 0 .2 0 .4-.1.5zm1.1.1c0-.4.1-.7.1-1.1s.1-.7.1-1.1c.4 0 .7.1 1.1.1v.4c-.2 0-.4 0-.6-.1 0 .2 0 .4-.1.6.2 0 .4 0 .6.1v.4c-.2 0-.4 0-.6-.1 0 .2-.1.4-.1.6.2 0 .4 0 .6.1v.4c-.4-.2-.8-.3-1.1-.3m20 0c0-.4-.1-.7-.1-1.1s0-.7-.1-1.1h.4v.8h.4v-.8h.4c0 .4.1.7.1 1.1s.1.7.1 1.1h-.4v-1h-.4v1zm2.5-.3c-.3 0-.4 0-.6-.1-.1-.1-.2-.3-.2-.5v-.8c0-.2 0-.4.1-.5s.3-.2.5-.2.4 0 .5.1.2.2.2.4c0 .1 0 .3.1.4 0 .1 0 .3.1.4 0 .3 0 .5-.1.6-.2.1-.4.2-.6.2m-.1-.3c.1 0 .1-.1.2-.1v-.3c0-.1 0-.3-.1-.4 0-.1 0-.3-.1-.4 0-.1 0-.2-.1-.2 0 0-.1-.1-.2 0-.1 0-.1 0-.2.1v.6c0 .1 0 .3.1.4 0 .1 0 .2.1.3zm1.6 0H40c-.1-.3-.1-.7-.2-1 0-.3-.1-.7-.1-1 .1 0 .2 0 .3-.1.1 0 .2 0 .3-.1.1.3.2.6.3.8.1.3.2.6.3.8 0-.3-.1-.6-.1-.9s-.1-.6-.1-.9h.4c.1.3.1.7.2 1s.1.7.2 1c-.1 0-.2 0-.3.1-.1 0-.2 0-.3.1-.1-.3-.2-.6-.3-.8l-.3-.9c0 .3.1.6.1.9-.1.4-.1.7 0 1m2.1-.4c-.3.1-.4 0-.6 0-.1-.1-.2-.3-.3-.5 0-.1-.1-.3-.1-.4s0-.3-.1-.4c0-.2 0-.4.1-.5s.3-.2.5-.3.4 0 .5 0c.1.1.2.2.2.4 0 .1.1.3.1.4s.1.3.1.4c.1.3 0 .5 0 .6 0 .2-.2.2-.4.3m-.1-.3c.1 0 .1-.1.2-.1v-.3c0-.1-.1-.3-.1-.4s-.1-.3-.1-.4-.1-.2-.1-.2-.1-.1-.2 0c-.1 0-.1.1-.2.1v.2c0 .1.1.3.1.4s.1.3.1.4.1.2.1.3zm2.4-.9c0 .2 0 .4-.1.5s-.2.2-.5.3c-.2.1-.4.1-.5 0s-.2-.2-.3-.4-.1-.5-.2-.7-.1-.5-.2-.7c.1 0 .1 0 .2-.1.1 0 .1 0 .2-.1.1.3.1.5.2.8s.1.5.2.8c0 .1.1.2.1.2h.2c.1 0 .1-.1.2-.1v-.2c-.1-.3-.1-.5-.2-.8s-.1-.5-.2-.8c.1 0 .1 0 .2-.1.1 0 .1 0 .2-.1.1.2.1.5.2.7.1.3.2.5.3.8m.5.4c-.1-.3-.2-.7-.3-1s-.2-.7-.2-1c.1 0 .1 0 .2-.1.1 0 .3-.1.4-.1.2-.1.4-.1.5 0 .1 0 .2.2.2.4.1.2.1.4 0 .5 0 .1-.1.1-.2.2h.3c.1.1.1.2.2.3 0 .1 0 .2.1.3 0 .1 0 .2.1.2v.1c-.1 0-.1.1-.2.1s-.1.1-.2.1v-.1s0-.1-.1-.2c0-.1 0-.2-.1-.2 0-.1-.1-.2-.1-.2h-.3c0 .1.1.3.1.4s.1.3.1.4c-.1 0-.1 0-.2.1-.2-.2-.2-.2-.3-.2m.1-1.3h.1c.1 0 .2-.1.2-.1v-.3c0-.1-.1-.2-.1-.2h-.3c0 .2.1.4.1.6" class="st1"/><path d="M50.1 34.9c-.1.2-.2.3-.3.5s-.3.4-.4.6q-1.05 1.5-2.1 2.7l-.2.2c-3.9 4.3-8.8 5.8-12.3 6.8-1.9.6-3.4 1-4 1.7l.1.1c.5-.7 2-1.1 3.9-1.7.2-.1.4-.1.7-.2l-.1.1c0 .6.7 1.2 1.2 1.3.1 0 1.1.2 1-.2-.2-.9-1-1.4-1.9-1.3 3.4-1.1 7.9-2.7 11.5-6.6l.2-.2q1.05-1.2 2.1-2.7c.1-.2.3-.4.4-.6.1-.1.2-.3.3-.5.1 0 .3 0 .5-.2.2-.1.3-.3.4-.5.2-.4.4-1.2.2-1.7s-1 .4-1 .6c-.1.4-.4 1.4-.2 1.8m-1.9 5.8c-.7.7-1.6.6-2.1-.3-.2-.5.9-.8 1.2-.7.3 0 1.3.6.9 1m-11.7 3.8c-.2.4-1.1 1.3-1.3.5s.3-1.7 1.1-1.9c.1 0 .2 0 .2.1.2.4.2.9 0 1.3m-1.7.6c-.2.3-1.2 1.4-1.3.5-.2-.9.4-1.7 1.2-1.9.1 0 .2 0 .2.1.2.4.1.9-.1 1.3m1.2 2.3c.1.5-1 .2-1.2.2-.4-.2-1.6-1.2-.7-1.4.8-.2 1.7.3 1.9 1.2m-2.8-3.1c.4.9-.3 1.9-1.1 2.2-.4.2-.3-1-.2-1.2.2-.5.6-.9 1.1-1.1.1 0 .2 0 .2.1m1 3.8c-.9.3-1.8-.1-2.1-1-.1-.4 1-.4 1.2-.3.5.2.9.6 1 1.1 0 0 0 .2-.1.2m5.5-6.2c.3.8.1 1.8-.7 2.3-.7.4-.5-1.1-.4-1.4s.9-1.4 1.1-.9m1.2 3.9c-.8.4-1.7 0-2-.8s.9-.6 1.3-.4c.2.1 1.2 1 .7 1.2M38.2 44c-.2.4-1.1 1.4-1.2.5-.2-.8.2-1.7 1-2 .1 0 .2 0 .2.1.2.4.2.9 0 1.4m1.1 2.5c-.8.3-1.7-.2-2-1s1-.5 1.3-.3c.2.2 1.2 1.2.7 1.3m6.1-6.7c0 .3-.1.5-.2.7-.8 1.4-1-.3-.9-1 .1-.4.6-1.9.9-1 .2.4.2.8.2 1.3m1.5 1.9q0 .15 0 0c0 .2-.1.3-.2.4-.7.5-1.6.2-1.9-.6-.2-.5.9-.7 1.2-.6.4.2.7.5.9.8m-2.8-.9c-.1.2-.1.5-.3.7-.8 1.3-1-.4-.8-1.1.1-.4.7-1.8 1-.9.1.4.2.8.1 1.3m1.5 2c.2.4-.8.6-1.1.6-.5 0-1.6-.9-.8-1.3.7-.4 1.5 0 1.9.7m-3-2.5c.4.8.2 1.9-.5 2.5-.7.5-.6-1.1-.5-1.4 0-.3.6-1.5 1-1.1-.1-.1 0 0 0 0m1.4 3.9c-.8.6-1.8.2-2.1-.7-.2-.5 1.1-.5 1.3-.4.3 0 1.3.8.8 1.1m-2.8-1.7-.3.6c-.9 1.1-1-.5-.8-1.1.1-.4.8-1.6 1.1-.7q.3.6 0 1.2m1.3 2.5c-.8.4-1.6.1-2-.7-.3-.8.8-.7 1.3-.5.1.1 1.1 1 .7 1.2m7.3-10.8c0 .4 0 .9-.2 1.3-.4.8-.7-.7-.8-1-.1-.5-.1-1.5.3-1.8.3-.3.7 1.1.7 1.2zm1.8 1.6c.2.3-.4.8-.6.9-.6.3-1.8-.3-1.2-1 .5-.6 1.3-.6 1.8.1m-2.8-.1c0 .3 0 .6-.1.8-.5 1.5-.9.2-.9-.6 0-.5 0-1.5.4-1.8.3-.2.6 1.1.6 1.3zm1.8 1.8c.2.3-.4.8-.7.9-.6.2-1.8-.4-1.2-1 .6-.7 1.4-.6 1.9.1m-3.2-1.9c.5.8.6 1.9 0 2.7-.5.7-.7-.8-.7-1.1 0-.6.1-1.2.5-1.7 0 0 .1.1.2.1m2.1 3.7c-.6.8-1.6.7-2.1-.1-.3-.5.8-.8 1.1-.8.3-.1 1.3.5 1 .9m-2.8-.8c0 .3-.1.5-.2.8-.7 1.5-.9-.3-.9-1 0-.3.4-2 .9-1.1.1.4.2.8.2 1.3" class="st4"/><path d="M60.5 31.3v3.2l-2-3.2h-1.3v5.2h1.3v-3.2l2 3.2h1.3v-5.2zm3.3 2.6c0-.9.5-1.5 1.4-1.5.8 0 1.4.6 1.4 1.5s-.5 1.5-1.4 1.5-1.4-.6-1.4-1.5m4 0c0-1.6-1.2-2.7-2.6-2.7-1.5 0-2.6 1.1-2.6 2.7s1.2 2.7 2.6 2.7 2.6-1.1 2.6-2.7m.7-2.6h1.3v5.2h-1.3zm3.4 4.1v-3h.6c.9 0 1.5.6 1.5 1.5 0 1-.6 1.5-1.5 1.5zm.6-4.1h-1.9v5.2h1.9c1.6 0 2.7-1.1 2.7-2.6s-1-2.6-2.7-2.6m6.3 3.3h-1.3l.6-1.9zm.6 1.9h1.3l-1.9-5.2h-1.4l-1.9 5.2h1.3l.3-.9H79zm3.5-5.2h1.3v5.2h-1.3zm5.5 0v3.2l-2.1-3.2H85v5.2h1.3v-3.2l2.1 3.2h1.2v-5.2zm1.8 1h1.4v4.2h1.3v-4.2h1.3v-1h-4zm7.8-1h-3.2v5.2H98v-1h-1.9v-1.1h1.7v-1h-1.7v-1.1H98zm.8 0v5.2h1.3v-2h.3l1.1 2h1.4l-1.2-2.1c.8-.2 1.1-.9 1.1-1.5 0-.9-.6-1.7-1.9-1.7h-2.1zm2.7 1.7c0 .4-.2.7-.7.7h-.8v-1.3h.8c.5 0 .7.2.7.6m5.4-1.7v3.2l-2.1-3.2h-1.2v5.2h1.2v-3.2l2.1 3.2h1.3v-5.2zm5 3.3h-1.3l.6-1.9zm.7 1.9h1.3l-1.9-5.2h-1.4l-1.9 5.2h1.3l.3-.9h1.9zm1.6-4.2h1.3v4.2h1.3v-4.2h1.3v-1h-3.9zm4.6-1h1.3v5.2h-1.3zm3.2 2.6c0-.9.5-1.5 1.4-1.5.8 0 1.4.6 1.4 1.5s-.5 1.5-1.4 1.5-1.4-.6-1.4-1.5m4 0c0-1.6-1.2-2.7-2.6-2.7-1.5 0-2.6 1.1-2.6 2.7s1.2 2.7 2.6 2.7 2.6-1.1 2.6-2.7m4-2.6v3.2l-2.1-3.2h-1.2v5.2h1.2v-3.2l2.1 3.2h1.3v-5.2zm5.1 3.3h-1.3l.6-1.9zm.6 1.9h1.3l-1.9-5.2h-1.4l-1.9 5.2h1.3l.3-.9h1.9zm1.9-5.2v5.2h2.9v-1h-1.7v-4.2zM77.7 41.4c0 1.4.9 2.2 2.1 2.2s2.2-.7 2.2-2.2v-3.1h-1.3v3.1c0 .6-.3 1-.9 1s-.9-.4-.9-1v-3.1h-1.3v3.1zm8.6-3.1v3.2l-2.1-3.2h-1.3v5.2h1.3v-3.2l2.1 3.2h1.2v-5.2zm2.1 0h1.3v5.2h-1.3zm4.4 3.9-1.3-3.9h-1.3l1.8 5.2h1.6l1.8-5.2h-1.3zm6.2-3.9h-3.1v5.2H99v-1h-1.8v-1.2h1.6v-.9h-1.6v-1.1H99zm.9 0v5.2h1.3v-2h.3l1.1 2h1.4l-1.2-2.1c.8-.2 1.1-.9 1.1-1.5 0-.9-.6-1.7-1.9-1.7h-2.1zm2.7 1.7c0 .4-.2.7-.7.7h-.8v-1.3h.8c.5-.1.7.2.7.6m5.8 2c0-1.8-2.5-1.3-2.5-2.3 0-.3.2-.5.5-.5s.6.2.6.5h1.4c-.1-1-.8-1.6-1.9-1.6s-1.9.6-1.9 1.5c0 1.9 2.6 1.3 2.6 2.3 0 .3-.2.5-.6.5q-.6 0-.6-.6h-1.3c0 1.1.9 1.6 2 1.6 1 .2 1.7-.6 1.7-1.4m.7-3.7h1.3v5.2h-1.3zm1.9 1h1.4v4.2h1.2v-4.2h1.4v-1h-4zm6 2.5v1.7h1.2v-1.7l1.8-3.5h-1.4l-1 2.2-1-2.2h-1.4z" style="fill:#00703c"/><path d="M76.9 46.7h-1.6v2.9h1.6v-.3h-1.2v-1h1.1V48h-1.1v-1h1.2zm.6 2.9h.3v-2.2l1 2.2h.3l.9-2.2v2.2h.4v-2.9H80l-1.1 2.4-1-2.4h-.4zm5.4-2.1c0-.5-.3-.9-1-.9H81v2.9h.4v-1.2h.6c.6.1.9-.3.9-.8m-1.5.6V47h.6c.4 0 .6.2.6.5s-.2.5-.6.5h-.6zm2.2 0c0-.7.5-1.2 1.1-1.2s1.1.4 1.1 1.2c0 .7-.5 1.2-1.1 1.2s-1.1-.5-1.1-1.2m2.5 0c0-.9-.6-1.5-1.4-1.5s-1.4.6-1.4 1.5.6 1.5 1.4 1.5 1.4-.6 1.4-1.5m1.1 1.5h.4l.7-2.4.7 2.4h.4l.8-2.9h-.4l-.6 2.4-.7-2.4h-.4l-.7 2.4-.6-2.4h-.4zm5-2.9h-1.5v2.9h1.5v-.3H91v-1h1.1V48H91v-1h1.2zm.6 0v2.9h.4v-1.2h.5l.7 1.2h.4l-.8-1.2c.5-.1.7-.5.7-.8 0-.5-.3-.9-1-.9zm1.5.8c0 .3-.2.6-.6.6h-.6V47h.6c.4 0 .6.2.6.5m2.8 1v1.1h.3v-1.1l1-1.8H98l-.7 1.4-.8-1.4h-.4zm1.9-.4c0-.7.5-1.2 1.1-1.2s1.1.4 1.1 1.2c0 .7-.5 1.2-1.1 1.2s-1.1-.5-1.1-1.2m2.5 0c0-.9-.6-1.5-1.4-1.5s-1.4.6-1.4 1.5.6 1.5 1.4 1.5 1.4-.6 1.4-1.5m.5.4c0 .8.5 1.1 1.1 1.1s1.1-.3 1.1-1.1v-1.9h-.4v1.9c0 .5-.3.8-.7.8s-.7-.2-.7-.8v-1.9h-.4zm2.8-1.8v2.9h.4v-1.2h.5l.7 1.2h.4l-.7-1.2c.5-.1.7-.5.7-.8 0-.5-.3-.9-1-.9zm1.5.8c0 .3-.2.6-.6.6h-.6V47h.6c.5 0 .6.2.6.5m2.1 2.1h.4v-1.3h1V48h-1v-1h1.2v-.3h-1.6zm2.1-1.1c0 .8.5 1.1 1.1 1.1s1.1-.3 1.1-1.1v-1.9h-.4v1.9c0 .5-.3.8-.7.8s-.7-.2-.7-.8v-1.9h-.4zm2.6-1.5h.8v2.6h.3V47h.8v-.3h-1.9zm2.4 1.5c0 .8.5 1.1 1.1 1.1s1.1-.3 1.1-1.1v-1.9h-.4v1.9c0 .5-.3.8-.7.8s-.7-.2-.7-.8v-1.9h-.4zm2.8-1.8v2.9h.4v-1.2h.5l.7 1.2h.4l-.7-1.2c.5-.1.7-.5.7-.8 0-.5-.3-.9-1-.9zm1.5.8c0 .3-.2.6-.6.6h-.6V47h.6c.4 0 .6.2.6.5m2.5-.8h-1.5v2.9h1.5v-.3h-1.1v-1h1V48h-1v-1h1.1z" class="st1"/><path d="M68.2 47.8h5.9v.7h-5.9c-.2 0-.3-.2-.3-.3 0-.3.1-.4.3-.4m61.3 0h-5.9v.7h5.9c.2 0 .3-.2.3-.3 0-.3-.1-.4-.3-.4" style="fill-rule:evenodd;clip-rule:evenodd;fill:#2b2a29"/><path d="m89.5 27.6-8.6-7.4v7h-4.8V10.6h.4l8.7 7.4v-7H90v16.6zm3.2-.4V11h4.8v11.6h5.6v4.6zM104.8 11h4.8v16.2h-4.8zm20.9 16.6-8.6-7.4v7h-4.8V10.6h.4l8.7 7.4v-7h4.8v16.6zm3.2-.4V11h11.6v4.6h-6.9v1.6h6.3v3.7h-6.3v1.7h6.9v4.6z" style="fill:#e6a740"/><defs><path id="SVGID_16_" d="M66 11.1c4.3 0 7.8 3.6 7.8 8s-3.5 8-7.8 8-7.8-3.6-7.8-8 3.4-8 7.8-8"/></defs><clipPath id="SVGID_17_"><use xlink:href="#SVGID_16_" style="overflow:visible"/></clipPath><path d="M72.6 25.7c-1.7-1.7-4-2.8-6.6-2.8s-4.9 1.1-6.6 2.8-2.7 4.1-2.7 6.7 1 5 2.7 6.7 4 2.8 6.6 2.8 4.9-1.1 6.6-2.8 2.7-4.1 2.7-6.7-1.1-5-2.7-6.7M66 21.9c2.9 0 5.5 1.2 7.3 3.1 1.9 1.9 3 4.6 3 7.5s-1.2 5.6-3 7.5c-1.9 1.8-4.5 3-7.3 3-2.9 0-5.5-1.2-7.3-3.1-1.9-1.9-3-4.6-3-7.5s1.2-5.6 3-7.5 4.4-3 7.3-3" class="st16"/><path d="M66.5 25.6c1.7-1.7 2.7-4.1 2.7-6.7s-1-5-2.7-6.7-4-2.8-6.6-2.8-4.9 1.1-6.6 2.8-2.7 4.1-2.7 6.7 1 5 2.7 6.7 4 2.8 6.6 2.8 5-1.1 6.6-2.8m3.8-6.7c0 2.9-1.2 5.6-3 7.5-1.9 1.9-4.5 3.1-7.3 3.1-2.9 0-5.5-1.2-7.3-3.1-1.9-1.9-3-4.6-3-7.5s1.2-5.6 3-7.5c1.9-1.9 4.5-3.1 7.3-3.1 2.9 0 5.5 1.2 7.3 3.1s3 4.5 3 7.5" class="st16"/><path d="M78.6 25.6c1.7-1.7 2.7-4.1 2.7-6.7s-1-5-2.7-6.7-4-2.8-6.6-2.8-4.9 1.1-6.6 2.8-2.7 4.1-2.7 6.7 1 5 2.7 6.7 4 2.8 6.6 2.8c2.5 0 4.9-1.1 6.6-2.8m3.7-6.7c0 2.9-1.2 5.6-3 7.5-1.9 1.9-4.5 3.1-7.3 3.1-2.9 0-5.5-1.2-7.3-3.1-1.9-1.9-3-4.6-3-7.5s1.2-5.6 3-7.5c1.9-1.9 4.5-3.1 7.3-3.1 2.9 0 5.5 1.2 7.3 3.1 1.9 1.9 3 4.5 3 7.5" class="st16"/><path d="M45.5 18.3h40.8v1H45.5z" class="st16"/><path d="M65.4-2h1v41.7h-1z" class="st16"/><path d="M72.6-1.5c-1.7-1.7-4-2.8-6.6-2.8s-4.9 1.1-6.6 2.8-2.7 4.1-2.7 6.7 1 5 2.7 6.7 4 2.8 6.6 2.8 4.9-1.1 6.6-2.8 2.7-4.1 2.7-6.7-1.1-4.9-2.7-6.7M66-5.3c2.9 0 5.5 1.2 7.3 3.1 1.9 1.9 3 4.6 3 7.5s-1.2 5.6-3 7.5c-1.9 1.9-4.5 3.1-7.3 3.1-2.9 0-5.5-1.2-7.3-3.1-1.9-1.9-3-4.6-3-7.5s1.2-5.6 3-7.5 4.4-3.1 7.3-3.1" class="st16"/><ellipse cx="66" cy="19.1" rx="7.8" ry="8" style="fill:none;stroke:#e6a740;stroke-width:1.0321;stroke-miterlimit:22.9256"/><path d="M65.2 9.9h-.1M54.6 8.6 66 2.7l11.3 5.9-4.6 1.5v2.7h-.1c-.7-.8-1.5-1.4-2.4-1.9-.6-.3-1.3-.6-2-.8H64c-.7.2-1.4.5-2 .8-.9.5-1.7 1.2-2.4 1.9h-.1v-2.7L57 9.3v4.6c.4.1.7.5.7.9s-.2.7-.5.8v2.9H56v-2.9c-.3-.2-.5-.5-.5-.8 0-.5.3-.8.7-.9V9.1z" style="fill-rule:evenodd;clip-rule:evenodd;fill:#00703c"/></svg>