<svg xmlns="http://www.w3.org/2000/svg" width="150" height="40" viewBox="0 0 150 40"><title>FF37AB4F-096F-4664-ADAF-4797BCBC0224</title><g fill="none"><path fill="#1d1d1b" d="M45.681 2.007h1.823l1.607 5.245 1.733-5.267h1.482l1.748 5.267 1.6-5.245h1.785l-2.644 7.8h-1.482l-1.777-5.066-1.749 5.066h-1.481zm11.934 3.919a4.119 4.119 0 0 1 8.23 0 4.119 4.119 0 0 1-8.23 0m6.444 0a2.35 2.35 0 0 0-2.34-2.437A2.31 2.31 0 0 0 59.4 5.904a2.35 2.35 0 0 0 2.34 2.43 2.31 2.31 0 0 0 2.32-2.408m2.88-3.919h3.534a3.1 3.1 0 0 1 2.222.786 2.43 2.43 0 0 1 .66 1.77 2.4 2.4 0 0 1-1.66 2.4l1.897 2.763H71.6l-1.66-2.474h-1.333v2.474h-1.703zm3.43 3.763c.83 0 1.311-.444 1.311-1.096 0-.74-.51-1.104-1.34-1.104h-1.69v2.223zm5.993-3.763V8.2h3.86v1.548h-5.564v-7.74zm4.711 0h3.015A3.86 3.86 0 0 1 88.2 5.86a3.867 3.867 0 0 1-4.111 3.867h-3.015zm3.015 6.208a2.22 2.22 0 0 0 2.333-2.29 2.22 2.22 0 0 0-2.333-2.332H82.77v4.666zM46.667 20.57v-4.444h1.703v4.378c0 1.259.63 1.91 1.667 1.91s1.674-.629 1.674-1.851v-4.444h1.704v4.37c0 2.34-1.319 3.489-3.4 3.489s-3.348-1.126-3.348-3.408m8.073-4.422h1.556l3.623 4.763v-4.763H61.6v7.74h-1.481L56.37 18.97v4.919h-1.63zm8.334 0h1.704v7.74h-1.704zm2.496 0h1.882l2.022 5.452 2.022-5.452h1.837l-3.126 7.8h-1.481zm8.556 0H80v1.519h-4.14v1.592h3.644v1.482h-3.645v1.63H80v1.48h-5.926zm7.089 0h3.54a3.05 3.05 0 0 1 2.223.785 2.4 2.4 0 0 1 .666 1.77 2.4 2.4 0 0 1-1.659 2.4l1.89 2.764h-1.95l-1.658-2.474h-1.341v2.474h-1.704zm3.43 3.763c.83 0 1.303-.444 1.303-1.096 0-.74-.511-1.104-1.34-1.104h-1.69v2.222zm3.881 2.852 1.007-1.207a3.54 3.54 0 0 0 2.319.94c.696 0 1.118-.274 1.118-.74 0-.43-.266-.652-1.563-.978-1.555-.4-2.563-.83-2.563-2.37 0-1.4 1.126-2.334 2.712-2.334a4.5 4.5 0 0 1 2.866.963l-.889 1.282a3.6 3.6 0 0 0-2.007-.741c-.652 0-1 .296-1 .674 0 .511.333.674 1.674 1.022 1.57.407 2.452.97 2.452 2.319 0 1.533-1.17 2.4-2.845 2.4a4.9 4.9 0 0 1-3.281-1.23m7.244-6.615h1.704v7.74H95.77zm4.911 1.571h-2.355v-1.57h6.415v1.57h-2.356v6.17h-1.704zm7.467 3.118-2.963-4.689h1.993l1.844 3.111 1.882-3.11h1.933l-2.963 4.658v3.082h-1.726zm-61.481 9.459h3.54a3.1 3.1 0 0 1 2.223.785 2.43 2.43 0 0 1 .666 1.77 2.4 2.4 0 0 1-1.659 2.4l1.896 2.786h-1.97l-1.66-2.481h-1.34v2.474h-1.696zm3.422 3.778c.83 0 1.304-.444 1.304-1.096 0-.741-.512-1.104-1.334-1.104h-1.696v2.222zm6.948-3.83h1.57l3.319 7.793h-1.778l-.74-1.733h-3.245l-.74 1.733h-1.704zm1.785 4.57-1.044-2.525-1.008 2.526zm3.882-4.518h1.57l3.63 4.77v-4.77h1.681v7.741h-1.481l-3.748-4.918v4.918h-1.652zm10.036 0v3.385l3.141-3.385h2.06l-3.126 3.29 3.296 4.444h-2.044l-2.4-3.29-.897.927v2.363h-1.703v-7.734zm6.141 0h1.704v7.741h-1.704zm3.156 0h1.57l3.63 4.77v-4.77h1.652v7.741h-1.482l-3.703-4.918v4.918h-1.682zm7.993 3.897a3.97 3.97 0 0 1 4.051-4 4.23 4.23 0 0 1 3.045 1.059l-1.074 1.296a2.82 2.82 0 0 0-2.022-.785 2.32 2.32 0 0 0-2.223 2.407 2.31 2.31 0 0 0 2.341 2.452 2.76 2.76 0 0 0 1.608-.459v-1.111h-1.682V33.57h3.356v3.363a5 5 0 0 1-3.356 1.237 3.874 3.874 0 0 1-4.044-3.977m8.185 2.718 1.044-1.207a3.54 3.54 0 0 0 2.311.94c.697 0 1.119-.274 1.119-.74 0-.43-.267-.652-1.563-.985-1.556-.4-2.563-.83-2.563-2.37 0-1.408 1.126-2.334 2.711-2.334a4.44 4.44 0 0 1 2.874.978l-.889 1.288a3.56 3.56 0 0 0-2.007-.74c-.652 0-1 .296-1 .674 0 .504.333.674 1.674 1.015 1.57.407 2.452.97 2.452 2.318 0 1.54-1.17 2.4-2.845 2.4a4.9 4.9 0 0 1-3.318-1.237"/><path fill="#f7a600" d="M.007.007H40V40H.007z"/><path fill="#fff" d="M29.06 17.66c-2.697-.69-3.371-1.023-3.371-2.045v-.06c0-.74.696-1.362 2.007-1.362a7.3 7.3 0 0 1 4.06 1.54l1.777-2.585a9 9 0 0 0-5.792-1.985c-3.185 0-5.46 1.874-5.46 4.704v.044c0 3.096 2.03 3.963 5.186 4.763 2.607.674 3.14 1.119 3.14 1.985v.045c0 .91-.844 1.481-2.222 1.481a6.9 6.9 0 0 1-4.681-1.889l-.082-.074s-.222-.192-.37-.34a1 1 0 0 1-.17-.186 9.6 9.6 0 0 1-1.415 3.023l.392.325a9.98 9.98 0 0 0 6.208 2.156c3.363 0 5.726-1.74 5.726-4.837v-.044c.007-2.697-1.77-3.8-4.934-4.66"/><path fill="#fff" d="m25.519 29.711-8.4-6.822a4.904 4.904 0 1 1 1.644-3.63 4.84 4.84 0 0 1-.704 2.519l2.452 2.03a8.052 8.052 0 1 0-2.963 2.614l7.711 3.66z"/><path fill="#f7a600" d="M93.926 0h55.207v11.111H93.926zm24.807 14.444h30.393v11.111h-30.393zm-8.281 14.445h38.681V40h-38.681z"/></g></svg>