<svg xmlns="http://www.w3.org/2000/svg" width="988" height="514" viewBox="0 0 988 514" role="img" aria-label="Blog 15: B.Sc stream-wise career options">
<style>
  text { font-family: Inter, -apple-system, BlinkMacSystemFont, 'Segoe UI', sans-serif; }
  .th  { font-size: 13px; font-weight: 700; fill: #FFFFFF; }
  .td  { font-size: 12px; fill: #444444; }
  .ttl { font-size: 15px; font-weight: 700; fill: #111111; }
</style>
<rect width="988" height="514" rx="12" fill="#FFFFFF"/>
<rect x="22" y="64" width="944" height="428" rx="11" fill="#C8DDD0"/>
<text x="24" y="50" class="ttl">Blog 15: B.Sc stream-wise career options</text>
<rect x="24" y="66" width="940" height="44" fill="#1A6B2B"/>
<text x="38" y="92.5" class="th" fill="#FFFFFF">B.Sc Stream</text>
<line x1="156" y1="70" x2="156" y2="106" stroke="#FFFFFF44" stroke-width="1"/>
<text x="170" y="92.5" class="th" fill="#FFFFFF">Direct entry career options</text>
<line x1="399" y1="70" x2="399" y2="106" stroke="#FFFFFF44" stroke-width="1"/>
<text x="413" y="92.5" class="th" fill="#FFFFFF">Post-grad career boost</text>
<line x1="714" y1="70" x2="714" y2="106" stroke="#FFFFFF44" stroke-width="1"/>
<text x="728" y="92.5" class="th" fill="#FFFFFF">Starting salary range</text>
<rect x="24" y="110" width="940" height="56" fill="#FFFFFF"/>
<line x1="24" y1="110" x2="964" y2="110" stroke="#C8DDD0" stroke-width="1"/>
<text x="38" y="133.5" class="td" fill="#444444">Computer</text>
<text x="38" y="151.5" class="td" fill="#444444">Science / IT</text>
<line x1="156" y1="114" x2="156" y2="162" stroke="#C8DDD0" stroke-width="1"/>
<text x="170" y="133.5" class="td" fill="#444444">Software developer, IT</text>
<text x="170" y="151.5" class="td" fill="#444444">analyst, system admin</text>
<line x1="399" y1="114" x2="399" y2="162" stroke="#C8DDD0" stroke-width="1"/>
<text x="413" y="133.5" class="td" fill="#444444">M.Sc CS, MCA, MBA Analytics —</text>
<text x="413" y="151.5" class="td" fill="#444444">significant uplift</text>
<line x1="714" y1="114" x2="714" y2="162" stroke="#C8DDD0" stroke-width="1"/>
<text x="728" y="142.5" class="td" fill="#444444">Rs. 3–8 LPA</text>
<rect x="24" y="166" width="940" height="56" fill="#F4FAF6"/>
<line x1="24" y1="166" x2="964" y2="166" stroke="#C8DDD0" stroke-width="1"/>
<text x="38" y="189.5" class="td" fill="#444444">Mathematics /</text>
<text x="38" y="207.5" class="td" fill="#444444">Statistics</text>
<line x1="156" y1="170" x2="156" y2="218" stroke="#C8DDD0" stroke-width="1"/>
<text x="170" y="189.5" class="td" fill="#444444">Data analyst, actuarial</text>
<text x="170" y="207.5" class="td" fill="#444444">intern, teacher</text>
<line x1="399" y1="170" x2="399" y2="218" stroke="#C8DDD0" stroke-width="1"/>
<text x="413" y="198.5" class="td" fill="#444444">M.Sc Stats, MBA — very strong uplift</text>
<line x1="714" y1="170" x2="714" y2="218" stroke="#C8DDD0" stroke-width="1"/>
<text x="728" y="198.5" class="td" fill="#444444">Rs. 3–6 LPA</text>
<rect x="24" y="222" width="940" height="56" fill="#FFFFFF"/>
<line x1="24" y1="222" x2="964" y2="222" stroke="#C8DDD0" stroke-width="1"/>
<text x="38" y="254.5" class="td" fill="#444444">Physics</text>
<line x1="156" y1="226" x2="156" y2="274" stroke="#C8DDD0" stroke-width="1"/>
<text x="170" y="245.5" class="td" fill="#444444">Research, defense, ISRO,</text>
<text x="170" y="263.5" class="td" fill="#444444">DRDO, teaching</text>
<line x1="399" y1="226" x2="399" y2="274" stroke="#C8DDD0" stroke-width="1"/>
<text x="413" y="245.5" class="td" fill="#444444">M.Sc + NET for academic roles; M.Tech</text>
<text x="413" y="263.5" class="td" fill="#444444">for engineering</text>
<line x1="714" y1="226" x2="714" y2="274" stroke="#C8DDD0" stroke-width="1"/>
<text x="728" y="254.5" class="td" fill="#444444">Rs. 3–6 LPA</text>
<rect x="24" y="278" width="940" height="44" fill="#F4FAF6"/>
<line x1="24" y1="278" x2="964" y2="278" stroke="#C8DDD0" stroke-width="1"/>
<text x="38" y="304.5" class="td" fill="#444444">Chemistry</text>
<line x1="156" y1="282" x2="156" y2="318" stroke="#C8DDD0" stroke-width="1"/>
<text x="170" y="304.5" class="td" fill="#444444">QC analyst, pharma, teaching</text>
<line x1="399" y1="282" x2="399" y2="318" stroke="#C8DDD0" stroke-width="1"/>
<text x="413" y="304.5" class="td" fill="#444444">M.Sc Chemistry, M.Pharm, research roles</text>
<line x1="714" y1="282" x2="714" y2="318" stroke="#C8DDD0" stroke-width="1"/>
<text x="728" y="304.5" class="td" fill="#444444">Rs. 2.5–6 LPA</text>
<rect x="24" y="322" width="940" height="56" fill="#FFFFFF"/>
<line x1="24" y1="322" x2="964" y2="322" stroke="#C8DDD0" stroke-width="1"/>
<text x="38" y="345.5" class="td" fill="#444444">Biology / Life</text>
<text x="38" y="363.5" class="td" fill="#444444">Sciences</text>
<line x1="156" y1="326" x2="156" y2="374" stroke="#C8DDD0" stroke-width="1"/>
<text x="170" y="345.5" class="td" fill="#444444">Pharma, biotech, research</text>
<text x="170" y="363.5" class="td" fill="#444444">labs, teaching</text>
<line x1="399" y1="326" x2="399" y2="374" stroke="#C8DDD0" stroke-width="1"/>
<text x="413" y="345.5" class="td" fill="#444444">M.Sc + CSIR NET for strong research</text>
<text x="413" y="363.5" class="td" fill="#444444">roles</text>
<line x1="714" y1="326" x2="714" y2="374" stroke="#C8DDD0" stroke-width="1"/>
<text x="728" y="354.5" class="td" fill="#444444">Rs. 2.5–6 LPA</text>
<rect x="24" y="378" width="940" height="56" fill="#F4FAF6"/>
<line x1="24" y1="378" x2="964" y2="378" stroke="#C8DDD0" stroke-width="1"/>
<text x="38" y="410.5" class="td" fill="#444444">Biotechnology</text>
<line x1="156" y1="382" x2="156" y2="430" stroke="#C8DDD0" stroke-width="1"/>
<text x="170" y="401.5" class="td" fill="#444444">Pharma R&amp;D, biotech labs,</text>
<text x="170" y="419.5" class="td" fill="#444444">bioinformatics</text>
<line x1="399" y1="382" x2="399" y2="430" stroke="#C8DDD0" stroke-width="1"/>
<text x="413" y="401.5" class="td" fill="#444444">M.Sc Biotech or MBA — significant</text>
<text x="413" y="419.5" class="td" fill="#444444">salary jump</text>
<line x1="714" y1="382" x2="714" y2="430" stroke="#C8DDD0" stroke-width="1"/>
<text x="728" y="410.5" class="td" fill="#444444">Rs. 3–8 LPA</text>
<rect x="24" y="434" width="940" height="56" fill="#FFFFFF"/>
<line x1="24" y1="434" x2="964" y2="434" stroke="#C8DDD0" stroke-width="1"/>
<text x="38" y="466.5" class="td" fill="#444444">Nursing</text>
<line x1="156" y1="438" x2="156" y2="486" stroke="#C8DDD0" stroke-width="1"/>
<text x="170" y="457.5" class="td" fill="#444444">Registered nurse in</text>
<text x="170" y="475.5" class="td" fill="#444444">hospitals, clinics</text>
<line x1="399" y1="438" x2="399" y2="486" stroke="#C8DDD0" stroke-width="1"/>
<text x="413" y="457.5" class="td" fill="#444444">Abroad qualification (NMC, NCLEX) —</text>
<text x="413" y="475.5" class="td" fill="#444444">massive salary uplift</text>
<line x1="714" y1="438" x2="714" y2="486" stroke="#C8DDD0" stroke-width="1"/>
<text x="728" y="457.5" class="td" fill="#444444">Rs. 3–8 LPA (India); Rs. 20–60</text>
<text x="728" y="475.5" class="td" fill="#444444">LPA eq. abroad</text>
<rect x="24" y="66" width="940" height="424" rx="10" fill="none" stroke="#C8DDD0" stroke-width="1.5"/>
</svg>