<svg xmlns="http://www.w3.org/2000/svg" width="988" height="570" viewBox="0 0 988 570" role="img" aria-label="Blog 9: IAS rank-wise pay scale">
<style>
  text { font-family: Inter, -apple-system, BlinkMacSystemFont, 'Segoe UI', sans-serif; }
  .th  { font-size: 13px; font-weight: 700; fill: #FFFFFF; }
  .td  { font-size: 12px; fill: #444444; }
  .ttl { font-size: 15px; font-weight: 700; fill: #111111; }
</style>
<rect width="988" height="570" rx="12" fill="#FFFFFF"/>
<rect x="22" y="64" width="944" height="484" rx="11" fill="#C8DDD0"/>
<text x="24" y="50" class="ttl">Blog 9: IAS rank-wise pay scale</text>
<rect x="24" y="66" width="940" height="56" fill="#1A6B2B"/>
<text x="38" y="98.5" class="th" fill="#FFFFFF">Rank / Designation</text>
<line x1="404" y1="70" x2="404" y2="118" stroke="#FFFFFF44" stroke-width="1"/>
<text x="418" y="89.5" class="th" fill="#FFFFFF">Pay</text>
<text x="418" y="107.5" class="th" fill="#FFFFFF">Level</text>
<line x1="486" y1="70" x2="486" y2="118" stroke="#FFFFFF44" stroke-width="1"/>
<text x="500" y="98.5" class="th" fill="#FFFFFF">Basic Pay</text>
<line x1="595" y1="70" x2="595" y2="118" stroke="#FFFFFF44" stroke-width="1"/>
<text x="609" y="98.5" class="th" fill="#FFFFFF">Typical Year of Service</text>
<rect x="24" y="122" width="940" height="44" fill="#FFFFFF"/>
<line x1="24" y1="122" x2="964" y2="122" stroke="#C8DDD0" stroke-width="1"/>
<text x="38" y="148.5" class="td" fill="#444444">Junior Time Scale (SDM, Asst. Secretary)</text>
<line x1="404" y1="126" x2="404" y2="162" stroke="#C8DDD0" stroke-width="1"/>
<text x="418" y="148.5" class="td" fill="#444444">Level 10</text>
<line x1="486" y1="126" x2="486" y2="162" stroke="#C8DDD0" stroke-width="1"/>
<text x="500" y="148.5" class="td" fill="#444444">Rs. 56,100</text>
<line x1="595" y1="126" x2="595" y2="162" stroke="#C8DDD0" stroke-width="1"/>
<text x="609" y="148.5" class="td" fill="#444444">0–4 years</text>
<rect x="24" y="166" width="940" height="44" fill="#F4FAF6"/>
<line x1="24" y1="166" x2="964" y2="166" stroke="#C8DDD0" stroke-width="1"/>
<text x="38" y="192.5" class="td" fill="#444444">Senior Time Scale (Dy. Collector, Dy. Secretary)</text>
<line x1="404" y1="170" x2="404" y2="206" stroke="#C8DDD0" stroke-width="1"/>
<text x="418" y="192.5" class="td" fill="#444444">Level 11</text>
<line x1="486" y1="170" x2="486" y2="206" stroke="#C8DDD0" stroke-width="1"/>
<text x="500" y="192.5" class="td" fill="#444444">Rs. 67,700</text>
<line x1="595" y1="170" x2="595" y2="206" stroke="#C8DDD0" stroke-width="1"/>
<text x="609" y="192.5" class="td" fill="#444444">5–8 years</text>
<rect x="24" y="210" width="940" height="56" fill="#FFFFFF"/>
<line x1="24" y1="210" x2="964" y2="210" stroke="#C8DDD0" stroke-width="1"/>
<text x="38" y="233.5" class="td" fill="#444444">Junior Administrative Grade (ADM, Under</text>
<text x="38" y="251.5" class="td" fill="#444444">Secretary)</text>
<line x1="404" y1="214" x2="404" y2="262" stroke="#C8DDD0" stroke-width="1"/>
<text x="418" y="242.5" class="td" fill="#444444">Level 12</text>
<line x1="486" y1="214" x2="486" y2="262" stroke="#C8DDD0" stroke-width="1"/>
<text x="500" y="242.5" class="td" fill="#444444">Rs. 78,800</text>
<line x1="595" y1="214" x2="595" y2="262" stroke="#C8DDD0" stroke-width="1"/>
<text x="609" y="242.5" class="td" fill="#444444">9–12 years</text>
<rect x="24" y="266" width="940" height="56" fill="#F4FAF6"/>
<line x1="24" y1="266" x2="964" y2="266" stroke="#C8DDD0" stroke-width="1"/>
<text x="38" y="289.5" class="td" fill="#444444">Selection Grade (District Magistrate, Joint</text>
<text x="38" y="307.5" class="td" fill="#444444">Secretary)</text>
<line x1="404" y1="270" x2="404" y2="318" stroke="#C8DDD0" stroke-width="1"/>
<text x="418" y="298.5" class="td" fill="#444444">Level 13</text>
<line x1="486" y1="270" x2="486" y2="318" stroke="#C8DDD0" stroke-width="1"/>
<text x="500" y="289.5" class="td" fill="#444444">Rs.</text>
<text x="500" y="307.5" class="td" fill="#444444">1,18,500</text>
<line x1="595" y1="270" x2="595" y2="318" stroke="#C8DDD0" stroke-width="1"/>
<text x="609" y="298.5" class="td" fill="#444444">13–16 years</text>
<rect x="24" y="322" width="940" height="56" fill="#FFFFFF"/>
<line x1="24" y1="322" x2="964" y2="322" stroke="#C8DDD0" stroke-width="1"/>
<text x="38" y="345.5" class="td" fill="#444444">Super Time Scale (Commissioner, Senior Joint</text>
<text x="38" y="363.5" class="td" fill="#444444">Secretary)</text>
<line x1="404" y1="326" x2="404" y2="374" stroke="#C8DDD0" stroke-width="1"/>
<text x="418" y="354.5" class="td" fill="#444444">Level 14</text>
<line x1="486" y1="326" x2="486" y2="374" stroke="#C8DDD0" stroke-width="1"/>
<text x="500" y="345.5" class="td" fill="#444444">Rs.</text>
<text x="500" y="363.5" class="td" fill="#444444">1,44,200</text>
<line x1="595" y1="326" x2="595" y2="374" stroke="#C8DDD0" stroke-width="1"/>
<text x="609" y="354.5" class="td" fill="#444444">17–20 years</text>
<rect x="24" y="378" width="940" height="56" fill="#F4FAF6"/>
<line x1="24" y1="378" x2="964" y2="378" stroke="#C8DDD0" stroke-width="1"/>
<text x="38" y="401.5" class="td" fill="#444444">Higher Administrative Grade (Principal</text>
<text x="38" y="419.5" class="td" fill="#444444">Secretary, Addl. CS)</text>
<line x1="404" y1="382" x2="404" y2="430" stroke="#C8DDD0" stroke-width="1"/>
<text x="418" y="410.5" class="td" fill="#444444">Level 15</text>
<line x1="486" y1="382" x2="486" y2="430" stroke="#C8DDD0" stroke-width="1"/>
<text x="500" y="401.5" class="td" fill="#444444">Rs.</text>
<text x="500" y="419.5" class="td" fill="#444444">1,82,200</text>
<line x1="595" y1="382" x2="595" y2="430" stroke="#C8DDD0" stroke-width="1"/>
<text x="609" y="410.5" class="td" fill="#444444">25–28 years</text>
<rect x="24" y="434" width="940" height="56" fill="#FFFFFF"/>
<line x1="24" y1="434" x2="964" y2="434" stroke="#C8DDD0" stroke-width="1"/>
<text x="38" y="466.5" class="td" fill="#444444">Chief Secretary Level</text>
<line x1="404" y1="438" x2="404" y2="486" stroke="#C8DDD0" stroke-width="1"/>
<text x="418" y="466.5" class="td" fill="#444444">Level 17</text>
<line x1="486" y1="438" x2="486" y2="486" stroke="#C8DDD0" stroke-width="1"/>
<text x="500" y="457.5" class="td" fill="#444444">Rs.</text>
<text x="500" y="475.5" class="td" fill="#444444">2,25,000</text>
<line x1="595" y1="438" x2="595" y2="486" stroke="#C8DDD0" stroke-width="1"/>
<text x="609" y="466.5" class="td" fill="#444444">35+ years</text>
<rect x="24" y="490" width="940" height="56" fill="#F4FAF6"/>
<line x1="24" y1="490" x2="964" y2="490" stroke="#C8DDD0" stroke-width="1"/>
<text x="38" y="522.5" class="td" fill="#444444">Cabinet Secretary (highest bureaucratic post)</text>
<line x1="404" y1="494" x2="404" y2="542" stroke="#C8DDD0" stroke-width="1"/>
<text x="418" y="522.5" class="td" fill="#444444">Level 18</text>
<line x1="486" y1="494" x2="486" y2="542" stroke="#C8DDD0" stroke-width="1"/>
<text x="500" y="513.5" class="td" fill="#444444">Rs.</text>
<text x="500" y="531.5" class="td" fill="#444444">2,50,000</text>
<line x1="595" y1="494" x2="595" y2="542" stroke="#C8DDD0" stroke-width="1"/>
<text x="609" y="522.5" class="td" fill="#444444">37+ years</text>
<rect x="24" y="66" width="940" height="480" rx="10" fill="none" stroke="#C8DDD0" stroke-width="1.5"/>
</svg>