<svg xmlns="http://www.w3.org/2000/svg" width="988" height="410" viewBox="0 0 988 410" role="img" aria-label="Blog 18: LLM 1-year vs 2-year comparison">
<style>
  text { font-family: Inter, -apple-system, BlinkMacSystemFont, 'Segoe UI', sans-serif; }
  .th  { font-size: 13px; font-weight: 700; fill: #FFFFFF; }
  .td  { font-size: 12px; fill: #444444; }
  .ttl { font-size: 15px; font-weight: 700; fill: #111111; }
</style>
<rect width="988" height="410" rx="12" fill="#FFFFFF"/>
<rect x="22" y="64" width="944" height="324" rx="11" fill="#C8DDD0"/>
<text x="24" y="50" class="ttl">Blog 18: LLM 1-year vs 2-year comparison</text>
<rect x="24" y="66" width="940" height="44" fill="#1A6B2B"/>
<text x="38" y="92.5" class="th" fill="#FFFFFF">Parameter</text>
<line x1="142" y1="70" x2="142" y2="106" stroke="#FFFFFF44" stroke-width="1"/>
<text x="156" y="92.5" class="th" fill="#FFFFFF">1-Year LLM</text>
<line x1="522" y1="70" x2="522" y2="106" stroke="#FFFFFF44" stroke-width="1"/>
<text x="536" y="92.5" class="th" fill="#FFFFFF">2-Year LLM</text>
<rect x="24" y="110" width="940" height="44" fill="#FFFFFF"/>
<line x1="24" y1="110" x2="964" y2="110" stroke="#C8DDD0" stroke-width="1"/>
<text x="38" y="136.5" class="td" fill="#444444">Duration</text>
<line x1="142" y1="114" x2="142" y2="150" stroke="#C8DDD0" stroke-width="1"/>
<text x="156" y="136.5" class="td" fill="#444444">2 semesters (1 academic year)</text>
<line x1="522" y1="114" x2="522" y2="150" stroke="#C8DDD0" stroke-width="1"/>
<text x="536" y="136.5" class="td" fill="#444444">4 semesters (2 academic years)</text>
<rect x="24" y="154" width="940" height="44" fill="#F4FAF6"/>
<line x1="24" y1="154" x2="964" y2="154" stroke="#C8DDD0" stroke-width="1"/>
<text x="38" y="180.5" class="td" fill="#444444">Common at</text>
<line x1="142" y1="158" x2="142" y2="194" stroke="#C8DDD0" stroke-width="1"/>
<text x="156" y="180.5" class="td" fill="#444444">NLUs, some private law schools</text>
<line x1="522" y1="158" x2="522" y2="194" stroke="#C8DDD0" stroke-width="1"/>
<text x="536" y="180.5" class="td" fill="#444444">Most traditional universities (DU, BHU, Osmania)</text>
<rect x="24" y="198" width="940" height="44" fill="#FFFFFF"/>
<line x1="24" y1="198" x2="964" y2="198" stroke="#C8DDD0" stroke-width="1"/>
<text x="38" y="224.5" class="td" fill="#444444">Thesis</text>
<line x1="142" y1="202" x2="142" y2="238" stroke="#C8DDD0" stroke-width="1"/>
<text x="156" y="224.5" class="td" fill="#444444">Often optional or replaced by dissertation</text>
<line x1="522" y1="202" x2="522" y2="238" stroke="#C8DDD0" stroke-width="1"/>
<text x="536" y="224.5" class="td" fill="#444444">Usually required</text>
<rect x="24" y="242" width="940" height="44" fill="#F4FAF6"/>
<line x1="24" y1="242" x2="964" y2="242" stroke="#C8DDD0" stroke-width="1"/>
<text x="38" y="268.5" class="td" fill="#444444">Is it valid?</text>
<line x1="142" y1="246" x2="142" y2="282" stroke="#C8DDD0" stroke-width="1"/>
<text x="156" y="268.5" class="td" fill="#444444">Yes, if BCI and UGC approved</text>
<line x1="522" y1="246" x2="522" y2="282" stroke="#C8DDD0" stroke-width="1"/>
<text x="536" y="268.5" class="td" fill="#444444">Yes — standard format</text>
<rect x="24" y="286" width="940" height="44" fill="#FFFFFF"/>
<line x1="24" y1="286" x2="964" y2="286" stroke="#C8DDD0" stroke-width="1"/>
<text x="38" y="312.5" class="td" fill="#444444">Best for</text>
<line x1="142" y1="290" x2="142" y2="326" stroke="#C8DDD0" stroke-width="1"/>
<text x="156" y="312.5" class="td" fill="#444444">Experienced lawyers wanting quick specialization</text>
<line x1="522" y1="290" x2="522" y2="326" stroke="#C8DDD0" stroke-width="1"/>
<text x="536" y="312.5" class="td" fill="#444444">Fresh LLB graduates wanting deeper academic study</text>
<rect x="24" y="330" width="940" height="56" fill="#F4FAF6"/>
<line x1="24" y1="330" x2="964" y2="330" stroke="#C8DDD0" stroke-width="1"/>
<text x="38" y="353.5" class="td" fill="#444444">Fees</text>
<text x="38" y="371.5" class="td" fill="#444444">(approx.)</text>
<line x1="142" y1="334" x2="142" y2="382" stroke="#C8DDD0" stroke-width="1"/>
<text x="156" y="362.5" class="td" fill="#444444">Rs. 1–5 lakh total</text>
<line x1="522" y1="334" x2="522" y2="382" stroke="#C8DDD0" stroke-width="1"/>
<text x="536" y="362.5" class="td" fill="#444444">Rs. 1–8 lakh total (wide variation)</text>
<rect x="24" y="66" width="940" height="320" rx="10" fill="none" stroke="#C8DDD0" stroke-width="1.5"/>
</svg>