<svg xmlns="http://www.w3.org/2000/svg" width="988" height="1058" viewBox="0 0 988 1058" role="img" aria-label="Blog 7: All 21 IIMs in India">
<style>
  text { font-family: Inter, -apple-system, BlinkMacSystemFont, 'Segoe UI', sans-serif; }
  .th  { font-size: 13px; font-weight: 700; fill: #FFFFFF; }
  .td  { font-size: 12px; fill: #444444; }
  .ttl { font-size: 15px; font-weight: 700; fill: #111111; }
</style>
<rect width="988" height="1058" rx="12" fill="#FFFFFF"/>
<rect x="22" y="64" width="944" height="972" rx="11" fill="#C8DDD0"/>
<text x="24" y="50" class="ttl">Blog 7: All 21 IIMs in India</text>
<rect x="24" y="66" width="940" height="44" fill="#1A6B2B"/>
<text x="38" y="92.5" class="th" fill="#FFFFFF">IIM</text>
<line x1="286" y1="70" x2="286" y2="106" stroke="#FFFFFF44" stroke-width="1"/>
<text x="300" y="92.5" class="th" fill="#FFFFFF">Location</text>
<line x1="507" y1="70" x2="507" y2="106" stroke="#FFFFFF44" stroke-width="1"/>
<text x="521" y="92.5" class="th" fill="#FFFFFF">Year Est.</text>
<line x1="742" y1="70" x2="742" y2="106" stroke="#FFFFFF44" stroke-width="1"/>
<text x="756" y="92.5" class="th" fill="#FFFFFF">Category</text>
<rect x="24" y="110" width="940" height="44" fill="#FFFFFF"/>
<line x1="24" y1="110" x2="964" y2="110" stroke="#C8DDD0" stroke-width="1"/>
<text x="38" y="136.5" class="td" fill="#444444">IIM Ahmedabad</text>
<line x1="286" y1="114" x2="286" y2="150" stroke="#C8DDD0" stroke-width="1"/>
<text x="300" y="136.5" class="td" fill="#444444">Gujarat</text>
<line x1="507" y1="114" x2="507" y2="150" stroke="#C8DDD0" stroke-width="1"/>
<text x="521" y="136.5" class="td" fill="#444444">1961</text>
<line x1="742" y1="114" x2="742" y2="150" stroke="#C8DDD0" stroke-width="1"/>
<text x="756" y="136.5" class="td" fill="#444444">Old IIM (BLACKI)</text>
<rect x="24" y="154" width="940" height="44" fill="#F4FAF6"/>
<line x1="24" y1="154" x2="964" y2="154" stroke="#C8DDD0" stroke-width="1"/>
<text x="38" y="180.5" class="td" fill="#444444">IIM Calcutta</text>
<line x1="286" y1="158" x2="286" y2="194" stroke="#C8DDD0" stroke-width="1"/>
<text x="300" y="180.5" class="td" fill="#444444">West Bengal</text>
<line x1="507" y1="158" x2="507" y2="194" stroke="#C8DDD0" stroke-width="1"/>
<text x="521" y="180.5" class="td" fill="#444444">1961</text>
<line x1="742" y1="158" x2="742" y2="194" stroke="#C8DDD0" stroke-width="1"/>
<text x="756" y="180.5" class="td" fill="#444444">Old IIM (BLACKI)</text>
<rect x="24" y="198" width="940" height="44" fill="#FFFFFF"/>
<line x1="24" y1="198" x2="964" y2="198" stroke="#C8DDD0" stroke-width="1"/>
<text x="38" y="224.5" class="td" fill="#444444">IIM Bangalore</text>
<line x1="286" y1="202" x2="286" y2="238" stroke="#C8DDD0" stroke-width="1"/>
<text x="300" y="224.5" class="td" fill="#444444">Karnataka</text>
<line x1="507" y1="202" x2="507" y2="238" stroke="#C8DDD0" stroke-width="1"/>
<text x="521" y="224.5" class="td" fill="#444444">1973</text>
<line x1="742" y1="202" x2="742" y2="238" stroke="#C8DDD0" stroke-width="1"/>
<text x="756" y="224.5" class="td" fill="#444444">Old IIM (BLACKI)</text>
<rect x="24" y="242" width="940" height="44" fill="#F4FAF6"/>
<line x1="24" y1="242" x2="964" y2="242" stroke="#C8DDD0" stroke-width="1"/>
<text x="38" y="268.5" class="td" fill="#444444">IIM Lucknow</text>
<line x1="286" y1="246" x2="286" y2="282" stroke="#C8DDD0" stroke-width="1"/>
<text x="300" y="268.5" class="td" fill="#444444">Uttar Pradesh</text>
<line x1="507" y1="246" x2="507" y2="282" stroke="#C8DDD0" stroke-width="1"/>
<text x="521" y="268.5" class="td" fill="#444444">1984</text>
<line x1="742" y1="246" x2="742" y2="282" stroke="#C8DDD0" stroke-width="1"/>
<text x="756" y="268.5" class="td" fill="#444444">Old IIM (BLACKI)</text>
<rect x="24" y="286" width="940" height="44" fill="#FFFFFF"/>
<line x1="24" y1="286" x2="964" y2="286" stroke="#C8DDD0" stroke-width="1"/>
<text x="38" y="312.5" class="td" fill="#444444">IIM Kozhikode</text>
<line x1="286" y1="290" x2="286" y2="326" stroke="#C8DDD0" stroke-width="1"/>
<text x="300" y="312.5" class="td" fill="#444444">Kerala</text>
<line x1="507" y1="290" x2="507" y2="326" stroke="#C8DDD0" stroke-width="1"/>
<text x="521" y="312.5" class="td" fill="#444444">1996</text>
<line x1="742" y1="290" x2="742" y2="326" stroke="#C8DDD0" stroke-width="1"/>
<text x="756" y="312.5" class="td" fill="#444444">Old IIM (BLACKI)</text>
<rect x="24" y="330" width="940" height="44" fill="#F4FAF6"/>
<line x1="24" y1="330" x2="964" y2="330" stroke="#C8DDD0" stroke-width="1"/>
<text x="38" y="356.5" class="td" fill="#444444">IIM Indore</text>
<line x1="286" y1="334" x2="286" y2="370" stroke="#C8DDD0" stroke-width="1"/>
<text x="300" y="356.5" class="td" fill="#444444">Madhya Pradesh</text>
<line x1="507" y1="334" x2="507" y2="370" stroke="#C8DDD0" stroke-width="1"/>
<text x="521" y="356.5" class="td" fill="#444444">1996</text>
<line x1="742" y1="334" x2="742" y2="370" stroke="#C8DDD0" stroke-width="1"/>
<text x="756" y="356.5" class="td" fill="#444444">Old IIM (BLACKI)</text>
<rect x="24" y="374" width="940" height="44" fill="#FFFFFF"/>
<line x1="24" y1="374" x2="964" y2="374" stroke="#C8DDD0" stroke-width="1"/>
<text x="38" y="400.5" class="td" fill="#444444">IIM Shillong</text>
<line x1="286" y1="378" x2="286" y2="414" stroke="#C8DDD0" stroke-width="1"/>
<text x="300" y="400.5" class="td" fill="#444444">Meghalaya</text>
<line x1="507" y1="378" x2="507" y2="414" stroke="#C8DDD0" stroke-width="1"/>
<text x="521" y="400.5" class="td" fill="#444444">2007</text>
<line x1="742" y1="378" x2="742" y2="414" stroke="#C8DDD0" stroke-width="1"/>
<text x="756" y="400.5" class="td" fill="#444444">New IIM</text>
<rect x="24" y="418" width="940" height="44" fill="#F4FAF6"/>
<line x1="24" y1="418" x2="964" y2="418" stroke="#C8DDD0" stroke-width="1"/>
<text x="38" y="444.5" class="td" fill="#444444">IIM Rohtak</text>
<line x1="286" y1="422" x2="286" y2="458" stroke="#C8DDD0" stroke-width="1"/>
<text x="300" y="444.5" class="td" fill="#444444">Haryana</text>
<line x1="507" y1="422" x2="507" y2="458" stroke="#C8DDD0" stroke-width="1"/>
<text x="521" y="444.5" class="td" fill="#444444">2009</text>
<line x1="742" y1="422" x2="742" y2="458" stroke="#C8DDD0" stroke-width="1"/>
<text x="756" y="444.5" class="td" fill="#444444">New IIM</text>
<rect x="24" y="462" width="940" height="44" fill="#FFFFFF"/>
<line x1="24" y1="462" x2="964" y2="462" stroke="#C8DDD0" stroke-width="1"/>
<text x="38" y="488.5" class="td" fill="#444444">IIM Raipur</text>
<line x1="286" y1="466" x2="286" y2="502" stroke="#C8DDD0" stroke-width="1"/>
<text x="300" y="488.5" class="td" fill="#444444">Chhattisgarh</text>
<line x1="507" y1="466" x2="507" y2="502" stroke="#C8DDD0" stroke-width="1"/>
<text x="521" y="488.5" class="td" fill="#444444">2009</text>
<line x1="742" y1="466" x2="742" y2="502" stroke="#C8DDD0" stroke-width="1"/>
<text x="756" y="488.5" class="td" fill="#444444">New IIM</text>
<rect x="24" y="506" width="940" height="44" fill="#F4FAF6"/>
<line x1="24" y1="506" x2="964" y2="506" stroke="#C8DDD0" stroke-width="1"/>
<text x="38" y="532.5" class="td" fill="#444444">IIM Ranchi</text>
<line x1="286" y1="510" x2="286" y2="546" stroke="#C8DDD0" stroke-width="1"/>
<text x="300" y="532.5" class="td" fill="#444444">Jharkhand</text>
<line x1="507" y1="510" x2="507" y2="546" stroke="#C8DDD0" stroke-width="1"/>
<text x="521" y="532.5" class="td" fill="#444444">2010</text>
<line x1="742" y1="510" x2="742" y2="546" stroke="#C8DDD0" stroke-width="1"/>
<text x="756" y="532.5" class="td" fill="#444444">New IIM</text>
<rect x="24" y="550" width="940" height="44" fill="#FFFFFF"/>
<line x1="24" y1="550" x2="964" y2="550" stroke="#C8DDD0" stroke-width="1"/>
<text x="38" y="576.5" class="td" fill="#444444">IIM Kashipur</text>
<line x1="286" y1="554" x2="286" y2="590" stroke="#C8DDD0" stroke-width="1"/>
<text x="300" y="576.5" class="td" fill="#444444">Uttarakhand</text>
<line x1="507" y1="554" x2="507" y2="590" stroke="#C8DDD0" stroke-width="1"/>
<text x="521" y="576.5" class="td" fill="#444444">2011</text>
<line x1="742" y1="554" x2="742" y2="590" stroke="#C8DDD0" stroke-width="1"/>
<text x="756" y="576.5" class="td" fill="#444444">New IIM</text>
<rect x="24" y="594" width="940" height="44" fill="#F4FAF6"/>
<line x1="24" y1="594" x2="964" y2="594" stroke="#C8DDD0" stroke-width="1"/>
<text x="38" y="620.5" class="td" fill="#444444">IIM Tiruchirappalli</text>
<line x1="286" y1="598" x2="286" y2="634" stroke="#C8DDD0" stroke-width="1"/>
<text x="300" y="620.5" class="td" fill="#444444">Tamil Nadu</text>
<line x1="507" y1="598" x2="507" y2="634" stroke="#C8DDD0" stroke-width="1"/>
<text x="521" y="620.5" class="td" fill="#444444">2011</text>
<line x1="742" y1="598" x2="742" y2="634" stroke="#C8DDD0" stroke-width="1"/>
<text x="756" y="620.5" class="td" fill="#444444">New IIM</text>
<rect x="24" y="638" width="940" height="44" fill="#FFFFFF"/>
<line x1="24" y1="638" x2="964" y2="638" stroke="#C8DDD0" stroke-width="1"/>
<text x="38" y="664.5" class="td" fill="#444444">IIM Udaipur</text>
<line x1="286" y1="642" x2="286" y2="678" stroke="#C8DDD0" stroke-width="1"/>
<text x="300" y="664.5" class="td" fill="#444444">Rajasthan</text>
<line x1="507" y1="642" x2="507" y2="678" stroke="#C8DDD0" stroke-width="1"/>
<text x="521" y="664.5" class="td" fill="#444444">2011</text>
<line x1="742" y1="642" x2="742" y2="678" stroke="#C8DDD0" stroke-width="1"/>
<text x="756" y="664.5" class="td" fill="#444444">New IIM</text>
<rect x="24" y="682" width="940" height="44" fill="#F4FAF6"/>
<line x1="24" y1="682" x2="964" y2="682" stroke="#C8DDD0" stroke-width="1"/>
<text x="38" y="708.5" class="td" fill="#444444">IIM Nagpur</text>
<line x1="286" y1="686" x2="286" y2="722" stroke="#C8DDD0" stroke-width="1"/>
<text x="300" y="708.5" class="td" fill="#444444">Maharashtra</text>
<line x1="507" y1="686" x2="507" y2="722" stroke="#C8DDD0" stroke-width="1"/>
<text x="521" y="708.5" class="td" fill="#444444">2015</text>
<line x1="742" y1="686" x2="742" y2="722" stroke="#C8DDD0" stroke-width="1"/>
<text x="756" y="708.5" class="td" fill="#444444">Baby IIM</text>
<rect x="24" y="726" width="940" height="44" fill="#FFFFFF"/>
<line x1="24" y1="726" x2="964" y2="726" stroke="#C8DDD0" stroke-width="1"/>
<text x="38" y="752.5" class="td" fill="#444444">IIM Visakhapatnam</text>
<line x1="286" y1="730" x2="286" y2="766" stroke="#C8DDD0" stroke-width="1"/>
<text x="300" y="752.5" class="td" fill="#444444">Andhra Pradesh</text>
<line x1="507" y1="730" x2="507" y2="766" stroke="#C8DDD0" stroke-width="1"/>
<text x="521" y="752.5" class="td" fill="#444444">2015</text>
<line x1="742" y1="730" x2="742" y2="766" stroke="#C8DDD0" stroke-width="1"/>
<text x="756" y="752.5" class="td" fill="#444444">Baby IIM</text>
<rect x="24" y="770" width="940" height="44" fill="#F4FAF6"/>
<line x1="24" y1="770" x2="964" y2="770" stroke="#C8DDD0" stroke-width="1"/>
<text x="38" y="796.5" class="td" fill="#444444">IIM Bodh Gaya</text>
<line x1="286" y1="774" x2="286" y2="810" stroke="#C8DDD0" stroke-width="1"/>
<text x="300" y="796.5" class="td" fill="#444444">Bihar</text>
<line x1="507" y1="774" x2="507" y2="810" stroke="#C8DDD0" stroke-width="1"/>
<text x="521" y="796.5" class="td" fill="#444444">2015</text>
<line x1="742" y1="774" x2="742" y2="810" stroke="#C8DDD0" stroke-width="1"/>
<text x="756" y="796.5" class="td" fill="#444444">Baby IIM</text>
<rect x="24" y="814" width="940" height="44" fill="#FFFFFF"/>
<line x1="24" y1="814" x2="964" y2="814" stroke="#C8DDD0" stroke-width="1"/>
<text x="38" y="840.5" class="td" fill="#444444">IIM Amritsar</text>
<line x1="286" y1="818" x2="286" y2="854" stroke="#C8DDD0" stroke-width="1"/>
<text x="300" y="840.5" class="td" fill="#444444">Punjab</text>
<line x1="507" y1="818" x2="507" y2="854" stroke="#C8DDD0" stroke-width="1"/>
<text x="521" y="840.5" class="td" fill="#444444">2015</text>
<line x1="742" y1="818" x2="742" y2="854" stroke="#C8DDD0" stroke-width="1"/>
<text x="756" y="840.5" class="td" fill="#444444">Baby IIM</text>
<rect x="24" y="858" width="940" height="44" fill="#F4FAF6"/>
<line x1="24" y1="858" x2="964" y2="858" stroke="#C8DDD0" stroke-width="1"/>
<text x="38" y="884.5" class="td" fill="#444444">IIM Sambalpur</text>
<line x1="286" y1="862" x2="286" y2="898" stroke="#C8DDD0" stroke-width="1"/>
<text x="300" y="884.5" class="td" fill="#444444">Odisha</text>
<line x1="507" y1="862" x2="507" y2="898" stroke="#C8DDD0" stroke-width="1"/>
<text x="521" y="884.5" class="td" fill="#444444">2015</text>
<line x1="742" y1="862" x2="742" y2="898" stroke="#C8DDD0" stroke-width="1"/>
<text x="756" y="884.5" class="td" fill="#444444">Baby IIM</text>
<rect x="24" y="902" width="940" height="44" fill="#FFFFFF"/>
<line x1="24" y1="902" x2="964" y2="902" stroke="#C8DDD0" stroke-width="1"/>
<text x="38" y="928.5" class="td" fill="#444444">IIM Sirmaur</text>
<line x1="286" y1="906" x2="286" y2="942" stroke="#C8DDD0" stroke-width="1"/>
<text x="300" y="928.5" class="td" fill="#444444">Himachal Pradesh</text>
<line x1="507" y1="906" x2="507" y2="942" stroke="#C8DDD0" stroke-width="1"/>
<text x="521" y="928.5" class="td" fill="#444444">2015</text>
<line x1="742" y1="906" x2="742" y2="942" stroke="#C8DDD0" stroke-width="1"/>
<text x="756" y="928.5" class="td" fill="#444444">Baby IIM</text>
<rect x="24" y="946" width="940" height="44" fill="#F4FAF6"/>
<line x1="24" y1="946" x2="964" y2="946" stroke="#C8DDD0" stroke-width="1"/>
<text x="38" y="972.5" class="td" fill="#444444">IIM Jammu</text>
<line x1="286" y1="950" x2="286" y2="986" stroke="#C8DDD0" stroke-width="1"/>
<text x="300" y="972.5" class="td" fill="#444444">J&amp;K</text>
<line x1="507" y1="950" x2="507" y2="986" stroke="#C8DDD0" stroke-width="1"/>
<text x="521" y="972.5" class="td" fill="#444444">2016</text>
<line x1="742" y1="950" x2="742" y2="986" stroke="#C8DDD0" stroke-width="1"/>
<text x="756" y="972.5" class="td" fill="#444444">Baby IIM</text>
<rect x="24" y="990" width="940" height="44" fill="#FFFFFF"/>
<line x1="24" y1="990" x2="964" y2="990" stroke="#C8DDD0" stroke-width="1"/>
<text x="38" y="1016.5" class="td" fill="#444444">IIM Mumbai</text>
<line x1="286" y1="994" x2="286" y2="1030" stroke="#C8DDD0" stroke-width="1"/>
<text x="300" y="1016.5" class="td" fill="#444444">Maharashtra</text>
<line x1="507" y1="994" x2="507" y2="1030" stroke="#C8DDD0" stroke-width="1"/>
<text x="521" y="1016.5" class="td" fill="#444444">2023 (from NITIE)</text>
<line x1="742" y1="994" x2="742" y2="1030" stroke="#C8DDD0" stroke-width="1"/>
<text x="756" y="1016.5" class="td" fill="#444444">New Addition</text>
<rect x="24" y="66" width="940" height="968" rx="10" fill="none" stroke="#C8DDD0" stroke-width="1.5"/>
</svg>