<svg xmlns="http://www.w3.org/2000/svg" width="988" height="266" viewBox="0 0 988 266" role="img" aria-label="Blog 4: Resume format comparison">
<style>
  text { font-family: Inter, -apple-system, BlinkMacSystemFont, 'Segoe UI', sans-serif; }
  .th  { font-size: 13px; font-weight: 700; fill: #FFFFFF; }
  .td  { font-size: 12px; fill: #444444; }
  .ttl { font-size: 15px; font-weight: 700; fill: #111111; }
</style>
<rect width="988" height="266" rx="12" fill="#FFFFFF"/>
<rect x="22" y="64" width="944" height="180" rx="11" fill="#C8DDD0"/>
<text x="24" y="50" class="ttl">Blog 4: Resume format comparison</text>
<rect x="24" y="66" width="940" height="44" fill="#1A6B2B"/>
<text x="38" y="92.5" class="th" fill="#FFFFFF">Format</text>
<line x1="226" y1="70" x2="226" y2="106" stroke="#FFFFFF44" stroke-width="1"/>
<text x="240" y="92.5" class="th" fill="#FFFFFF">Best for</text>
<line x1="478" y1="70" x2="478" y2="106" stroke="#FFFFFF44" stroke-width="1"/>
<text x="492" y="92.5" class="th" fill="#FFFFFF">Focus</text>
<rect x="24" y="110" width="940" height="44" fill="#FFFFFF"/>
<line x1="24" y1="110" x2="964" y2="110" stroke="#C8DDD0" stroke-width="1"/>
<text x="38" y="136.5" class="td" fill="#444444">Career objective</text>
<line x1="226" y1="114" x2="226" y2="150" stroke="#C8DDD0" stroke-width="1"/>
<text x="240" y="136.5" class="td" fill="#444444">Freshers, career changers</text>
<line x1="478" y1="114" x2="478" y2="150" stroke="#C8DDD0" stroke-width="1"/>
<text x="492" y="136.5" class="td" fill="#444444">What you want and can offer — forward-looking</text>
<rect x="24" y="154" width="940" height="44" fill="#F4FAF6"/>
<line x1="24" y1="154" x2="964" y2="154" stroke="#C8DDD0" stroke-width="1"/>
<text x="38" y="180.5" class="td" fill="#444444">Resume summary</text>
<line x1="226" y1="158" x2="226" y2="194" stroke="#C8DDD0" stroke-width="1"/>
<text x="240" y="180.5" class="td" fill="#444444">2+ years experience</text>
<line x1="478" y1="158" x2="478" y2="194" stroke="#C8DDD0" stroke-width="1"/>
<text x="492" y="180.5" class="td" fill="#444444">What you have done — backward-looking</text>
<rect x="24" y="198" width="940" height="44" fill="#FFFFFF"/>
<line x1="24" y1="198" x2="964" y2="198" stroke="#C8DDD0" stroke-width="1"/>
<text x="38" y="224.5" class="td" fill="#444444">Professional profile</text>
<line x1="226" y1="202" x2="226" y2="238" stroke="#C8DDD0" stroke-width="1"/>
<text x="240" y="224.5" class="td" fill="#444444">Senior roles</text>
<line x1="478" y1="202" x2="478" y2="238" stroke="#C8DDD0" stroke-width="1"/>
<text x="492" y="224.5" class="td" fill="#444444">Who you are as a professional — identity-focused</text>
<rect x="24" y="66" width="940" height="176" rx="10" fill="none" stroke="#C8DDD0" stroke-width="1.5"/>
</svg>