<svg xmlns="http://www.w3.org/2000/svg" width="988" height="658" viewBox="0 0 988 658" role="img" aria-label="Blog 14: Commerce careers and salary">
<style>
  text { font-family: Inter, -apple-system, BlinkMacSystemFont, 'Segoe UI', sans-serif; }
  .th  { font-size: 13px; font-weight: 700; fill: #FFFFFF; }
  .td  { font-size: 12px; fill: #444444; }
  .ttl { font-size: 15px; font-weight: 700; fill: #111111; }
</style>
<rect width="988" height="658" rx="12" fill="#FFFFFF"/>
<rect x="22" y="64" width="944" height="572" rx="11" fill="#C8DDD0"/>
<text x="24" y="50" class="ttl">Blog 14: Commerce careers and salary</text>
<rect x="24" y="66" width="940" height="44" fill="#1A6B2B"/>
<text x="38" y="92.5" class="th" fill="#FFFFFF">Career</text>
<line x1="245" y1="70" x2="245" y2="106" stroke="#FFFFFF44" stroke-width="1"/>
<text x="259" y="92.5" class="th" fill="#FFFFFF">Qualification needed</text>
<line x1="473" y1="70" x2="473" y2="106" stroke="#FFFFFF44" stroke-width="1"/>
<text x="487" y="92.5" class="th" fill="#FFFFFF">Salary (LPA)</text>
<line x1="742" y1="70" x2="742" y2="106" stroke="#FFFFFF44" stroke-width="1"/>
<text x="756" y="92.5" class="th" fill="#FFFFFF">Sector</text>
<rect x="24" y="110" width="940" height="56" fill="#FFFFFF"/>
<line x1="24" y1="110" x2="964" y2="110" stroke="#C8DDD0" stroke-width="1"/>
<text x="38" y="142.5" class="td" fill="#444444">Chartered Accountant (CA)</text>
<line x1="245" y1="114" x2="245" y2="162" stroke="#C8DDD0" stroke-width="1"/>
<text x="259" y="142.5" class="td" fill="#444444">B.Com + CA Final (ICAI)</text>
<line x1="473" y1="114" x2="473" y2="162" stroke="#C8DDD0" stroke-width="1"/>
<text x="487" y="133.5" class="td" fill="#444444">Rs. 7–30 LPA; Rs. 60 LPA+ partner</text>
<text x="487" y="151.5" class="td" fill="#444444">level</text>
<line x1="742" y1="114" x2="742" y2="162" stroke="#C8DDD0" stroke-width="1"/>
<text x="756" y="133.5" class="td" fill="#444444">Finance, audit, tax,</text>
<text x="756" y="151.5" class="td" fill="#444444">consulting</text>
<rect x="24" y="166" width="940" height="56" fill="#F4FAF6"/>
<line x1="24" y1="166" x2="964" y2="166" stroke="#C8DDD0" stroke-width="1"/>
<text x="38" y="198.5" class="td" fill="#444444">Investment Banker</text>
<line x1="245" y1="170" x2="245" y2="218" stroke="#C8DDD0" stroke-width="1"/>
<text x="259" y="189.5" class="td" fill="#444444">B.Com/BBA + MBA Finance</text>
<text x="259" y="207.5" class="td" fill="#444444">(IIM/ISB)</text>
<line x1="473" y1="170" x2="473" y2="218" stroke="#C8DDD0" stroke-width="1"/>
<text x="487" y="198.5" class="td" fill="#444444">Rs. 15–60 LPA</text>
<line x1="742" y1="170" x2="742" y2="218" stroke="#C8DDD0" stroke-width="1"/>
<text x="756" y="198.5" class="td" fill="#444444">M&amp;A, capital markets</text>
<rect x="24" y="222" width="940" height="56" fill="#FFFFFF"/>
<line x1="24" y1="222" x2="964" y2="222" stroke="#C8DDD0" stroke-width="1"/>
<text x="38" y="254.5" class="td" fill="#444444">Company Secretary (CS)</text>
<line x1="245" y1="226" x2="245" y2="274" stroke="#C8DDD0" stroke-width="1"/>
<text x="259" y="254.5" class="td" fill="#444444">B.Com + CS Final (ICSI)</text>
<line x1="473" y1="226" x2="473" y2="274" stroke="#C8DDD0" stroke-width="1"/>
<text x="487" y="254.5" class="td" fill="#444444">Rs. 5–25 LPA</text>
<line x1="742" y1="226" x2="742" y2="274" stroke="#C8DDD0" stroke-width="1"/>
<text x="756" y="245.5" class="td" fill="#444444">Corporate governance,</text>
<text x="756" y="263.5" class="td" fill="#444444">compliance</text>
<rect x="24" y="278" width="940" height="56" fill="#F4FAF6"/>
<line x1="24" y1="278" x2="964" y2="278" stroke="#C8DDD0" stroke-width="1"/>
<text x="38" y="301.5" class="td" fill="#444444">CMA (Cost Management</text>
<text x="38" y="319.5" class="td" fill="#444444">Accountant)</text>
<line x1="245" y1="282" x2="245" y2="330" stroke="#C8DDD0" stroke-width="1"/>
<text x="259" y="310.5" class="td" fill="#444444">B.Com + CMA exams (ICMAI)</text>
<line x1="473" y1="282" x2="473" y2="330" stroke="#C8DDD0" stroke-width="1"/>
<text x="487" y="310.5" class="td" fill="#444444">Rs. 6–20 LPA</text>
<line x1="742" y1="282" x2="742" y2="330" stroke="#C8DDD0" stroke-width="1"/>
<text x="756" y="310.5" class="td" fill="#444444">Manufacturing, finance</text>
<rect x="24" y="334" width="940" height="44" fill="#FFFFFF"/>
<line x1="24" y1="334" x2="964" y2="334" stroke="#C8DDD0" stroke-width="1"/>
<text x="38" y="360.5" class="td" fill="#444444">IAS/IPS/IFS Officer</text>
<line x1="245" y1="338" x2="245" y2="374" stroke="#C8DDD0" stroke-width="1"/>
<text x="259" y="360.5" class="td" fill="#444444">Any graduation + UPSC CSE</text>
<line x1="473" y1="338" x2="473" y2="374" stroke="#C8DDD0" stroke-width="1"/>
<text x="487" y="360.5" class="td" fill="#444444">Rs. 6–25 LPA + substantial perks</text>
<line x1="742" y1="338" x2="742" y2="374" stroke="#C8DDD0" stroke-width="1"/>
<text x="756" y="360.5" class="td" fill="#444444">Government administration</text>
<rect x="24" y="378" width="940" height="56" fill="#F4FAF6"/>
<line x1="24" y1="378" x2="964" y2="378" stroke="#C8DDD0" stroke-width="1"/>
<text x="38" y="401.5" class="td" fill="#444444">MBA Manager</text>
<text x="38" y="419.5" class="td" fill="#444444">(finance/marketing)</text>
<line x1="245" y1="382" x2="245" y2="430" stroke="#C8DDD0" stroke-width="1"/>
<text x="259" y="401.5" class="td" fill="#444444">B.Com + MBA from top</text>
<text x="259" y="419.5" class="td" fill="#444444">institute</text>
<line x1="473" y1="382" x2="473" y2="430" stroke="#C8DDD0" stroke-width="1"/>
<text x="487" y="410.5" class="td" fill="#444444">Rs. 8–30 LPA</text>
<line x1="742" y1="382" x2="742" y2="430" stroke="#C8DDD0" stroke-width="1"/>
<text x="756" y="410.5" class="td" fill="#444444">Corporates, consulting</text>
<rect x="24" y="434" width="940" height="44" fill="#FFFFFF"/>
<line x1="24" y1="434" x2="964" y2="434" stroke="#C8DDD0" stroke-width="1"/>
<text x="38" y="460.5" class="td" fill="#444444">Bank PO / Bank Manager</text>
<line x1="245" y1="438" x2="245" y2="474" stroke="#C8DDD0" stroke-width="1"/>
<text x="259" y="460.5" class="td" fill="#444444">B.Com + IBPS/SBI PO exam</text>
<line x1="473" y1="438" x2="473" y2="474" stroke="#C8DDD0" stroke-width="1"/>
<text x="487" y="460.5" class="td" fill="#444444">Rs. 5–15 LPA</text>
<line x1="742" y1="438" x2="742" y2="474" stroke="#C8DDD0" stroke-width="1"/>
<text x="756" y="460.5" class="td" fill="#444444">Public sector banks</text>
<rect x="24" y="478" width="940" height="56" fill="#F4FAF6"/>
<line x1="24" y1="478" x2="964" y2="478" stroke="#C8DDD0" stroke-width="1"/>
<text x="38" y="501.5" class="td" fill="#444444">Financial Analyst / Fund</text>
<text x="38" y="519.5" class="td" fill="#444444">Manager</text>
<line x1="245" y1="482" x2="245" y2="530" stroke="#C8DDD0" stroke-width="1"/>
<text x="259" y="510.5" class="td" fill="#444444">B.Com + CFA + MBA</text>
<line x1="473" y1="482" x2="473" y2="530" stroke="#C8DDD0" stroke-width="1"/>
<text x="487" y="510.5" class="td" fill="#444444">Rs. 10–60 LPA</text>
<line x1="742" y1="482" x2="742" y2="530" stroke="#C8DDD0" stroke-width="1"/>
<text x="756" y="510.5" class="td" fill="#444444">Asset management, BFSI</text>
<rect x="24" y="534" width="940" height="44" fill="#FFFFFF"/>
<line x1="24" y1="534" x2="964" y2="534" stroke="#C8DDD0" stroke-width="1"/>
<text x="38" y="560.5" class="td" fill="#444444">Tax Consultant</text>
<line x1="245" y1="538" x2="245" y2="574" stroke="#C8DDD0" stroke-width="1"/>
<text x="259" y="560.5" class="td" fill="#444444">B.Com + CA or LLB</text>
<line x1="473" y1="538" x2="473" y2="574" stroke="#C8DDD0" stroke-width="1"/>
<text x="487" y="560.5" class="td" fill="#444444">Rs. 6–25 LPA</text>
<line x1="742" y1="538" x2="742" y2="574" stroke="#C8DDD0" stroke-width="1"/>
<text x="756" y="560.5" class="td" fill="#444444">Tax firms, own practice</text>
<rect x="24" y="578" width="940" height="56" fill="#F4FAF6"/>
<line x1="24" y1="578" x2="964" y2="578" stroke="#C8DDD0" stroke-width="1"/>
<text x="38" y="610.5" class="td" fill="#444444">Data Analyst (Finance)</text>
<line x1="245" y1="582" x2="245" y2="630" stroke="#C8DDD0" stroke-width="1"/>
<text x="259" y="601.5" class="td" fill="#444444">B.Com + SQL + Excel +</text>
<text x="259" y="619.5" class="td" fill="#444444">Python</text>
<line x1="473" y1="582" x2="473" y2="630" stroke="#C8DDD0" stroke-width="1"/>
<text x="487" y="610.5" class="td" fill="#444444">Rs. 5–18 LPA</text>
<line x1="742" y1="582" x2="742" y2="630" stroke="#C8DDD0" stroke-width="1"/>
<text x="756" y="601.5" class="td" fill="#444444">BFSI, e-commerce,</text>
<text x="756" y="619.5" class="td" fill="#444444">analytics</text>
<rect x="24" y="66" width="940" height="568" rx="10" fill="none" stroke="#C8DDD0" stroke-width="1.5"/>
</svg>