<svg xmlns="http://www.w3.org/2000/svg" width="988" height="402" viewBox="0 0 988 402" role="img" aria-label="Blog 14: Post-B.Com course paths">
<style>
  text { font-family: Inter, -apple-system, BlinkMacSystemFont, 'Segoe UI', sans-serif; }
  .th  { font-size: 13px; font-weight: 700; fill: #FFFFFF; }
  .td  { font-size: 12px; fill: #444444; }
  .ttl { font-size: 15px; font-weight: 700; fill: #111111; }
</style>
<rect width="988" height="402" rx="12" fill="#FFFFFF"/>
<rect x="22" y="64" width="944" height="316" rx="11" fill="#C8DDD0"/>
<text x="24" y="50" class="ttl">Blog 14: Post-B.Com course paths</text>
<rect x="24" y="66" width="940" height="44" fill="#1A6B2B"/>
<text x="38" y="92.5" class="th" fill="#FFFFFF">Post-B.Com path</text>
<line x1="210" y1="70" x2="210" y2="106" stroke="#FFFFFF44" stroke-width="1"/>
<text x="224" y="92.5" class="th" fill="#FFFFFF">Duration</text>
<line x1="328" y1="70" x2="328" y2="106" stroke="#FFFFFF44" stroke-width="1"/>
<text x="342" y="92.5" class="th" fill="#FFFFFF">What it leads to</text>
<line x1="582" y1="70" x2="582" y2="106" stroke="#FFFFFF44" stroke-width="1"/>
<text x="596" y="92.5" class="th" fill="#FFFFFF">Cost vs return</text>
<rect x="24" y="110" width="940" height="56" fill="#FFFFFF"/>
<line x1="24" y1="110" x2="964" y2="110" stroke="#C8DDD0" stroke-width="1"/>
<text x="38" y="133.5" class="td" fill="#444444">CA (Chartered</text>
<text x="38" y="151.5" class="td" fill="#444444">Accountant)</text>
<line x1="210" y1="114" x2="210" y2="162" stroke="#C8DDD0" stroke-width="1"/>
<text x="224" y="133.5" class="td" fill="#444444">3–5 years</text>
<text x="224" y="151.5" class="td" fill="#444444">after B.Com</text>
<line x1="328" y1="114" x2="328" y2="162" stroke="#C8DDD0" stroke-width="1"/>
<text x="342" y="133.5" class="td" fill="#444444">Rs. 7–60+ LPA depending on</text>
<text x="342" y="151.5" class="td" fill="#444444">level and employer</text>
<line x1="582" y1="114" x2="582" y2="162" stroke="#C8DDD0" stroke-width="1"/>
<text x="596" y="133.5" class="td" fill="#444444">Low cost, high return — one of the best ROI</text>
<text x="596" y="151.5" class="td" fill="#444444">qualifications in India</text>
<rect x="24" y="166" width="940" height="56" fill="#F4FAF6"/>
<line x1="24" y1="166" x2="964" y2="166" stroke="#C8DDD0" stroke-width="1"/>
<text x="38" y="189.5" class="td" fill="#444444">MBA Finance /</text>
<text x="38" y="207.5" class="td" fill="#444444">Marketing (top IIM)</text>
<line x1="210" y1="170" x2="210" y2="218" stroke="#C8DDD0" stroke-width="1"/>
<text x="224" y="198.5" class="td" fill="#444444">2 years</text>
<line x1="328" y1="170" x2="328" y2="218" stroke="#C8DDD0" stroke-width="1"/>
<text x="342" y="189.5" class="td" fill="#444444">Rs. 12–30 LPA starting at</text>
<text x="342" y="207.5" class="td" fill="#444444">placements</text>
<line x1="582" y1="170" x2="582" y2="218" stroke="#C8DDD0" stroke-width="1"/>
<text x="596" y="198.5" class="td" fill="#444444">Rs. 20–30 lakh fees; strong ROI if placed well</text>
<rect x="24" y="222" width="940" height="56" fill="#FFFFFF"/>
<line x1="24" y1="222" x2="964" y2="222" stroke="#C8DDD0" stroke-width="1"/>
<text x="38" y="245.5" class="td" fill="#444444">CS (Company</text>
<text x="38" y="263.5" class="td" fill="#444444">Secretary)</text>
<line x1="210" y1="226" x2="210" y2="274" stroke="#C8DDD0" stroke-width="1"/>
<text x="224" y="254.5" class="td" fill="#444444">2–3 years</text>
<line x1="328" y1="226" x2="328" y2="274" stroke="#C8DDD0" stroke-width="1"/>
<text x="342" y="254.5" class="td" fill="#444444">Rs. 5–25 LPA</text>
<line x1="582" y1="226" x2="582" y2="274" stroke="#C8DDD0" stroke-width="1"/>
<text x="596" y="254.5" class="td" fill="#444444">Moderate cost, steady demand in corporate sector</text>
<rect x="24" y="278" width="940" height="44" fill="#F4FAF6"/>
<line x1="24" y1="278" x2="964" y2="278" stroke="#C8DDD0" stroke-width="1"/>
<text x="38" y="304.5" class="td" fill="#444444">CFA (Level 1, 2, 3)</text>
<line x1="210" y1="282" x2="210" y2="318" stroke="#C8DDD0" stroke-width="1"/>
<text x="224" y="304.5" class="td" fill="#444444">3–5 years</text>
<line x1="328" y1="282" x2="328" y2="318" stroke="#C8DDD0" stroke-width="1"/>
<text x="342" y="304.5" class="td" fill="#444444">Rs. 10–50 LPA in finance roles</text>
<line x1="582" y1="282" x2="582" y2="318" stroke="#C8DDD0" stroke-width="1"/>
<text x="596" y="304.5" class="td" fill="#444444">Exam fees + prep costs around Rs. 2–5 lakh total</text>
<rect x="24" y="322" width="940" height="56" fill="#FFFFFF"/>
<line x1="24" y1="322" x2="964" y2="322" stroke="#C8DDD0" stroke-width="1"/>
<text x="38" y="345.5" class="td" fill="#444444">LLB (3 years after</text>
<text x="38" y="363.5" class="td" fill="#444444">B.Com)</text>
<line x1="210" y1="326" x2="210" y2="374" stroke="#C8DDD0" stroke-width="1"/>
<text x="224" y="354.5" class="td" fill="#444444">3 years</text>
<line x1="328" y1="326" x2="328" y2="374" stroke="#C8DDD0" stroke-width="1"/>
<text x="342" y="345.5" class="td" fill="#444444">Rs. 3–50+ LPA (corporate tax</text>
<text x="342" y="363.5" class="td" fill="#444444">law especially)</text>
<line x1="582" y1="326" x2="582" y2="374" stroke="#C8DDD0" stroke-width="1"/>
<text x="596" y="354.5" class="td" fill="#444444">Moderate investment, long runway to high salary</text>
<rect x="24" y="66" width="940" height="312" rx="10" fill="none" stroke="#C8DDD0" stroke-width="1.5"/>
</svg>