<svg xmlns="http://www.w3.org/2000/svg" width="988" height="582" viewBox="0 0 988 582" role="img" aria-label="Blog 13: Arts stream careers and salary">
<style>
  text { font-family: Inter, -apple-system, BlinkMacSystemFont, 'Segoe UI', sans-serif; }
  .th  { font-size: 13px; font-weight: 700; fill: #FFFFFF; }
  .td  { font-size: 12px; fill: #444444; }
  .ttl { font-size: 15px; font-weight: 700; fill: #111111; }
</style>
<rect width="988" height="582" rx="12" fill="#FFFFFF"/>
<rect x="22" y="64" width="944" height="496" rx="11" fill="#C8DDD0"/>
<text x="24" y="50" class="ttl">Blog 13: Arts stream careers and salary</text>
<rect x="24" y="66" width="940" height="44" fill="#1A6B2B"/>
<text x="38" y="92.5" class="th" fill="#FFFFFF">Career</text>
<line x1="182" y1="70" x2="182" y2="106" stroke="#FFFFFF44" stroke-width="1"/>
<text x="196" y="92.5" class="th" fill="#FFFFFF">Qualification</text>
<line x1="440" y1="70" x2="440" y2="106" stroke="#FFFFFF44" stroke-width="1"/>
<text x="454" y="92.5" class="th" fill="#FFFFFF">Salary range</text>
<line x1="679" y1="70" x2="679" y2="106" stroke="#FFFFFF44" stroke-width="1"/>
<text x="693" y="92.5" class="th" fill="#FFFFFF">Growth path</text>
<rect x="24" y="110" width="940" height="56" fill="#FFFFFF"/>
<line x1="24" y1="110" x2="964" y2="110" stroke="#C8DDD0" stroke-width="1"/>
<text x="38" y="133.5" class="td" fill="#444444">IAS / IPS / IFS</text>
<text x="38" y="151.5" class="td" fill="#444444">Officer</text>
<line x1="182" y1="114" x2="182" y2="162" stroke="#C8DDD0" stroke-width="1"/>
<text x="196" y="142.5" class="td" fill="#444444">Any graduation + UPSC CSE</text>
<line x1="440" y1="114" x2="440" y2="162" stroke="#C8DDD0" stroke-width="1"/>
<text x="454" y="133.5" class="td" fill="#444444">Rs. 6–25 LPA + substantial</text>
<text x="454" y="151.5" class="td" fill="#444444">perks</text>
<line x1="679" y1="114" x2="679" y2="162" stroke="#C8DDD0" stroke-width="1"/>
<text x="693" y="133.5" class="td" fill="#444444">India&#39;s most powerful</text>
<text x="693" y="151.5" class="td" fill="#444444">administrative career</text>
<rect x="24" y="166" width="940" height="56" fill="#F4FAF6"/>
<line x1="24" y1="166" x2="964" y2="166" stroke="#C8DDD0" stroke-width="1"/>
<text x="38" y="198.5" class="td" fill="#444444">Lawyer / Advocate</text>
<line x1="182" y1="170" x2="182" y2="218" stroke="#C8DDD0" stroke-width="1"/>
<text x="196" y="189.5" class="td" fill="#444444">BA LLB (5 yr) or LLB (3 yr</text>
<text x="196" y="207.5" class="td" fill="#444444">after any graduation)</text>
<line x1="440" y1="170" x2="440" y2="218" stroke="#C8DDD0" stroke-width="1"/>
<text x="454" y="189.5" class="td" fill="#444444">Rs. 3–8 LPA early / Rs. 30–50</text>
<text x="454" y="207.5" class="td" fill="#444444">LPA+ senior</text>
<line x1="679" y1="170" x2="679" y2="218" stroke="#C8DDD0" stroke-width="1"/>
<text x="693" y="189.5" class="td" fill="#444444">Slow start, very high ceiling at</text>
<text x="693" y="207.5" class="td" fill="#444444">top firms or Supreme Court</text>
<rect x="24" y="222" width="940" height="56" fill="#FFFFFF"/>
<line x1="24" y1="222" x2="964" y2="222" stroke="#C8DDD0" stroke-width="1"/>
<text x="38" y="245.5" class="td" fill="#444444">Chartered</text>
<text x="38" y="263.5" class="td" fill="#444444">Accountant (CA)</text>
<line x1="182" y1="226" x2="182" y2="274" stroke="#C8DDD0" stroke-width="1"/>
<text x="196" y="245.5" class="td" fill="#444444">Commerce or any stream + ICAI</text>
<text x="196" y="263.5" class="td" fill="#444444">exams</text>
<line x1="440" y1="226" x2="440" y2="274" stroke="#C8DDD0" stroke-width="1"/>
<text x="454" y="245.5" class="td" fill="#444444">Rs. 7–30 LPA, Rs. 60 LPA+ at</text>
<text x="454" y="263.5" class="td" fill="#444444">senior/partner level</text>
<line x1="679" y1="226" x2="679" y2="274" stroke="#C8DDD0" stroke-width="1"/>
<text x="693" y="245.5" class="td" fill="#444444">One of India&#39;s highest ROI</text>
<text x="693" y="263.5" class="td" fill="#444444">professional qualifications</text>
<rect x="24" y="278" width="940" height="56" fill="#F4FAF6"/>
<line x1="24" y1="278" x2="964" y2="278" stroke="#C8DDD0" stroke-width="1"/>
<text x="38" y="301.5" class="td" fill="#444444">MBA Graduate (any</text>
<text x="38" y="319.5" class="td" fill="#444444">specialization)</text>
<line x1="182" y1="282" x2="182" y2="330" stroke="#C8DDD0" stroke-width="1"/>
<text x="196" y="310.5" class="td" fill="#444444">Any graduation + CAT/MAT</text>
<line x1="440" y1="282" x2="440" y2="330" stroke="#C8DDD0" stroke-width="1"/>
<text x="454" y="301.5" class="td" fill="#444444">Rs. 8–30 LPA post-MBA at top</text>
<text x="454" y="319.5" class="td" fill="#444444">institutes</text>
<line x1="679" y1="282" x2="679" y2="330" stroke="#C8DDD0" stroke-width="1"/>
<text x="693" y="301.5" class="td" fill="#444444">General management, consulting,</text>
<text x="693" y="319.5" class="td" fill="#444444">marketing, finance</text>
<rect x="24" y="334" width="940" height="56" fill="#FFFFFF"/>
<line x1="24" y1="334" x2="964" y2="334" stroke="#C8DDD0" stroke-width="1"/>
<text x="38" y="357.5" class="td" fill="#444444">Journalist /</text>
<text x="38" y="375.5" class="td" fill="#444444">Senior Editor</text>
<line x1="182" y1="338" x2="182" y2="386" stroke="#C8DDD0" stroke-width="1"/>
<text x="196" y="366.5" class="td" fill="#444444">BJMC or BA + experience</text>
<line x1="440" y1="338" x2="440" y2="386" stroke="#C8DDD0" stroke-width="1"/>
<text x="454" y="357.5" class="td" fill="#444444">Rs. 4–20 LPA (digital media</text>
<text x="454" y="375.5" class="td" fill="#444444">pays at senior levels)</text>
<line x1="679" y1="338" x2="679" y2="386" stroke="#C8DDD0" stroke-width="1"/>
<text x="693" y="357.5" class="td" fill="#444444">Changing fast — digital journalism</text>
<text x="693" y="375.5" class="td" fill="#444444">growing, print shrinking</text>
<rect x="24" y="390" width="940" height="56" fill="#F4FAF6"/>
<line x1="24" y1="390" x2="964" y2="390" stroke="#C8DDD0" stroke-width="1"/>
<text x="38" y="413.5" class="td" fill="#444444">Psychologist /</text>
<text x="38" y="431.5" class="td" fill="#444444">Counselor</text>
<line x1="182" y1="394" x2="182" y2="442" stroke="#C8DDD0" stroke-width="1"/>
<text x="196" y="413.5" class="td" fill="#444444">BA/MA Psychology + RCI</text>
<text x="196" y="431.5" class="td" fill="#444444">registration for clinical roles</text>
<line x1="440" y1="394" x2="440" y2="442" stroke="#C8DDD0" stroke-width="1"/>
<text x="454" y="422.5" class="td" fill="#444444">Rs. 5–20 LPA</text>
<line x1="679" y1="394" x2="679" y2="442" stroke="#C8DDD0" stroke-width="1"/>
<text x="693" y="413.5" class="td" fill="#444444">Growing as corporate mental health</text>
<text x="693" y="431.5" class="td" fill="#444444">takes off</text>
<rect x="24" y="446" width="940" height="56" fill="#FFFFFF"/>
<line x1="24" y1="446" x2="964" y2="446" stroke="#C8DDD0" stroke-width="1"/>
<text x="38" y="469.5" class="td" fill="#444444">Digital Marketing</text>
<text x="38" y="487.5" class="td" fill="#444444">Manager</text>
<line x1="182" y1="450" x2="182" y2="498" stroke="#C8DDD0" stroke-width="1"/>
<text x="196" y="478.5" class="td" fill="#444444">Any degree + certifications</text>
<line x1="440" y1="450" x2="440" y2="498" stroke="#C8DDD0" stroke-width="1"/>
<text x="454" y="478.5" class="td" fill="#444444">Rs. 5–18 LPA</text>
<line x1="679" y1="450" x2="679" y2="498" stroke="#C8DDD0" stroke-width="1"/>
<text x="693" y="469.5" class="td" fill="#444444">High demand, easily self-</text>
<text x="693" y="487.5" class="td" fill="#444444">upskillable</text>
<rect x="24" y="502" width="940" height="56" fill="#F4FAF6"/>
<line x1="24" y1="502" x2="964" y2="502" stroke="#C8DDD0" stroke-width="1"/>
<text x="38" y="525.5" class="td" fill="#444444">Economist / Policy</text>
<text x="38" y="543.5" class="td" fill="#444444">Analyst</text>
<line x1="182" y1="506" x2="182" y2="554" stroke="#C8DDD0" stroke-width="1"/>
<text x="196" y="534.5" class="td" fill="#444444">BA/MA Economics</text>
<line x1="440" y1="506" x2="440" y2="554" stroke="#C8DDD0" stroke-width="1"/>
<text x="454" y="525.5" class="td" fill="#444444">Rs. 6–25 LPA at government</text>
<text x="454" y="543.5" class="td" fill="#444444">institutions</text>
<line x1="679" y1="506" x2="679" y2="554" stroke="#C8DDD0" stroke-width="1"/>
<text x="693" y="525.5" class="td" fill="#444444">RBI, NITI Aayog, World Bank, think</text>
<text x="693" y="543.5" class="td" fill="#444444">tanks</text>
<rect x="24" y="66" width="940" height="492" rx="10" fill="none" stroke="#C8DDD0" stroke-width="1.5"/>
</svg>