<svg xmlns="http://www.w3.org/2000/svg" width="988" height="354" viewBox="0 0 988 354" role="img" aria-label="Blog 5: Salary reality by qualification">
<style>
  text { font-family: Inter, -apple-system, BlinkMacSystemFont, 'Segoe UI', sans-serif; }
  .th  { font-size: 13px; font-weight: 700; fill: #FFFFFF; }
  .td  { font-size: 12px; fill: #444444; }
  .ttl { font-size: 15px; font-weight: 700; fill: #111111; }
</style>
<rect width="988" height="354" rx="12" fill="#FFFFFF"/>
<rect x="22" y="64" width="944" height="268" rx="11" fill="#C8DDD0"/>
<text x="24" y="50" class="ttl">Blog 5: Salary reality by qualification</text>
<rect x="24" y="66" width="940" height="44" fill="#1A6B2B"/>
<text x="38" y="92.5" class="th" fill="#FFFFFF">Qualification</text>
<line x1="301" y1="70" x2="301" y2="106" stroke="#FFFFFF44" stroke-width="1"/>
<text x="315" y="92.5" class="th" fill="#FFFFFF">Fresher Salary (LPA)</text>
<line x1="480" y1="70" x2="480" y2="106" stroke="#FFFFFF44" stroke-width="1"/>
<text x="494" y="92.5" class="th" fill="#FFFFFF">3-year Salary (LPA)</text>
<line x1="650" y1="70" x2="650" y2="106" stroke="#FFFFFF44" stroke-width="1"/>
<text x="664" y="92.5" class="th" fill="#FFFFFF">Growth ceiling</text>
<rect x="24" y="110" width="940" height="44" fill="#FFFFFF"/>
<line x1="24" y1="110" x2="964" y2="110" stroke="#C8DDD0" stroke-width="1"/>
<text x="38" y="136.5" class="td" fill="#444444">DCA / ADCA</text>
<line x1="301" y1="114" x2="301" y2="150" stroke="#C8DDD0" stroke-width="1"/>
<text x="315" y="136.5" class="td" fill="#444444">Rs. 1.5–3 LPA</text>
<line x1="480" y1="114" x2="480" y2="150" stroke="#C8DDD0" stroke-width="1"/>
<text x="494" y="136.5" class="td" fill="#444444">Rs. 2.5–5 LPA</text>
<line x1="650" y1="114" x2="650" y2="150" stroke="#C8DDD0" stroke-width="1"/>
<text x="664" y="136.5" class="td" fill="#444444">Limited without further study</text>
<rect x="24" y="154" width="940" height="44" fill="#F4FAF6"/>
<line x1="24" y1="154" x2="964" y2="154" stroke="#C8DDD0" stroke-width="1"/>
<text x="38" y="180.5" class="td" fill="#444444">B.Sc CS / BCA (tier-2 college)</text>
<line x1="301" y1="158" x2="301" y2="194" stroke="#C8DDD0" stroke-width="1"/>
<text x="315" y="180.5" class="td" fill="#444444">Rs. 3–6 LPA</text>
<line x1="480" y1="158" x2="480" y2="194" stroke="#C8DDD0" stroke-width="1"/>
<text x="494" y="180.5" class="td" fill="#444444">Rs. 5–10 LPA</text>
<line x1="650" y1="158" x2="650" y2="194" stroke="#C8DDD0" stroke-width="1"/>
<text x="664" y="180.5" class="td" fill="#444444">Moderate — needs upskilling</text>
<rect x="24" y="198" width="940" height="44" fill="#FFFFFF"/>
<line x1="24" y1="198" x2="964" y2="198" stroke="#C8DDD0" stroke-width="1"/>
<text x="38" y="224.5" class="td" fill="#444444">B.Sc CS / BCA (NAAC A+ college)</text>
<line x1="301" y1="202" x2="301" y2="238" stroke="#C8DDD0" stroke-width="1"/>
<text x="315" y="224.5" class="td" fill="#444444">Rs. 4–8 LPA</text>
<line x1="480" y1="202" x2="480" y2="238" stroke="#C8DDD0" stroke-width="1"/>
<text x="494" y="224.5" class="td" fill="#444444">Rs. 8–15 LPA</text>
<line x1="650" y1="202" x2="650" y2="238" stroke="#C8DDD0" stroke-width="1"/>
<text x="664" y="224.5" class="td" fill="#444444">Good — similar to some B.Tech paths</text>
<rect x="24" y="242" width="940" height="44" fill="#F4FAF6"/>
<line x1="24" y1="242" x2="964" y2="242" stroke="#C8DDD0" stroke-width="1"/>
<text x="38" y="268.5" class="td" fill="#444444">B.Tech CSE (tier-3 college)</text>
<line x1="301" y1="246" x2="301" y2="282" stroke="#C8DDD0" stroke-width="1"/>
<text x="315" y="268.5" class="td" fill="#444444">Rs. 3–6 LPA</text>
<line x1="480" y1="246" x2="480" y2="282" stroke="#C8DDD0" stroke-width="1"/>
<text x="494" y="268.5" class="td" fill="#444444">Rs. 5–12 LPA</text>
<line x1="650" y1="246" x2="650" y2="282" stroke="#C8DDD0" stroke-width="1"/>
<text x="664" y="268.5" class="td" fill="#444444">Moderate</text>
<rect x="24" y="286" width="940" height="44" fill="#FFFFFF"/>
<line x1="24" y1="286" x2="964" y2="286" stroke="#C8DDD0" stroke-width="1"/>
<text x="38" y="312.5" class="td" fill="#444444">B.Tech CSE (IIT/NIT)</text>
<line x1="301" y1="290" x2="301" y2="326" stroke="#C8DDD0" stroke-width="1"/>
<text x="315" y="312.5" class="td" fill="#444444">Rs. 10–40 LPA</text>
<line x1="480" y1="290" x2="480" y2="326" stroke="#C8DDD0" stroke-width="1"/>
<text x="494" y="312.5" class="td" fill="#444444">Rs. 20–60 LPA</text>
<line x1="650" y1="290" x2="650" y2="326" stroke="#C8DDD0" stroke-width="1"/>
<text x="664" y="312.5" class="td" fill="#444444">Highest</text>
<rect x="24" y="66" width="940" height="264" rx="10" fill="none" stroke="#C8DDD0" stroke-width="1.5"/>
</svg>