<svg xmlns="http://www.w3.org/2000/svg" width="988" height="346" viewBox="0 0 988 346" role="img" aria-label="Blog 6: Science stream subject combinations">
<style>
  text { font-family: Inter, -apple-system, BlinkMacSystemFont, 'Segoe UI', sans-serif; }
  .th  { font-size: 13px; font-weight: 700; fill: #FFFFFF; }
  .td  { font-size: 12px; fill: #444444; }
  .ttl { font-size: 15px; font-weight: 700; fill: #111111; }
</style>
<rect width="988" height="346" rx="12" fill="#FFFFFF"/>
<rect x="22" y="64" width="944" height="260" rx="11" fill="#C8DDD0"/>
<text x="24" y="50" class="ttl">Blog 6: Science stream subject combinations</text>
<rect x="24" y="66" width="940" height="44" fill="#1A6B2B"/>
<text x="38" y="92.5" class="th" fill="#FFFFFF">Stream</text>
<line x1="120" y1="70" x2="120" y2="106" stroke="#FFFFFF44" stroke-width="1"/>
<text x="134" y="92.5" class="th" fill="#FFFFFF">Subjects</text>
<line x1="424" y1="70" x2="424" y2="106" stroke="#FFFFFF44" stroke-width="1"/>
<text x="438" y="92.5" class="th" fill="#FFFFFF">Opens the door to</text>
<rect x="24" y="110" width="940" height="56" fill="#FFFFFF"/>
<line x1="24" y1="110" x2="964" y2="110" stroke="#C8DDD0" stroke-width="1"/>
<text x="38" y="142.5" class="td" fill="#444444">PCM</text>
<line x1="120" y1="114" x2="120" y2="162" stroke="#C8DDD0" stroke-width="1"/>
<text x="134" y="142.5" class="td" fill="#444444">Physics, Chemistry, Mathematics</text>
<line x1="424" y1="114" x2="424" y2="162" stroke="#C8DDD0" stroke-width="1"/>
<text x="438" y="133.5" class="td" fill="#444444">Engineering (JEE), Architecture (NATA), BCA, B.Sc CS/Maths, Merchant</text>
<text x="438" y="151.5" class="td" fill="#444444">Navy, NDA</text>
<rect x="24" y="166" width="940" height="56" fill="#F4FAF6"/>
<line x1="24" y1="166" x2="964" y2="166" stroke="#C8DDD0" stroke-width="1"/>
<text x="38" y="198.5" class="td" fill="#444444">PCB</text>
<line x1="120" y1="170" x2="120" y2="218" stroke="#C8DDD0" stroke-width="1"/>
<text x="134" y="198.5" class="td" fill="#444444">Physics, Chemistry, Biology</text>
<line x1="424" y1="170" x2="424" y2="218" stroke="#C8DDD0" stroke-width="1"/>
<text x="438" y="189.5" class="td" fill="#444444">MBBS/BDS (NEET), Pharmacy, Nursing, Physiotherapy, Biotech,</text>
<text x="438" y="207.5" class="td" fill="#444444">Microbiology</text>
<rect x="24" y="222" width="940" height="44" fill="#FFFFFF"/>
<line x1="24" y1="222" x2="964" y2="222" stroke="#C8DDD0" stroke-width="1"/>
<text x="38" y="248.5" class="td" fill="#444444">PCMB</text>
<line x1="120" y1="226" x2="120" y2="262" stroke="#C8DDD0" stroke-width="1"/>
<text x="134" y="248.5" class="td" fill="#444444">All four subjects</text>
<line x1="424" y1="226" x2="424" y2="262" stroke="#C8DDD0" stroke-width="1"/>
<text x="438" y="248.5" class="td" fill="#444444">Everything from PCM and PCB, plus unique interdisciplinary options</text>
<rect x="24" y="266" width="940" height="56" fill="#F4FAF6"/>
<line x1="24" y1="266" x2="964" y2="266" stroke="#C8DDD0" stroke-width="1"/>
<text x="38" y="289.5" class="td" fill="#444444">PCM with</text>
<text x="38" y="307.5" class="td" fill="#444444">CS/IT</text>
<line x1="120" y1="270" x2="120" y2="318" stroke="#C8DDD0" stroke-width="1"/>
<text x="134" y="289.5" class="td" fill="#444444">Physics, Chemistry, Maths + Computer</text>
<text x="134" y="307.5" class="td" fill="#444444">Science</text>
<line x1="424" y1="270" x2="424" y2="318" stroke="#C8DDD0" stroke-width="1"/>
<text x="438" y="298.5" class="td" fill="#444444">All PCM paths plus BCA, B.Sc IT without needing a separate eligibility</text>
<rect x="24" y="66" width="940" height="256" rx="10" fill="none" stroke="#C8DDD0" stroke-width="1.5"/>
</svg>