<svg xmlns="http://www.w3.org/2000/svg" width="988" height="414" viewBox="0 0 988 414" role="img" aria-label="Blog 8: World toughest exams">
<style>
  text { font-family: Inter, -apple-system, BlinkMacSystemFont, 'Segoe UI', sans-serif; }
  .th  { font-size: 13px; font-weight: 700; fill: #FFFFFF; }
  .td  { font-size: 12px; fill: #444444; }
  .ttl { font-size: 15px; font-weight: 700; fill: #111111; }
</style>
<rect width="988" height="414" rx="12" fill="#FFFFFF"/>
<rect x="22" y="64" width="944" height="328" rx="11" fill="#C8DDD0"/>
<text x="24" y="50" class="ttl">Blog 8: World toughest exams</text>
<rect x="24" y="66" width="940" height="44" fill="#1A6B2B"/>
<text x="38" y="92.5" class="th" fill="#FFFFFF">Rank</text>
<line x1="84" y1="70" x2="84" y2="106" stroke="#FFFFFF44" stroke-width="1"/>
<text x="98" y="92.5" class="th" fill="#FFFFFF">Exam</text>
<line x1="384" y1="70" x2="384" y2="106" stroke="#FFFFFF44" stroke-width="1"/>
<text x="398" y="92.5" class="th" fill="#FFFFFF">Country</text>
<line x1="491" y1="70" x2="491" y2="106" stroke="#FFFFFF44" stroke-width="1"/>
<text x="505" y="92.5" class="th" fill="#FFFFFF">Pass rate</text>
<line x1="714" y1="70" x2="714" y2="106" stroke="#FFFFFF44" stroke-width="1"/>
<text x="728" y="92.5" class="th" fill="#FFFFFF">What it determines</text>
<rect x="24" y="110" width="940" height="56" fill="#FFFFFF"/>
<line x1="24" y1="110" x2="964" y2="110" stroke="#C8DDD0" stroke-width="1"/>
<text x="38" y="142.5" class="td" fill="#444444">1</text>
<line x1="84" y1="114" x2="84" y2="162" stroke="#C8DDD0" stroke-width="1"/>
<text x="98" y="133.5" class="td" fill="#444444">Gaokao (National College Entrance</text>
<text x="98" y="151.5" class="td" fill="#444444">Exam)</text>
<line x1="384" y1="114" x2="384" y2="162" stroke="#C8DDD0" stroke-width="1"/>
<text x="398" y="142.5" class="td" fill="#444444">China</text>
<line x1="491" y1="114" x2="491" y2="162" stroke="#C8DDD0" stroke-width="1"/>
<text x="505" y="142.5" class="td" fill="#444444">0.003% for top universities</text>
<line x1="714" y1="114" x2="714" y2="162" stroke="#C8DDD0" stroke-width="1"/>
<text x="728" y="133.5" class="td" fill="#444444">Undergraduate university</text>
<text x="728" y="151.5" class="td" fill="#444444">admission</text>
<rect x="24" y="166" width="940" height="56" fill="#F4FAF6"/>
<line x1="24" y1="166" x2="964" y2="166" stroke="#C8DDD0" stroke-width="1"/>
<text x="38" y="198.5" class="td" fill="#444444">2</text>
<line x1="84" y1="170" x2="84" y2="218" stroke="#C8DDD0" stroke-width="1"/>
<text x="98" y="198.5" class="td" fill="#444444">UPSC Civil Services</text>
<line x1="384" y1="170" x2="384" y2="218" stroke="#C8DDD0" stroke-width="1"/>
<text x="398" y="198.5" class="td" fill="#444444">India</text>
<line x1="491" y1="170" x2="491" y2="218" stroke="#C8DDD0" stroke-width="1"/>
<text x="505" y="198.5" class="td" fill="#444444">~0.1–0.2%</text>
<line x1="714" y1="170" x2="714" y2="218" stroke="#C8DDD0" stroke-width="1"/>
<text x="728" y="189.5" class="td" fill="#444444">IAS, IPS, IFS officer</text>
<text x="728" y="207.5" class="td" fill="#444444">selection</text>
<rect x="24" y="222" width="940" height="56" fill="#FFFFFF"/>
<line x1="24" y1="222" x2="964" y2="222" stroke="#C8DDD0" stroke-width="1"/>
<text x="38" y="254.5" class="td" fill="#444444">3</text>
<line x1="84" y1="226" x2="84" y2="274" stroke="#C8DDD0" stroke-width="1"/>
<text x="98" y="254.5" class="td" fill="#444444">IIT JEE Advanced</text>
<line x1="384" y1="226" x2="384" y2="274" stroke="#C8DDD0" stroke-width="1"/>
<text x="398" y="254.5" class="td" fill="#444444">India</text>
<line x1="491" y1="226" x2="491" y2="274" stroke="#C8DDD0" stroke-width="1"/>
<text x="505" y="245.5" class="td" fill="#444444">~1–3% of Advanced</text>
<text x="505" y="263.5" class="td" fill="#444444">candidates</text>
<line x1="714" y1="226" x2="714" y2="274" stroke="#C8DDD0" stroke-width="1"/>
<text x="728" y="254.5" class="td" fill="#444444">IIT engineering admission</text>
<rect x="24" y="278" width="940" height="56" fill="#F4FAF6"/>
<line x1="24" y1="278" x2="964" y2="278" stroke="#C8DDD0" stroke-width="1"/>
<text x="38" y="310.5" class="td" fill="#444444">4</text>
<line x1="84" y1="282" x2="84" y2="330" stroke="#C8DDD0" stroke-width="1"/>
<text x="98" y="310.5" class="td" fill="#444444">All Souls Prize Fellowship Exam</text>
<line x1="384" y1="282" x2="384" y2="330" stroke="#C8DDD0" stroke-width="1"/>
<text x="398" y="301.5" class="td" fill="#444444">United</text>
<text x="398" y="319.5" class="td" fill="#444444">Kingdom</text>
<line x1="491" y1="282" x2="491" y2="330" stroke="#C8DDD0" stroke-width="1"/>
<text x="505" y="301.5" class="td" fill="#444444">2 of ~150 candidates</text>
<text x="505" y="319.5" class="td" fill="#444444">selected</text>
<line x1="714" y1="282" x2="714" y2="330" stroke="#C8DDD0" stroke-width="1"/>
<text x="728" y="301.5" class="td" fill="#444444">7-year Oxford research</text>
<text x="728" y="319.5" class="td" fill="#444444">fellowship</text>
<rect x="24" y="334" width="940" height="56" fill="#FFFFFF"/>
<line x1="24" y1="334" x2="964" y2="334" stroke="#C8DDD0" stroke-width="1"/>
<text x="38" y="366.5" class="td" fill="#444444">5</text>
<line x1="84" y1="338" x2="84" y2="386" stroke="#C8DDD0" stroke-width="1"/>
<text x="98" y="366.5" class="td" fill="#444444">Master Sommelier Diploma</text>
<line x1="384" y1="338" x2="384" y2="386" stroke="#C8DDD0" stroke-width="1"/>
<text x="398" y="357.5" class="td" fill="#444444">USA /</text>
<text x="398" y="375.5" class="td" fill="#444444">Global</text>
<line x1="491" y1="338" x2="491" y2="386" stroke="#C8DDD0" stroke-width="1"/>
<text x="505" y="366.5" class="td" fill="#444444">Under 10%</text>
<line x1="714" y1="338" x2="714" y2="386" stroke="#C8DDD0" stroke-width="1"/>
<text x="728" y="357.5" class="td" fill="#444444">Highest level wine</text>
<text x="728" y="375.5" class="td" fill="#444444">certification</text>
<rect x="24" y="66" width="940" height="324" rx="10" fill="none" stroke="#C8DDD0" stroke-width="1.5"/>
</svg>