<svg xmlns="http://www.w3.org/2000/svg" width="760" height="380" viewBox="0 0 760 380">
  <defs>
    <linearGradient id="navyGrad" x1="0" y1="0" x2="1" y2="0"><stop offset="0%" stop-color="#0F172A"/><stop offset="100%" stop-color="#1E40AF"/></linearGradient>
    <linearGradient id="orangeGrad" x1="0" y1="0" x2="1" y2="0"><stop offset="0%" stop-color="#F97316"/><stop offset="100%" stop-color="#FBBF24"/></linearGradient>
    <linearGradient id="greenGrad" x1="0" y1="0" x2="1" y2="0"><stop offset="0%" stop-color="#16A34A"/><stop offset="100%" stop-color="#4ADE80"/></linearGradient>
  </defs>
  <rect width="760" height="380" rx="12" fill="#F8FAFC"/>
  <text x="380" y="36" text-anchor="middle" font-family="Arial" font-size="16" font-weight="bold" fill="#0F172A">Online MCA Total Course Fee Comparison (UGC-Approved Universities)</text>
  <line x1="210" y1="326" x2="730" y2="326" stroke="#CBD5E1" stroke-width="1.5"/>
  <text x="210" y="344" text-anchor="middle" font-family="Arial" font-size="11" fill="#64748B">&#x20B9;0</text>
  <text x="340" y="344" text-anchor="middle" font-family="Arial" font-size="11" fill="#64748B">&#x20B9;50K</text>
  <text x="470" y="344" text-anchor="middle" font-family="Arial" font-size="11" fill="#64748B">&#x20B9;1L</text>
  <text x="600" y="344" text-anchor="middle" font-family="Arial" font-size="11" fill="#64748B">&#x20B9;1.5L</text>
  <text x="730" y="344" text-anchor="middle" font-family="Arial" font-size="11" fill="#64748B">&#x20B9;2.2L</text>
  <line x1="340" y1="58" x2="340" y2="326" stroke="#E2E8F0" stroke-width="1" stroke-dasharray="4,3"/>
  <line x1="470" y1="58" x2="470" y2="326" stroke="#E2E8F0" stroke-width="1" stroke-dasharray="4,3"/>
  <line x1="600" y1="58" x2="600" y2="326" stroke="#E2E8F0" stroke-width="1" stroke-dasharray="4,3"/>
  <rect x="210" y="68" width="118" height="30" rx="4" fill="url(#greenGrad)"/>
  <text x="205" y="88" text-anchor="end" font-family="Arial" font-size="12" fill="#334155">Yenepoya Univ.</text>
  <text x="334" y="88" font-family="Arial" font-size="11" font-weight="bold" fill="#166534">&#x20B9;50,000</text>
  <rect x="210" y="106" width="155" height="30" rx="4" fill="url(#greenGrad)" opacity="0.9"/>
  <text x="205" y="126" text-anchor="end" font-family="Arial" font-size="12" fill="#334155">KL University</text>
  <text x="371" y="126" font-family="Arial" font-size="11" font-weight="bold" fill="#166534">&#x20B9;65,500</text>
  <rect x="210" y="144" width="158" height="30" rx="4" fill="url(#greenGrad)" opacity="0.85"/>
  <text x="205" y="164" text-anchor="end" font-family="Arial" font-size="12" fill="#334155">Mangalayatan</text>
  <text x="374" y="164" font-family="Arial" font-size="11" font-weight="bold" fill="#166534">&#x20B9;67,000</text>
  <rect x="210" y="182" width="213" height="30" rx="4" fill="url(#orangeGrad)" opacity="0.9"/>
  <text x="205" y="202" text-anchor="end" font-family="Arial" font-size="12" fill="#334155">Vignan's Univ.</text>
  <text x="429" y="202" font-family="Arial" font-size="11" font-weight="bold" fill="#C2410C">&#x20B9;90,000</text>
  <rect x="210" y="220" width="237" height="30" rx="4" fill="url(#orangeGrad)" opacity="0.85"/>
  <text x="205" y="240" text-anchor="end" font-family="Arial" font-size="12" fill="#334155">HITS (Hindustan)</text>
  <text x="453" y="240" font-family="Arial" font-size="11" font-weight="bold" fill="#C2410C">&#x20B9;90,000</text>
  <rect x="210" y="258" width="330" height="30" rx="4" fill="url(#orangeGrad)" opacity="0.75"/>
  <text x="205" y="278" text-anchor="end" font-family="Arial" font-size="12" fill="#334155">Amrita Vishwa</text>
  <text x="546" y="278" font-family="Arial" font-size="11" font-weight="bold" fill="#C2410C">&#x20B9;1,40,000</text>
  <rect x="210" y="296" width="401" height="30" rx="4" fill="url(#navyGrad)" opacity="0.85"/>
  <text x="205" y="316" text-anchor="end" font-family="Arial" font-size="12" fill="#334155">Amity Online</text>
  <text x="617" y="316" font-family="Arial" font-size="11" font-weight="bold" fill="#1E3A8A">&#x20B9;1,70,000</text>
  <rect x="215" y="358" width="14" height="10" rx="2" fill="#16A34A"/>
  <text x="233" y="367" font-family="Arial" font-size="11" fill="#64748B">Budget (below &#x20B9;1L)</text>
  <rect x="380" y="358" width="14" height="10" rx="2" fill="#F97316"/>
  <text x="398" y="367" font-family="Arial" font-size="11" fill="#64748B">Mid-range (&#x20B9;1L-&#x20B9;1.5L)</text>
  <rect x="568" y="358" width="14" height="10" rx="2" fill="#0F172A"/>
  <text x="586" y="367" font-family="Arial" font-size="11" fill="#64748B">Premium (above &#x20B9;1.5L)</text>
</svg>