<svg xmlns="http://www.w3.org/2000/svg" width="760" height="320" viewBox="0 0 760 320">
  <rect width="760" height="320" rx="12" fill="#F8FAFC"/>
  <text x="380" y="30" text-anchor="middle" font-family="Arial" font-size="16" font-weight="bold" fill="#0F172A">MCA Salary Growth by Experience Level (India, 2025)</text>
  <line x1="80" y1="55" x2="80" y2="255" stroke="#CBD5E1" stroke-width="1.5"/>
  <line x1="80" y1="255" x2="700" y2="255" stroke="#CBD5E1" stroke-width="1.5"/>
  <text x="72" y="260" text-anchor="end" font-family="Arial" font-size="11" fill="#94A3B8">0</text>
  <text x="72" y="208" text-anchor="end" font-family="Arial" font-size="11" fill="#94A3B8">&#x20B9;10L</text>
  <text x="72" y="160" text-anchor="end" font-family="Arial" font-size="11" fill="#94A3B8">&#x20B9;20L</text>
  <text x="72" y="112" text-anchor="end" font-family="Arial" font-size="11" fill="#94A3B8">&#x20B9;30L</text>
  <text x="72" y="64" text-anchor="end" font-family="Arial" font-size="11" fill="#94A3B8">&#x20B9;40L</text>
  <line x1="80" y1="208" x2="700" y2="208" stroke="#E2E8F0" stroke-width="1" stroke-dasharray="4,3"/>
  <line x1="80" y1="160" x2="700" y2="160" stroke="#E2E8F0" stroke-width="1" stroke-dasharray="4,3"/>
  <line x1="80" y1="112" x2="700" y2="112" stroke="#E2E8F0" stroke-width="1" stroke-dasharray="4,3"/>
  <line x1="80" y1="64" x2="700" y2="64" stroke="#E2E8F0" stroke-width="1" stroke-dasharray="4,3"/>
  <polygon points="80,240 235,226 390,208 545,176 700,128 700,255 80,255" fill="#DBEAFE" opacity="0.5"/>
  <polygon points="80,226 235,208 390,168 545,128 700,76 700,128 545,176 390,208 235,226" fill="#93C5FD" opacity="0.4"/>
  <polyline points="80,240 235,226 390,208 545,176 700,128" fill="none" stroke="#3B82F6" stroke-width="2.5" stroke-linecap="round" stroke-linejoin="round"/>
  <polyline points="80,226 235,208 390,168 545,128 700,76" fill="none" stroke="#0F172A" stroke-width="2.5" stroke-linecap="round" stroke-linejoin="round" stroke-dasharray="6,3"/>
  <circle cx="80" cy="240" r="5" fill="#3B82F6"/><circle cx="235" cy="226" r="5" fill="#3B82F6"/>
  <circle cx="390" cy="208" r="5" fill="#3B82F6"/><circle cx="545" cy="176" r="5" fill="#3B82F6"/>
  <circle cx="700" cy="128" r="5" fill="#3B82F6"/>
  <circle cx="80" cy="226" r="5" fill="#0F172A"/><circle cx="235" cy="208" r="5" fill="#0F172A"/>
  <circle cx="390" cy="168" r="5" fill="#0F172A"/><circle cx="545" cy="128" r="5" fill="#0F172A"/>
  <circle cx="700" cy="76" r="5" fill="#0F172A"/>
  <text x="80" y="273" text-anchor="middle" font-family="Arial" font-size="11" fill="#334155">Fresher</text>
  <text x="235" y="273" text-anchor="middle" font-family="Arial" font-size="11" fill="#334155">1-3 yrs</text>
  <text x="390" y="273" text-anchor="middle" font-family="Arial" font-size="11" fill="#334155">3-5 yrs</text>
  <text x="545" y="273" text-anchor="middle" font-family="Arial" font-size="11" fill="#334155">5-8 yrs</text>
  <text x="700" y="273" text-anchor="middle" font-family="Arial" font-size="11" fill="#334155">10+ yrs</text>
  <text x="80" y="218" text-anchor="middle" font-family="Arial" font-size="11" fill="#1D4ED8" font-weight="bold">3-7L</text>
  <text x="235" y="198" text-anchor="middle" font-family="Arial" font-size="11" fill="#1D4ED8" font-weight="bold">4-8L</text>
  <text x="390" y="158" text-anchor="middle" font-family="Arial" font-size="11" fill="#1D4ED8" font-weight="bold">8-12L</text>
  <text x="545" y="118" text-anchor="middle" font-family="Arial" font-size="11" fill="#0F172A" font-weight="bold">12-18L</text>
  <text x="700" y="66" text-anchor="middle" font-family="Arial" font-size="11" fill="#0F172A" font-weight="bold">20-40L</text>
  <line x1="210" y1="298" x2="236" y2="298" stroke="#3B82F6" stroke-width="2.5"/>
  <text x="240" y="302" font-family="Arial" font-size="11" fill="#64748B">Min salary range</text>
  <line x1="390" y1="298" x2="416" y2="298" stroke="#0F172A" stroke-width="2.5" stroke-dasharray="6,3"/>
  <text x="420" y="302" font-family="Arial" font-size="11" fill="#64748B">Max salary range</text>
  <text x="380" y="315" text-anchor="middle" font-family="Arial" font-size="10" fill="#94A3B8">Source: Payscale, Glassdoor India (2025) | Specialisation: AI/ML, Cloud, Cybersecurity</text>
</svg>