<svg xmlns="http://www.w3.org/2000/svg" width="760" height="360" viewBox="0 0 760 360">
  <defs>
    <linearGradient id="g1" x1="0" y1="0" x2="0" y2="1"><stop offset="0%" stop-color="#F97316"/><stop offset="100%" stop-color="#FBBF24"/></linearGradient>
    <linearGradient id="g2" x1="0" y1="0" x2="0" y2="1"><stop offset="0%" stop-color="#0F172A"/><stop offset="100%" stop-color="#1E40AF"/></linearGradient>
    <linearGradient id="g3" x1="0" y1="0" x2="0" y2="1"><stop offset="0%" stop-color="#16A34A"/><stop offset="100%" stop-color="#4ADE80"/></linearGradient>
  </defs>
  <rect width="760" height="360" rx="12" fill="#F8FAFC"/>
  <text x="380" y="32" text-anchor="middle" font-family="Arial" font-size="16" font-weight="bold" fill="#0F172A">Amity Online MCA Fees vs Similar Universities (Total Fee)</text>
  <line x1="60" y1="288" x2="720" y2="288" stroke="#CBD5E1" stroke-width="1.5"/>
  <text x="390" y="312" text-anchor="middle" font-family="Arial" font-size="12" fill="#94A3B8">All universities shown are UGC-DEB approved with NAAC A+ or A++ accreditation</text>
  <rect x="65" y="178" width="60" height="110" rx="5" fill="url(#g3)" opacity="0.9"/>
  <text x="95" y="170" text-anchor="middle" font-family="Arial" font-size="11" font-weight="bold" fill="#166534">&#x20B9;65.5K</text>
  <text x="95" y="306" text-anchor="middle" font-family="Arial" font-size="10" fill="#475569">KL Univ.</text>
  <rect x="158" y="148" width="60" height="140" rx="5" fill="url(#g3)" opacity="0.85"/>
  <text x="188" y="140" text-anchor="middle" font-family="Arial" font-size="11" font-weight="bold" fill="#166534">&#x20B9;90K</text>
  <text x="188" y="306" text-anchor="middle" font-family="Arial" font-size="10" fill="#475569">Vignan's</text>
  <rect x="251" y="78" width="60" height="210" rx="5" fill="url(#g1)" opacity="0.85"/>
  <text x="281" y="70" text-anchor="middle" font-family="Arial" font-size="11" font-weight="bold" fill="#C2410C">&#x20B9;1.4L</text>
  <text x="281" y="306" text-anchor="middle" font-family="Arial" font-size="10" fill="#475569">Amrita</text>
  <rect x="344" y="55" width="72" height="233" rx="5" fill="url(#g1)" opacity="1"/>
  <rect x="341" y="52" width="78" height="240" rx="6" fill="none" stroke="#F97316" stroke-width="3"/>
  <text x="380" y="46" text-anchor="middle" font-family="Arial" font-size="13" font-weight="bold" fill="#C2410C">&#x20B9;1.7L</text>
  <text x="380" y="306" text-anchor="middle" font-family="Arial" font-size="12" font-weight="bold" fill="#0F172A">AMITY</text>
  <text x="380" y="320" text-anchor="middle" font-family="Arial" font-size="9" fill="#F97316">THIS REVIEW</text>
  <rect x="435" y="73" width="60" height="215" rx="5" fill="url(#g2)" opacity="0.75"/>
  <text x="465" y="65" text-anchor="middle" font-family="Arial" font-size="11" font-weight="bold" fill="#1E40AF">&#x20B9;1.55L</text>
  <text x="465" y="306" text-anchor="middle" font-family="Arial" font-size="10" fill="#475569">Chd. Univ.</text>
  <rect x="528" y="88" width="60" height="200" rx="5" fill="url(#g2)" opacity="0.8"/>
  <text x="558" y="80" text-anchor="middle" font-family="Arial" font-size="11" font-weight="bold" fill="#1E40AF">&#x20B9;1.7L</text>
  <text x="558" y="306" text-anchor="middle" font-family="Arial" font-size="10" fill="#475569">Jain Univ.</text>
  <rect x="621" y="44" width="60" height="244" rx="5" fill="url(#g2)" opacity="0.9"/>
  <text x="651" y="36" text-anchor="middle" font-family="Arial" font-size="11" font-weight="bold" fill="#0F172A">&#x20B9;2.2L</text>
  <text x="651" y="306" text-anchor="middle" font-family="Arial" font-size="10" fill="#475569">Manipal</text>
  <text x="380" y="340" text-anchor="middle" font-family="Arial" font-size="10" fill="#94A3B8">Fee comparison based on published 2025 data from respective university websites</text>
</svg>